<?xml version="1.0" encoding="UTF-8"?>
<!DOCTYPE svg PUBLIC "-//W3C//DTD SVG 1.1//EN" "http://www.w3.org/Graphics/SVG/1.1/DTD/svg11.dtd">
<svg xmlns="http://www.w3.org/2000/svg" version="1.1" width="1074px" height="724px" style="shape-rendering:geometricPrecision; text-rendering:geometricPrecision; image-rendering:optimizeQuality; fill-rule:evenodd; clip-rule:evenodd" xmlns:xlink="http://www.w3.org/1999/xlink">
<g><path style="opacity:0" fill="#17171700" d="M -0.5,-0.5 C 357.5,-0.5 715.5,-0.5 1073.5,-0.5C 1073.5,240.833 1073.5,482.167 1073.5,723.5C 715.5,723.5 357.5,723.5 -0.5,723.5C -0.5,482.167 -0.5,240.833 -0.5,-0.5 Z"/></g>
<g><path style="opacity:1" fill="#f9f9f9" d="M 635.5,20.5 C 639.514,20.3345 643.514,20.5012 647.5,21C 655.809,25.5058 657.642,32.0058 653,40.5C 648.926,44.1189 644.759,47.6189 640.5,51C 645.489,51.4993 650.489,51.6659 655.5,51.5C 655.5,54.5 655.5,57.5 655.5,60.5C 646.167,60.5 636.833,60.5 627.5,60.5C 627.178,56.253 628.011,52.253 630,48.5C 633.648,44.5214 637.648,40.8547 642,37.5C 644.811,32.7361 643.478,30.0694 638,29.5C 635.004,29.9143 632.504,31.2477 630.5,33.5C 629.343,30.2156 629.176,26.8823 630,23.5C 631.876,22.3913 633.709,21.3913 635.5,20.5 Z"/></g>
<g><path style="opacity:1" fill="#f7f7f7" d="M 669.5,60.5 C 669.832,51.1429 669.498,41.8096 668.5,32.5C 667.893,32.6236 667.56,32.9569 667.5,33.5C 665.283,34.3686 662.95,34.702 660.5,34.5C 660.5,31.5 660.5,28.5 660.5,25.5C 664.97,25.2173 668.97,23.7173 672.5,21C 675.482,20.502 678.482,20.3354 681.5,20.5C 681.5,33.8333 681.5,47.1667 681.5,60.5C 677.5,60.5 673.5,60.5 669.5,60.5 Z"/></g>
<g><path style="opacity:1" fill="#f4f4f4" d="M 693.5,20.5 C 705.752,19.3486 710.252,24.682 707,36.5C 701.292,42.7151 695.292,43.0485 689,37.5C 686.056,30.5243 687.556,24.8576 693.5,20.5 Z"/></g>
<g><path style="opacity:1" fill="#f5f5f5" d="M 717.5,21.5 C 720.572,21.1826 723.572,21.5159 726.5,22.5C 718.667,34.8333 710.833,47.1667 703,59.5C 699.875,60.7874 696.709,60.7874 693.5,59.5C 701.948,47.0652 709.948,34.3985 717.5,21.5 Z"/></g>
<g><path style="opacity:1" fill="#212121" d="M 696.5,26.5 C 699.309,26.5878 700.642,28.0878 700.5,31C 698.472,36.8737 696.805,36.8737 695.5,31C 695.605,29.4085 695.939,27.9085 696.5,26.5 Z"/></g>
<g><path style="opacity:1" fill="#7e7d7e" d="M 667.5,33.5 C 667.56,32.9569 667.893,32.6236 668.5,32.5C 669.498,41.8096 669.832,51.1429 669.5,60.5C 668.833,51.5 668.167,42.5 667.5,33.5 Z"/></g>
<g><path style="opacity:1" fill="#f3f3f3" d="M 718.5,40.5 C 729.485,39.652 733.985,44.652 732,55.5C 728.723,61.1088 723.89,62.9422 717.5,61C 712.728,57.3007 711.228,52.4674 713,46.5C 714.36,43.9774 716.193,41.9774 718.5,40.5 Z"/></g>
<g><path style="opacity:1" fill="#fefefe" d="M 556.5,258.5 C 555.833,323.833 555.167,323.833 554.5,258.5C 554.5,186.167 554.5,113.833 554.5,41.5C 572.845,41.1671 591.179,41.5004 609.5,42.5C 591.846,43.4995 574.179,43.8329 556.5,43.5C 556.5,115.167 556.5,186.833 556.5,258.5 Z"/></g>
<g><path style="opacity:1" fill="#1b1b1b" d="M 721.5,46.5 C 723.95,46.8743 724.95,48.3743 724.5,51C 724.691,52.9729 724.024,54.4729 722.5,55.5C 720.215,52.8222 719.882,49.8222 721.5,46.5 Z"/></g>
<g><path style="opacity:1" fill="#707074" d="M 670.5,79.5 C 671.809,81.5706 672.475,84.0706 672.5,87C 672.167,89.5 671.833,92 671.5,94.5C 670.506,89.544 670.173,84.544 670.5,79.5 Z"/></g>
<g><path style="opacity:1" fill="#707074" d="M 627.5,80.5 C 628.805,82.3972 629.471,84.7305 629.5,87.5C 629.167,89.8333 628.833,92.1667 628.5,94.5C 627.507,89.8804 627.173,85.2137 627.5,80.5 Z"/></g>
<g><path style="opacity:1" fill="#707073" d="M 810.5,80.5 C 811.805,82.3972 812.471,84.7305 812.5,87.5C 812.167,89.8333 811.833,92.1667 811.5,94.5C 810.507,89.8804 810.173,85.2137 810.5,80.5 Z"/></g>
<g><path style="opacity:1" fill="#717175" d="M 648.5,81.5 C 650.048,81.8212 650.715,82.8212 650.5,84.5C 651.675,84.281 652.675,84.6143 653.5,85.5C 650.833,88.1667 650.833,90.8333 653.5,93.5C 651.994,94.7472 650.494,94.7472 649,93.5C 648.003,89.4282 647.836,85.4282 648.5,81.5 Z"/></g>
<g><path style="opacity:1" fill="#7a7a7e" d="M 683.5,80.5 C 685.924,80.1924 688.257,80.5258 690.5,81.5C 683.636,80.8608 680.803,83.8608 682,90.5C 684.574,92.0019 687.407,93.0019 690.5,93.5C 682.248,96.0821 678.748,93.0821 680,84.5C 681.032,82.9733 682.199,81.64 683.5,80.5 Z"/></g>
<g><path style="opacity:1" fill="#7a7a7e" d="M 632.5,84.5 C 635.119,84.2317 637.619,84.565 640,85.5C 640.821,88.5541 640.655,91.5541 639.5,94.5C 638.52,91.9135 638.187,89.2469 638.5,86.5C 637.167,86.5 635.833,86.5 634.5,86.5C 634.813,89.2469 634.48,91.9135 633.5,94.5C 632.513,91.2317 632.18,87.8984 632.5,84.5 Z"/></g>
<g><path style="opacity:1" fill="#86868b" d="M 643.5,84.5 C 644.777,85.6936 645.444,87.3603 645.5,89.5C 645.167,91.1667 644.833,92.8333 644.5,94.5C 643.513,91.2317 643.18,87.8984 643.5,84.5 Z"/></g>
<g><path style="opacity:1" fill="#666569" d="M 654.5,84.5 C 655.5,84.5 656.5,84.5 657.5,84.5C 657.5,87.8333 657.5,91.1667 657.5,94.5C 656.5,94.5 655.5,94.5 654.5,94.5C 654.5,91.1667 654.5,87.8333 654.5,84.5 Z"/></g>
<g><path style="opacity:1" fill="#7e7e82" d="M 704.5,84.5 C 705.777,85.6936 706.444,87.3603 706.5,89.5C 706.167,91.1667 705.833,92.8333 705.5,94.5C 704.513,91.2317 704.18,87.8984 704.5,84.5 Z"/></g>
<g><path style="opacity:1" fill="#7a7a7e" d="M 709.5,84.5 C 712.119,84.2317 714.619,84.565 717,85.5C 717.821,88.5541 717.655,91.5541 716.5,94.5C 715.52,91.9135 715.187,89.2469 715.5,86.5C 714.167,86.5 712.833,86.5 711.5,86.5C 711.813,89.2469 711.48,91.9135 710.5,94.5C 709.513,91.2317 709.18,87.8984 709.5,84.5 Z"/></g>
<g><path style="opacity:1" fill="#77777b" d="M 742.5,79.5 C 743.978,79.238 745.311,79.5713 746.5,80.5C 745.675,81.3857 744.675,81.719 743.5,81.5C 743.5,82.5 743.5,83.5 743.5,84.5C 744.833,84.5 746.167,84.5 747.5,84.5C 747.546,80.7651 749.213,79.4317 752.5,80.5C 748.787,82.3372 748.787,83.8372 752.5,85C 751.552,85.4828 750.552,85.6495 749.5,85.5C 749.817,88.5719 749.484,91.5719 748.5,94.5C 747.52,91.9135 747.187,89.2469 747.5,86.5C 746.167,86.5 744.833,86.5 743.5,86.5C 743.813,89.2469 743.48,91.9135 742.5,94.5C 742.039,91.0449 741.039,87.8782 739.5,85C 741.148,83.5381 742.148,81.7047 742.5,79.5 Z"/></g>
<g><path style="opacity:1" fill="#727276" d="M 763.5,84.5 C 765.527,84.3379 767.527,84.5045 769.5,85C 768.584,85.3742 767.75,85.8742 767,86.5C 766.503,89.146 766.336,91.8127 766.5,94.5C 765.5,94.5 764.5,94.5 763.5,94.5C 763.5,91.1667 763.5,87.8333 763.5,84.5 Z"/></g>
<g><path style="opacity:1" fill="#86868a" d="M 770.5,84.5 C 771.777,85.6936 772.444,87.3603 772.5,89.5C 772.167,91.1667 771.833,92.8333 771.5,94.5C 770.513,91.2317 770.18,87.8984 770.5,84.5 Z"/></g>
<g><path style="opacity:1" fill="#818185" d="M 775.5,84.5 C 778.071,84.6246 780.737,84.958 783.5,85.5C 784.748,88.4937 784.748,91.4937 783.5,94.5C 782.686,92.2338 782.186,89.9005 782,87.5C 780.667,86.1667 779.333,86.1667 778,87.5C 777.814,89.9005 777.314,92.2338 776.5,94.5C 775.513,91.2317 775.18,87.8984 775.5,84.5 Z"/></g>
<g><path style="opacity:1" fill="#79797d" d="M 788.5,84.5 C 790.833,84.5 793.167,84.5 795.5,84.5C 795.666,88.8461 795.499,93.1794 795,97.5C 792.263,98.6105 789.429,98.7772 786.5,98C 788.5,97.6667 790.5,97.3333 792.5,97C 792.957,96.586 793.291,96.086 793.5,95.5C 786.358,94.2955 784.691,90.6289 788.5,84.5 Z"/></g>
<g><path style="opacity:1" fill="#747478" d="M 694.5,84.5 C 699.083,83.343 701.75,85.0096 702.5,89.5C 700.674,94.6994 697.507,95.6994 693,92.5C 692.109,89.5024 692.609,86.8357 694.5,84.5 Z"/></g>
<g><path style="opacity:1" fill="#191919" d="M 694.5,86.5 C 698.945,85.8735 700.612,87.5402 699.5,91.5C 697.955,92.4519 696.288,92.7852 694.5,92.5C 694.5,90.5 694.5,88.5 694.5,86.5 Z"/></g>
<g><path style="opacity:1" fill="#1a1a1a" d="M 789.5,86.5 C 790.833,86.5 792.167,86.5 793.5,86.5C 793.5,88.5 793.5,90.5 793.5,92.5C 791.833,92.5 790.167,92.5 788.5,92.5C 788.325,90.3792 788.659,88.3792 789.5,86.5 Z"/></g>
<g><path style="opacity:1" fill="#737377" d="M 840.5,81.5 C 841.793,80.3552 842.959,80.6885 844,82.5C 845.923,86.8051 845.923,91.1384 844,95.5C 843.163,97.0074 841.996,97.5074 840.5,97C 844.481,91.7223 844.481,86.5556 840.5,81.5 Z"/></g>
<g><path style="opacity:1" fill="#6f6f73" d="M 660.5,84.5 C 662.792,84.2436 664.959,84.5769 667,85.5C 667.821,88.5541 667.655,91.5541 666.5,94.5C 664.398,94.5207 662.232,94.1874 660,93.5C 659.219,92.0563 659.386,90.723 660.5,89.5C 667.169,87.5243 667.169,86.8576 660.5,87.5C 659.438,86.5754 659.438,85.5754 660.5,84.5 Z"/></g>
<g><path style="opacity:1" fill="#67676b" d="M 754.5,84.5 C 759.931,83.0936 762.265,85.0936 761.5,90.5C 753.602,90.8864 753.602,91.8864 761.5,93.5C 753.229,95.315 750.896,92.315 754.5,84.5 Z"/></g>
<g><path style="opacity:1" fill="#747478" d="M 806.5,80.5 C 807.239,80.369 807.906,80.5357 808.5,81C 804.577,86.3031 804.577,91.6365 808.5,97C 807.004,97.5074 805.837,97.0074 805,95.5C 802.741,90.1592 803.241,85.1592 806.5,80.5 Z"/></g>
<g><path style="opacity:1" fill="#79797e" d="M 829.5,80.5 C 837.829,79.6636 840.995,83.3302 839,91.5C 835.61,95.0324 831.943,95.3658 828,92.5C 825.784,88.1322 826.284,84.1322 829.5,80.5 Z"/></g>
<g><path style="opacity:1" fill="#19191a" d="M 830.5,82.5 C 832.792,82.2436 834.959,82.5769 837,83.5C 837.777,86.4294 837.61,89.2628 836.5,92C 831.594,93.756 828.927,92.0893 828.5,87C 828.519,85.167 829.185,83.667 830.5,82.5 Z"/></g>
<g><path style="opacity:1" fill="#7b7b80" d="M 728.5,80.5 C 737.818,80.2917 740.484,84.4584 736.5,93C 727.735,95.9077 724.235,92.741 726,83.5C 727.045,82.6266 727.878,81.6266 728.5,80.5 Z"/></g>
<g><path style="opacity:1" fill="#191919" d="M 729.5,82.5 C 736.628,82.7063 738.294,85.873 734.5,92C 727.923,93.5906 725.756,91.0906 728,84.5C 728.717,83.9558 729.217,83.2891 729.5,82.5 Z"/></g>
<g><path style="opacity:1" fill="#78787d" d="M 818.5,80.5 C 820.924,80.1924 823.257,80.5258 825.5,81.5C 818.585,80.9095 815.752,83.9095 817,90.5C 819.574,92.0019 822.407,93.0019 825.5,93.5C 817.195,96.0257 813.695,93.0257 815,84.5C 815.69,82.6498 816.856,81.3164 818.5,80.5 Z"/></g>
<g><path style="opacity:1" fill="#f7f7f7" d="M 26.5,145.5 C 26.8316,136.143 26.4983,126.81 25.5,117.5C 24.8933,117.624 24.56,117.957 24.5,118.5C 22.283,119.369 19.9496,119.702 17.5,119.5C 17.5,116.5 17.5,113.5 17.5,110.5C 21.9698,110.217 25.9698,108.717 29.5,106C 32.4816,105.502 35.4816,105.335 38.5,105.5C 38.5,118.833 38.5,132.167 38.5,145.5C 34.5,145.5 30.5,145.5 26.5,145.5 Z"/></g>
<g><path style="opacity:1" fill="#f4f4f4" d="M 84.5,105.5 C 98.3164,104.815 102.483,110.815 97,123.5C 91.6667,127.5 86.3333,127.5 81,123.5C 77.1086,116.515 78.2752,110.515 84.5,105.5 Z"/></g>
<g><path style="opacity:1" fill="#f9f9f9" d="M 58.5,106.5 C 62.5,106.5 66.5,106.5 70.5,106.5C 70.5,114.833 70.5,123.167 70.5,131.5C 72.1667,131.5 73.8333,131.5 75.5,131.5C 75.5,134.167 75.5,136.833 75.5,139.5C 73.8333,139.5 72.1667,139.5 70.5,139.5C 70.5,141.5 70.5,143.5 70.5,145.5C 66.8333,145.5 63.1667,145.5 59.5,145.5C 59.5,143.5 59.5,141.5 59.5,139.5C 54.1667,139.5 48.8333,139.5 43.5,139.5C 43.3354,136.482 43.502,133.482 44,130.5C 49.6099,122.943 54.4433,114.943 58.5,106.5 Z"/></g>
<g><path style="opacity:1" fill="#f6f6f6" d="M 104.5,129.5 C 100.487,134.336 96.8201,139.503 93.5,145C 90.5,145.667 87.5,145.667 84.5,145C 92.5848,132.162 100.918,119.495 109.5,107C 112.5,106.333 115.5,106.333 118.5,107C 113.436,114.304 108.769,121.804 104.5,129.5 Z"/></g>
<g><path style="opacity:1" fill="#202020" d="M 88.5,111.5 C 90.9497,111.874 91.9497,113.374 91.5,116C 90.1948,121.874 88.5281,121.874 86.5,116C 86.5186,114.167 87.1852,112.667 88.5,111.5 Z"/></g>
<g><path style="opacity:1" fill="#7d7d7d" d="M 24.5,118.5 C 24.56,117.957 24.8933,117.624 25.5,117.5C 26.4983,126.81 26.8316,136.143 26.5,145.5C 25.8333,136.5 25.1667,127.5 24.5,118.5 Z"/></g>
<g><path style="opacity:1" fill="#fefefe" d="M 321.5,288.5 C 321.83,294.868 321.496,301.202 320.5,307.5C 319.503,300.532 319.17,293.532 319.5,286.5C 319.5,231.5 319.5,176.5 319.5,121.5C 259.163,121.833 198.83,121.5 138.5,120.5C 199.496,119.5 260.496,119.167 321.5,119.5C 321.5,175.833 321.5,232.167 321.5,288.5 Z"/></g>
<g><path style="opacity:1" fill="#1c1c1c" d="M 58.5,121.5 C 59.4794,124.625 59.8128,127.958 59.5,131.5C 57.4727,131.662 55.4727,131.495 53.5,131C 55.8293,128.174 57.4959,125.008 58.5,121.5 Z"/></g>
<g><path style="opacity:1" fill="#f6f6f6" d="M 104.5,129.5 C 109.225,125.287 114.558,124.453 120.5,127C 123.865,131.819 124.365,136.986 122,142.5C 117.8,146.714 112.966,147.548 107.5,145C 103.422,140.516 102.422,135.35 104.5,129.5 Z"/></g>
<g><path style="opacity:1" fill="#1c1c1c" d="M 112.5,131.5 C 117.481,133.8 117.815,136.8 113.5,140.5C 111.215,137.822 110.882,134.822 112.5,131.5 Z"/></g>
<g><path style="opacity:1" fill="#7c7c80" d="M 17.5,174.5 C 19.924,174.192 22.2573,174.526 24.5,175.5C 22.9547,176.452 21.288,176.785 19.5,176.5C 19.5,177.833 19.5,179.167 19.5,180.5C 26.1667,181.167 26.1667,181.833 19.5,182.5C 19.7989,184.604 19.4656,186.604 18.5,188.5C 17.5067,183.88 17.1734,179.214 17.5,174.5 Z"/></g>
<g><path style="opacity:1" fill="#717175" d="M 156.5,175.5 C 158.048,175.821 158.715,176.821 158.5,178.5C 159.675,178.281 160.675,178.614 161.5,179.5C 158.833,182.167 158.833,184.833 161.5,187.5C 159.994,188.747 158.494,188.747 157,187.5C 156.003,183.428 155.836,179.428 156.5,175.5 Z"/></g>
<g><path style="opacity:1" fill="#6f6f73" d="M 26.5,178.5 C 28.369,180.635 29.0356,183.302 28.5,186.5C 29.8333,186.5 31.1667,186.5 32.5,186.5C 32.5,183.833 32.5,181.167 32.5,178.5C 33.5,178.5 34.5,178.5 35.5,178.5C 35.5,181.833 35.5,185.167 35.5,188.5C 32.5525,188.777 29.7191,188.444 27,187.5C 26.502,184.518 26.3354,181.518 26.5,178.5 Z"/></g>
<g><path style="opacity:1" fill="#6f6f73" d="M 44.5,178.5 C 46.369,180.635 47.0356,183.302 46.5,186.5C 47.8333,186.5 49.1667,186.5 50.5,186.5C 50.5,183.833 50.5,181.167 50.5,178.5C 51.5,178.5 52.5,178.5 53.5,178.5C 53.5,181.833 53.5,185.167 53.5,188.5C 50.5525,188.777 47.7191,188.444 45,187.5C 44.502,184.518 44.3354,181.518 44.5,178.5 Z"/></g>
<g><path style="opacity:1" fill="#808084" d="M 56.5,178.5 C 58.1992,178.34 59.8659,178.506 61.5,179C 60.5838,179.374 59.7504,179.874 59,180.5C 58.8184,183.226 58.3184,185.893 57.5,188.5C 56.513,185.232 56.1796,181.898 56.5,178.5 Z"/></g>
<g><path style="opacity:1" fill="#818185" d="M 77.5,178.5 C 80.0708,178.625 82.7375,178.958 85.5,179.5C 86.7485,182.494 86.7485,185.494 85.5,188.5C 84.6858,186.234 84.1858,183.9 84,181.5C 82.6667,180.167 81.3333,180.167 80,181.5C 79.8142,183.9 79.3142,186.234 78.5,188.5C 77.513,185.232 77.1796,181.898 77.5,178.5 Z"/></g>
<g><path style="opacity:1" fill="#7b7b7f" d="M 122.5,178.5 C 128.373,178.598 128.706,179.598 123.5,181.5C 125.307,182.395 126.64,183.728 127.5,185.5C 127.392,186.442 127.059,187.275 126.5,188C 120.656,188.398 120.323,187.565 125.5,185.5C 121.975,184.127 120.975,181.794 122.5,178.5 Z"/></g>
<g><path style="opacity:1" fill="#6e6e72" d="M 90.5,178.5 C 95.3394,177.677 97.6728,179.677 97.5,184.5C 89.0347,184.63 88.7014,185.63 96.5,187.5C 88.4144,188.853 86.4144,185.853 90.5,178.5 Z"/></g>
<g><path style="opacity:1" fill="#78787c" d="M 147.5,173.5 C 148.978,173.238 150.311,173.571 151.5,174.5C 150.675,175.386 149.675,175.719 148.5,175.5C 148.36,177.124 149.027,178.29 150.5,179C 148.961,181.878 147.961,185.045 147.5,188.5C 147.039,185.045 146.039,181.878 144.5,179C 146.148,177.538 147.148,175.705 147.5,173.5 Z"/></g>
<g><path style="opacity:1" fill="#7a7a7f" d="M 163.5,173.5 C 165.256,174.552 165.923,176.219 165.5,178.5C 167.467,178.261 169.301,178.594 171,179.5C 171.821,182.554 171.655,185.554 170.5,188.5C 169.52,185.914 169.187,183.247 169.5,180.5C 168.178,180.33 167.011,180.663 166,181.5C 165.814,183.9 165.314,186.234 164.5,188.5C 163.506,183.544 163.173,178.544 163.5,173.5 Z"/></g>
<g><path style="opacity:1" fill="#67676b" d="M 100.5,178.5 C 105.931,177.094 108.265,179.094 107.5,184.5C 99.6019,184.886 99.6019,185.886 107.5,187.5C 99.2292,189.315 96.8958,186.315 100.5,178.5 Z"/></g>
<g><path style="opacity:1" fill="#67676b" d="M 175.5,178.5 C 180.931,177.094 183.265,179.094 182.5,184.5C 174.602,184.886 174.602,185.886 182.5,187.5C 174.229,189.315 171.896,186.315 175.5,178.5 Z"/></g>
<g><path style="opacity:1" fill="#757579" d="M 135.5,178.5 C 143.486,177.998 145.486,181.165 141.5,188C 133.424,188.805 131.424,185.638 135.5,178.5 Z"/></g>
<g><path style="opacity:1" fill="#1a1a1a" d="M 136.5,180.5 C 138.167,180.5 139.833,180.5 141.5,180.5C 141.5,182.5 141.5,184.5 141.5,186.5C 136.074,187.416 134.407,185.416 136.5,180.5 Z"/></g>
<g><path style="opacity:1" fill="#7a797e" d="M 38.5,175.5 C 39.9308,176.446 41.2642,177.612 42.5,179C 40.709,181.106 40.0423,183.606 40.5,186.5C 41.675,186.281 42.675,186.614 43.5,187.5C 41.9936,188.747 40.4936,188.747 39,187.5C 38.9994,184.313 38.1661,181.48 36.5,179C 37.9733,178.29 38.6399,177.124 38.5,175.5 Z"/></g>
<g><path style="opacity:1" fill="#6c6c70" d="M 64.5,178.5 C 69.3394,177.677 71.6728,179.677 71.5,184.5C 62.7598,184.093 62.4265,185.093 70.5,187.5C 62.4144,188.853 60.4144,185.853 64.5,178.5 Z"/></g>
<g><path style="opacity:1" fill="#7d7d81" d="M 116.5,173.5 C 118.442,178.056 119.108,183.056 118.5,188.5C 111.507,190.004 108.673,187.337 110,180.5C 111.789,178.771 113.956,178.104 116.5,178.5C 116.5,176.833 116.5,175.167 116.5,173.5 Z"/></g>
<g><path style="opacity:1" fill="#1b1b1b" d="M 111.5,180.5 C 113.167,180.5 114.833,180.5 116.5,180.5C 116.5,182.5 116.5,184.5 116.5,186.5C 114.833,186.5 113.167,186.5 111.5,186.5C 111.5,184.5 111.5,182.5 111.5,180.5 Z"/></g>
<g><path style="opacity:1" fill="#fafafa" d="M 805.5,189.5 C 822.715,187.524 828.548,194.524 823,210.5C 819.218,213.632 815.385,216.632 811.5,219.5C 816.456,220.494 821.456,220.827 826.5,220.5C 826.5,223.5 826.5,226.5 826.5,229.5C 817.167,229.5 807.833,229.5 798.5,229.5C 797.993,224.879 798.826,220.546 801,216.5C 804.81,212.6 808.81,208.934 813,205.5C 814.424,200.338 812.59,198.171 807.5,199C 804.966,199.516 802.8,200.683 801,202.5C 800.333,199.167 800.333,195.833 801,192.5C 802.652,191.601 804.152,190.601 805.5,189.5 Z"/></g>
<g><path style="opacity:1" fill="#fbfbfb" d="M 843.5,189.5 C 846.167,189.5 848.833,189.5 851.5,189.5C 851.5,202.833 851.5,216.167 851.5,229.5C 847.5,229.5 843.5,229.5 839.5,229.5C 839.5,220.5 839.5,211.5 839.5,202.5C 836.833,202.833 834.167,203.167 831.5,203.5C 831.5,200.5 831.5,197.5 831.5,194.5C 836.017,193.903 840.017,192.237 843.5,189.5 Z"/></g>
<g><path style="opacity:1" fill="#f5f5f5" d="M 864.5,189.5 C 875.486,188.653 879.986,193.653 878,204.5C 874.723,210.109 869.89,211.942 863.5,210C 858.725,206.345 857.225,201.512 859,195.5C 860.36,192.977 862.193,190.977 864.5,189.5 Z"/></g>
<g><path style="opacity:1" fill="#f6f6f6" d="M 888.5,190.5 C 891.518,190.335 894.518,190.502 897.5,191C 889.415,203.838 881.082,216.505 872.5,229C 869.5,229.667 866.5,229.667 863.5,229C 872.217,216.394 880.551,203.561 888.5,190.5 Z"/></g>
<g><path style="opacity:1" fill="#212121" d="M 867.5,195.5 C 869.95,195.874 870.95,197.374 870.5,200C 869.829,205.504 868.162,205.838 865.5,201C 866.077,199.1 866.744,197.267 867.5,195.5 Z"/></g>
<g><path style="opacity:1" fill="#6f6f72" d="M 74.5,206.5 C 76.369,208.635 77.0356,211.302 76.5,214.5C 77.8333,214.5 79.1667,214.5 80.5,214.5C 80.5,211.833 80.5,209.167 80.5,206.5C 81.5,206.5 82.5,206.5 83.5,206.5C 83.5,209.833 83.5,213.167 83.5,216.5C 80.5525,216.777 77.7191,216.444 75,215.5C 74.502,212.518 74.3354,209.518 74.5,206.5 Z"/></g>
<g><path style="opacity:1" fill="#818185" d="M 85.5,206.5 C 88.0708,206.625 90.7375,206.958 93.5,207.5C 94.7485,210.494 94.7485,213.494 93.5,216.5C 92.6858,214.234 92.1858,211.9 92,209.5C 90.6667,208.167 89.3333,208.167 88,209.5C 87.8142,211.9 87.3142,214.234 86.5,216.5C 85.513,213.232 85.1796,209.898 85.5,206.5 Z"/></g>
<g><path style="opacity:1" fill="#707074" d="M 96.5,206.5 C 97.5,206.5 98.5,206.5 99.5,206.5C 99.5,209.833 99.5,213.167 99.5,216.5C 98.5,216.5 97.5,216.5 96.5,216.5C 96.5,213.167 96.5,209.833 96.5,206.5 Z"/></g>
<g><path style="opacity:1" fill="#717175" d="M 40.5,206.5 C 44.745,206.794 49.0783,206.96 53.5,207C 55.3398,209.826 56.0065,212.993 55.5,216.5C 54.5,216.5 53.5,216.5 52.5,216.5C 52.5,213.833 52.5,211.167 52.5,208.5C 51.5,208.5 50.5,208.5 49.5,208.5C 49.5,211.167 49.5,213.833 49.5,216.5C 48.5,216.5 47.5,216.5 46.5,216.5C 46.5,213.833 46.5,211.167 46.5,208.5C 45.1779,208.33 44.0113,208.663 43,209.5C 42.8142,211.9 42.3142,214.234 41.5,216.5C 40.513,213.232 40.1796,209.898 40.5,206.5 Z"/></g>
<g><path style="opacity:1" fill="#717175" d="M 57.5,206.5 C 61.745,206.794 66.0783,206.96 70.5,207C 72.3398,209.826 73.0065,212.993 72.5,216.5C 71.5,216.5 70.5,216.5 69.5,216.5C 69.5,213.833 69.5,211.167 69.5,208.5C 68.5,208.5 67.5,208.5 66.5,208.5C 66.5,211.167 66.5,213.833 66.5,216.5C 65.5,216.5 64.5,216.5 63.5,216.5C 63.5,213.833 63.5,211.167 63.5,208.5C 62.1779,208.33 61.0113,208.663 60,209.5C 59.8142,211.9 59.3142,214.234 58.5,216.5C 57.513,213.232 57.1796,209.898 57.5,206.5 Z"/></g>
<g><path style="opacity:1" fill="#f5f5f5" d="M 888.5,209.5 C 900.836,208.331 905.336,213.664 902,225.5C 896.292,231.715 890.292,232.048 884,226.5C 881.056,219.524 882.556,213.858 888.5,209.5 Z"/></g>
<g><path style="opacity:1" fill="#757579" d="M 30.5,206.5 C 38.4863,205.998 40.4863,209.165 36.5,216C 28.424,216.805 26.424,213.638 30.5,206.5 Z"/></g>
<g><path style="opacity:1" fill="#1a1a1a" d="M 31.5,208.5 C 33.1667,208.5 34.8333,208.5 36.5,208.5C 36.5,210.5 36.5,212.5 36.5,214.5C 31.0738,215.416 29.4071,213.416 31.5,208.5 Z"/></g>
<g><path style="opacity:1" fill="#78787c" d="M 20.5,202.5 C 22.924,202.192 25.2573,202.526 27.5,203.5C 20.5852,202.909 17.7518,205.909 19,212.5C 21.5741,214.002 24.4074,215.002 27.5,215.5C 19.1948,218.026 15.6948,215.026 17,206.5C 17.6897,204.65 18.8564,203.316 20.5,202.5 Z"/></g>
<g><path style="opacity:1" fill="#757579" d="M 101.5,203.5 C 102.5,203.5 103.5,203.5 104.5,203.5C 104.5,204.5 104.5,205.5 104.5,206.5C 106.167,206.5 107.833,206.5 109.5,206.5C 110.309,213.727 111.809,214.061 114,207.5C 114.893,206.289 115.726,206.289 116.5,207.5C 114.667,211.833 112.833,216.167 111,220.5C 109.506,221.747 108.006,221.747 106.5,220.5C 108.391,219.689 109.724,218.356 110.5,216.5C 109.431,213.461 108.265,210.461 107,207.5C 103.918,209.937 103.751,212.603 106.5,215.5C 105.635,216.583 104.635,216.749 103.5,216C 101.201,212.018 100.534,207.851 101.5,203.5 Z"/></g>
<g><path style="opacity:1" fill="#242424" d="M 891.5,215.5 C 894.734,215.237 896.068,216.737 895.5,220C 895.455,222.22 894.455,223.72 892.5,224.5C 890.215,221.822 889.882,218.822 891.5,215.5 Z"/></g>
<g><path style="opacity:1" fill="#fefefe" d="M 720.5,271.5 C 720.5,285.833 720.5,300.167 720.5,314.5C 720.5,328.833 720.5,343.167 720.5,357.5C 720.829,363.537 720.496,369.537 719.5,375.5C 718.505,369.872 718.171,364.206 718.5,358.5C 718.5,344.167 718.5,329.833 718.5,315.5C 718.5,300.5 718.5,285.5 718.5,270.5C 718.5,252.833 718.5,235.167 718.5,217.5C 736.845,217.167 755.179,217.5 773.5,218.5C 755.846,219.5 738.179,219.833 720.5,219.5C 720.5,236.833 720.5,254.167 720.5,271.5 Z"/></g>
<g><path style="opacity:1" fill="#818186" d="M 963.5,247.5 C 965.164,248.949 965.998,250.949 966,253.5C 967.814,252.24 969.647,252.24 971.5,253.5C 972.748,256.494 972.748,259.494 971.5,262.5C 970.686,260.234 970.186,257.9 970,255.5C 968.667,254.167 967.333,254.167 966,255.5C 965.814,257.9 965.314,260.234 964.5,262.5C 963.506,257.544 963.173,252.544 963.5,247.5 Z"/></g>
<g><path style="opacity:1" fill="#7c7c81" d="M 896.5,248.5 C 899.119,248.232 901.619,248.565 904,249.5C 904.896,252.025 904.396,254.192 902.5,256C 903.833,258 905.167,260 906.5,262C 905.365,262.749 904.365,262.583 903.5,261.5C 900.323,254.581 898.323,254.914 897.5,262.5C 896.507,257.88 896.173,253.214 896.5,248.5 Z"/></g>
<g><path style="opacity:1" fill="#181818" d="M 898.5,250.5 C 899.833,250.5 901.167,250.5 902.5,250.5C 902.5,251.833 902.5,253.167 902.5,254.5C 901.167,254.5 899.833,254.5 898.5,254.5C 898.5,253.167 898.5,251.833 898.5,250.5 Z"/></g>
<g><path style="opacity:1" fill="#848489" d="M 825.5,252.5 C 827.199,252.34 828.866,252.506 830.5,253C 829.584,253.374 828.75,253.874 828,254.5C 827.818,257.226 827.318,259.893 826.5,262.5C 825.513,259.232 825.18,255.898 825.5,252.5 Z"/></g>
<g><path style="opacity:1" fill="#86868a" d="M 859.5,252.5 C 860.777,253.694 861.444,255.36 861.5,257.5C 861.167,259.167 860.833,260.833 860.5,262.5C 859.513,259.232 859.18,255.898 859.5,252.5 Z"/></g>
<g><path style="opacity:1" fill="#7e7e82" d="M 864.5,252.5 C 866.152,253.807 867.818,253.807 869.5,252.5C 871.029,252.529 872.196,253.196 873,254.5C 873.818,257.227 873.652,259.894 872.5,262.5C 871.686,260.234 871.186,257.9 871,255.5C 869.667,254.167 868.333,254.167 867,255.5C 866.814,257.9 866.314,260.234 865.5,262.5C 864.513,259.232 864.18,255.898 864.5,252.5 Z"/></g>
<g><path style="opacity:1" fill="#848489" d="M 947.5,252.5 C 949.199,252.34 950.866,252.506 952.5,253C 951.584,253.374 950.75,253.874 950,254.5C 949.818,257.226 949.318,259.893 948.5,262.5C 947.513,259.232 947.18,255.898 947.5,252.5 Z"/></g>
<g><path style="opacity:1" fill="#7a7a7e" d="M 989.5,252.5 C 992.119,252.232 994.619,252.565 997,253.5C 997.821,256.554 997.655,259.554 996.5,262.5C 995.52,259.914 995.187,257.247 995.5,254.5C 994.167,254.5 992.833,254.5 991.5,254.5C 991.813,257.247 991.48,259.914 990.5,262.5C 989.513,259.232 989.18,255.898 989.5,252.5 Z"/></g>
<g><path style="opacity:1" fill="#6e6e72" d="M 909.5,252.5 C 914.339,251.677 916.673,253.677 916.5,258.5C 908.035,258.63 907.701,259.63 915.5,261.5C 907.414,262.853 905.414,259.853 909.5,252.5 Z"/></g>
<g><path style="opacity:1" fill="#6e6e72" d="M 928.5,252.5 C 933.339,251.677 935.673,253.677 935.5,258.5C 927.035,258.63 926.701,259.63 934.5,261.5C 926.414,262.853 924.414,259.853 928.5,252.5 Z"/></g>
<g><path style="opacity:1" fill="#67676b" d="M 843.5,252.5 C 848.931,251.094 851.265,253.094 850.5,258.5C 842.602,258.886 842.602,259.886 850.5,261.5C 842.229,263.315 839.896,260.315 843.5,252.5 Z"/></g>
<g><path style="opacity:1" fill="#78787c" d="M 956.5,252.5 C 963.136,253.022 963.136,253.855 956.5,255C 955.253,256.458 955.253,257.958 956.5,259.5C 958.167,260.167 959.833,260.833 961.5,261.5C 956.996,263.652 954.329,262.319 953.5,257.5C 954.092,255.577 955.092,253.911 956.5,252.5 Z"/></g>
<g><path style="opacity:1" fill="#808084" d="M 832.5,247.5 C 834.22,249.658 835.053,252.325 835,255.5C 836.263,253.203 838.097,252.37 840.5,253C 838.981,254.351 837.648,255.851 836.5,257.5C 837.648,259.149 838.981,260.649 840.5,262C 840,262.167 839.5,262.333 839,262.5C 837.674,261.201 836.34,259.868 835,258.5C 834.781,259.938 834.281,261.271 833.5,262.5C 832.506,257.544 832.173,252.544 832.5,247.5 Z"/></g>
<g><path style="opacity:1" fill="#6e0092" d="M 554.5,258.5 C 555.167,323.833 555.833,323.833 556.5,258.5C 610.852,258.144 664.852,262.144 718.5,270.5C 718.5,285.5 718.5,300.5 718.5,315.5C 658.079,334.02 597.745,352.686 537.5,371.5C 480.889,340.198 424.555,308.531 368.5,276.5C 429.904,264.438 491.904,258.438 554.5,258.5 Z"/></g>
<g><path style="opacity:1" fill="#7d7d81" d="M 797.5,248.5 C 798.822,248.33 799.989,248.663 801,249.5C 802.333,252.833 803.667,256.167 805,259.5C 806.226,256.048 807.726,252.715 809.5,249.5C 810.325,248.614 811.325,248.281 812.5,248.5C 812.827,253.214 812.493,257.88 811.5,262.5C 810.676,259.215 810.176,255.882 810,252.5C 808.861,256.112 807.194,259.446 805,262.5C 802.806,259.446 801.139,256.112 800,252.5C 799.824,255.882 799.324,259.215 798.5,262.5C 797.507,257.88 797.173,253.214 797.5,248.5 Z"/></g>
<g><path style="opacity:1" fill="#6c6c6f" d="M 816.5,252.5 C 818.467,252.261 820.301,252.594 822,253.5C 822.498,256.482 822.665,259.482 822.5,262.5C 819.881,262.768 817.381,262.435 815,261.5C 814.785,257.872 816.619,255.872 820.5,255.5C 818.994,254.253 817.494,254.253 816,255.5C 815.53,254.423 815.697,253.423 816.5,252.5 Z"/></g>
<g><path style="opacity:1" fill="#79797d" d="M 853.5,249.5 C 854.931,250.446 856.264,251.612 857.5,253C 855.709,255.106 855.042,257.606 855.5,260.5C 856.675,260.281 857.675,260.614 858.5,261.5C 856.994,262.747 855.494,262.747 854,261.5C 853.999,258.313 853.166,255.48 851.5,253C 852.973,252.29 853.64,251.124 853.5,249.5 Z"/></g>
<g><path style="opacity:1" fill="#6c6c6f" d="M 980.5,252.5 C 982.467,252.261 984.301,252.594 986,253.5C 986.498,256.482 986.665,259.482 986.5,262.5C 983.881,262.768 981.381,262.435 979,261.5C 978.785,257.872 980.619,255.872 984.5,255.5C 982.994,254.253 981.494,254.253 980,255.5C 979.53,254.423 979.697,253.423 980.5,252.5 Z"/></g>
<g><path style="opacity:1" fill="#757579" d="M 919.5,252.5 C 925.373,252.598 925.706,253.598 920.5,255.5C 922.307,256.395 923.64,257.728 924.5,259.5C 924.392,260.442 924.059,261.275 923.5,262C 921.421,262.808 919.421,262.641 917.5,261.5C 919.167,260.833 920.833,260.167 922.5,259.5C 917.872,258.306 916.872,255.973 919.5,252.5 Z"/></g>
<g><path style="opacity:1" fill="#67676a" d="M 938.5,252.5 C 940.467,252.261 942.301,252.594 944,253.5C 944.498,256.482 944.665,259.482 944.5,262.5C 941.881,262.768 939.381,262.435 937,261.5C 936.785,257.872 938.619,255.872 942.5,255.5C 940.994,254.253 939.494,254.253 938,255.5C 937.53,254.423 937.697,253.423 938.5,252.5 Z"/></g>
<g><path style="opacity:1" fill="#7d7d81" d="M 1007.5,247.5 C 1008.81,249.571 1009.48,252.071 1009.5,255C 1009.17,257.5 1008.83,260 1008.5,262.5C 1006.33,262.324 1004,262.157 1001.5,262C 998.735,255.631 1000.74,252.464 1007.5,252.5C 1007.5,250.833 1007.5,249.167 1007.5,247.5 Z"/></g>
<g><path style="opacity:1" fill="#191919" d="M 1002.5,254.5 C 1004.17,254.5 1005.83,254.5 1007.5,254.5C 1008.57,258.938 1006.91,260.938 1002.5,260.5C 1002.5,258.5 1002.5,256.5 1002.5,254.5 Z"/></g>
<g><path style="opacity:1" fill="#79797d" d="M 877.5,252.5 C 879.833,252.5 882.167,252.5 884.5,252.5C 884.666,256.846 884.499,261.179 884,265.5C 881.445,267.65 878.612,267.983 875.5,266.5C 877.423,265.692 879.423,265.192 881.5,265C 882.517,263.951 882.684,262.784 882,261.5C 880,262.833 878,262.833 876,261.5C 875.068,258.177 875.568,255.177 877.5,252.5 Z"/></g>
<g><path style="opacity:1" fill="#191919" d="M 877.5,254.5 C 879.167,254.5 880.833,254.5 882.5,254.5C 883.575,258.938 881.908,260.938 877.5,260.5C 877.5,258.5 877.5,256.5 877.5,254.5 Z"/></g>
<g><path style="opacity:1" fill="#707074" d="M 840.5,271.5 C 841.5,271.5 842.5,271.5 843.5,271.5C 843.5,276.5 843.5,281.5 843.5,286.5C 842.5,286.5 841.5,286.5 840.5,286.5C 840.5,281.5 840.5,276.5 840.5,271.5 Z"/></g>
<g><path style="opacity:1" fill="#6e0091" d="M 720.5,271.5 C 732.92,273.551 745.253,276.051 757.5,279C 771.17,282.836 784.837,286.669 798.5,290.5C 798.5,297.5 798.5,304.5 798.5,311.5C 797.51,305.355 797.177,299.022 797.5,292.5C 771.728,299.423 746.062,306.757 720.5,314.5C 720.5,300.167 720.5,285.833 720.5,271.5 Z"/></g>
<g><path style="opacity:1" fill="#7d7d82" d="M 907.5,273.5 C 909.048,273.821 909.715,274.821 909.5,276.5C 913.5,276.833 913.5,277.167 909.5,277.5C 909.5,279.833 909.5,282.167 909.5,284.5C 910.675,284.281 911.675,284.614 912.5,285.5C 910.994,286.747 909.494,286.747 908,285.5C 907.135,281.36 906.968,277.36 907.5,273.5 Z"/></g>
<g><path style="opacity:1" fill="#7a7a7e" d="M 896.5,276.5 C 899.119,276.232 901.619,276.565 904,277.5C 904.821,280.554 904.655,283.554 903.5,286.5C 902.52,283.914 902.187,281.247 902.5,278.5C 901.167,278.5 899.833,278.5 898.5,278.5C 898.813,281.247 898.48,283.914 897.5,286.5C 896.513,283.232 896.18,279.898 896.5,276.5 Z"/></g>
<g><path style="opacity:1" fill="#7c7c80" d="M 857.5,276.5 C 859.152,277.807 860.818,277.807 862.5,276.5C 866.254,277.852 867.421,280.518 866,284.5C 864.211,286.229 862.044,286.896 859.5,286.5C 859.785,288.288 859.452,289.955 858.5,291.5C 857.506,286.544 857.173,281.544 857.5,276.5 Z"/></g>
<g><path style="opacity:1" fill="#4f0068" d="M 368.5,276.5 C 424.555,308.531 480.889,340.198 537.5,371.5C 538.25,389.823 538.583,408.157 538.5,426.5C 519.166,425.684 499.832,424.684 480.5,423.5C 479.711,407.895 479.045,392.229 478.5,376.5C 476.143,376.663 473.81,376.497 471.5,376C 473.5,375.667 475.5,375.333 477.5,375C 441.5,355 405.5,335 369.5,315C 368.848,307.068 368.181,299.235 367.5,291.5C 367.179,286.305 367.513,281.305 368.5,276.5 Z"/></g>
<g><path style="opacity:1" fill="#747478" d="M 847.5,276.5 C 852.083,275.343 854.75,277.01 855.5,281.5C 853.674,286.699 850.507,287.699 846,284.5C 845.109,281.502 845.609,278.836 847.5,276.5 Z"/></g>
<g><path style="opacity:1" fill="#191919" d="M 847.5,278.5 C 851.945,277.873 853.612,279.54 852.5,283.5C 850.955,284.452 849.288,284.785 847.5,284.5C 847.5,282.5 847.5,280.5 847.5,278.5 Z"/></g>
<g><path style="opacity:1" fill="#1a1a1a" d="M 859.5,278.5 C 861.167,278.5 862.833,278.5 864.5,278.5C 865.575,282.938 863.908,284.938 859.5,284.5C 859.5,282.5 859.5,280.5 859.5,278.5 Z"/></g>
<g><path style="opacity:1" fill="#717175" d="M 868.5,276.5 C 872.745,276.794 877.078,276.96 881.5,277C 883.34,279.826 884.006,282.993 883.5,286.5C 882.5,286.5 881.5,286.5 880.5,286.5C 880.5,283.833 880.5,281.167 880.5,278.5C 879.5,278.5 878.5,278.5 877.5,278.5C 877.5,281.167 877.5,283.833 877.5,286.5C 876.5,286.5 875.5,286.5 874.5,286.5C 874.5,283.833 874.5,281.167 874.5,278.5C 873.178,278.33 872.011,278.663 871,279.5C 870.814,281.9 870.314,284.234 869.5,286.5C 868.513,283.232 868.18,279.898 868.5,276.5 Z"/></g>
<g><path style="opacity:1" fill="#7b7b80" d="M 797.5,272.5 C 800.978,272.184 804.312,272.684 807.5,274C 810.827,283.191 807.493,287.358 797.5,286.5C 797.5,281.833 797.5,277.167 797.5,272.5 Z"/></g>
<g><path style="opacity:1" fill="#191919" d="M 799.5,274.5 C 806.928,274.184 808.928,277.351 805.5,284C 803.527,284.495 801.527,284.662 799.5,284.5C 799.5,281.167 799.5,277.833 799.5,274.5 Z"/></g>
<g><path style="opacity:1" fill="#6c6c70" d="M 812.5,276.5 C 817.339,275.677 819.673,277.677 819.5,282.5C 810.76,282.093 810.426,283.093 818.5,285.5C 810.414,286.853 808.414,283.853 812.5,276.5 Z"/></g>
<g><path style="opacity:1" fill="#7b7b7f" d="M 820.5,276.5 C 821.376,276.369 822.043,276.702 822.5,277.5C 823.236,279.541 824.069,281.541 825,283.5C 825.557,281.385 826.391,279.385 827.5,277.5C 828.167,276.167 828.833,276.167 829.5,277.5C 825.581,289.624 822.581,289.291 820.5,276.5 Z"/></g>
<g><path style="opacity:1" fill="#6d6d70" d="M 832.5,276.5 C 837.5,275.5 839.5,277.5 838.5,282.5C 830.602,282.886 830.602,283.886 838.5,285.5C 830.416,286.892 828.416,283.892 832.5,276.5 Z"/></g>
<g><path style="opacity:1" fill="#6d6d70" d="M 887.5,276.5 C 892.5,275.5 894.5,277.5 893.5,282.5C 885.602,282.886 885.602,283.886 893.5,285.5C 885.416,286.892 883.416,283.892 887.5,276.5 Z"/></g>
<g><path style="opacity:1" fill="#8400af" d="M 798.5,311.5 C 798.5,317.167 798.5,322.833 798.5,328.5C 798.739,330.467 798.406,332.301 797.5,334C 771.846,341.941 746.179,349.774 720.5,357.5C 720.5,343.167 720.5,328.833 720.5,314.5C 746.062,306.757 771.728,299.423 797.5,292.5C 797.177,299.022 797.51,305.355 798.5,311.5 Z"/></g>
<g><path style="opacity:1" fill="#8400af" d="M 718.5,315.5 C 718.5,329.833 718.5,344.167 718.5,358.5C 676.044,371.32 633.711,384.32 591.5,397.5C 590.514,401.97 590.181,406.637 590.5,411.5C 590.5,419.5 590.5,427.5 590.5,435.5C 572.883,433.365 555.55,430.365 538.5,426.5C 538.583,408.157 538.25,389.823 537.5,371.5C 597.745,352.686 658.079,334.02 718.5,315.5 Z"/></g>
<g><path style="opacity:1" fill="#4e0062" d="M 949.5,384.5 C 949.873,391.292 949.206,397.959 947.5,404.5C 948.632,411.783 948.799,419.117 948,426.5C 947.667,419.833 947.333,413.167 947,406.5C 946.623,407.942 945.79,408.942 944.5,409.5C 943.596,410.209 943.263,411.209 943.5,412.5C 941.066,413.771 939.566,415.771 939,418.5C 937.853,417.542 936.853,417.875 936,419.5C 934.128,422.205 933.295,425.205 933.5,428.5C 934.461,464.346 935.461,500.346 936.5,536.5C 933.982,539.516 931.316,542.35 928.5,545C 924.7,546.979 921.366,549.479 918.5,552.5C 915.648,554.091 912.648,555.424 909.5,556.5C 909.016,518.481 908.182,480.481 907,442.5C 901.912,445.294 896.745,447.961 891.5,450.5C 890.513,453.768 890.18,457.102 890.5,460.5C 889.799,457.437 889.132,454.27 888.5,451C 789.358,433.145 690.358,415.312 591.5,397.5C 633.711,384.32 676.044,371.32 718.5,358.5C 718.171,364.206 718.505,369.872 719.5,375.5C 720.496,369.537 720.829,363.537 720.5,357.5C 746.179,349.774 771.846,341.941 797.5,334C 798.406,332.301 798.739,330.467 798.5,328.5C 799.302,329.952 799.802,331.618 800,333.5C 816.734,327.94 833.567,322.606 850.5,317.5C 878.669,324.823 904.669,336.656 928.5,353C 935.134,358.758 940.967,365.258 946,372.5C 948.056,376.268 949.222,380.268 949.5,384.5 Z"/></g>
<g><path style="opacity:1" fill="#5e235e" d="M 319.5,286.5 C 319.17,293.532 319.503,300.532 320.5,307.5C 321.496,301.202 321.83,294.868 321.5,288.5C 336.693,296.682 351.859,305.015 367,313.5C 367.5,306.174 367.666,298.841 367.5,291.5C 368.181,299.235 368.848,307.068 369.5,315C 405.5,335 441.5,355 477.5,375C 475.5,375.333 473.5,375.667 471.5,376C 473.81,376.497 476.143,376.663 478.5,376.5C 479.045,392.229 479.711,407.895 480.5,423.5C 469.513,422.834 458.513,422.501 447.5,422.5C 447.5,409.833 447.5,397.167 447.5,384.5C 361.831,384.167 276.164,384.5 190.5,385.5C 275.497,386.5 360.497,386.833 445.5,386.5C 445.5,398.167 445.5,409.833 445.5,421.5C 362.849,417.69 280.182,414.523 197.5,412C 190.626,420.255 187.626,429.755 188.5,440.5C 188.5,444.167 188.5,447.833 188.5,451.5C 185.178,451.489 183.511,453.155 183.5,456.5C 183.505,460.45 185.505,462.116 189.5,461.5C 189.5,466.833 189.5,472.167 189.5,477.5C 188.167,477.5 186.833,477.5 185.5,477.5C 177.85,476.857 170.183,476.523 162.5,476.5C 155.847,475.946 149.18,475.612 142.5,475.5C 141.5,475.5 140.5,475.5 139.5,475.5C 136.167,475.5 132.833,475.5 129.5,475.5C 127.533,475.739 125.699,475.406 124,474.5C 123.503,471.854 123.336,469.187 123.5,466.5C 123.5,464.833 123.5,463.167 123.5,461.5C 124.833,461.5 126.167,461.5 127.5,461.5C 127.82,458.102 127.487,454.768 126.5,451.5C 126.08,454.616 125.08,457.283 123.5,459.5C 123.829,446.323 123.495,433.323 122.5,420.5C 122.829,414.794 122.495,409.128 121.5,403.5C 120.817,403.863 120.15,404.196 119.5,404.5C 120.918,402.692 122.918,402.025 125.5,402.5C 125.5,399.833 125.5,397.167 125.5,394.5C 124.5,394.5 123.5,394.5 122.5,394.5C 122.133,382.493 121.966,370.493 122,358.5C 133.342,342.826 147.509,330.326 164.5,321C 199.481,303.752 236.148,291.419 274.5,284C 284.133,281.973 293.8,280.14 303.5,278.5C 308.85,281.175 314.184,283.842 319.5,286.5 Z"/></g>
<g><path style="opacity:1" fill="#f8f5f8" d="M 134.5,368.5 C 146.752,367.349 151.252,372.682 148,384.5C 144.562,389.081 140.062,390.581 134.5,389C 128.975,386.081 127.142,381.581 129,375.5C 129.967,372.379 131.8,370.046 134.5,368.5 Z"/></g>
<g><path style="opacity:1" fill="#fcfcfc" d="M 73.5,369.5 C 77.5,369.5 81.5,369.5 85.5,369.5C 85.5,377.833 85.5,386.167 85.5,394.5C 87.5,394.5 89.5,394.5 91.5,394.5C 91.5,397.167 91.5,399.833 91.5,402.5C 89.5,402.5 87.5,402.5 85.5,402.5C 85.5,404.5 85.5,406.5 85.5,408.5C 82.1667,408.5 78.8333,408.5 75.5,408.5C 75.5,406.5 75.5,404.5 75.5,402.5C 69.8333,402.5 64.1667,402.5 58.5,402.5C 58.3354,399.482 58.502,396.482 59,393.5C 65.3216,386.357 70.1549,378.357 73.5,369.5 Z"/></g>
<g><path style="opacity:1" fill="#fcfcfc" d="M 122.5,394.5 C 123.5,394.5 124.5,394.5 125.5,394.5C 125.5,397.167 125.5,399.833 125.5,402.5C 122.918,402.025 120.918,402.692 119.5,404.5C 119.5,405.833 119.5,407.167 119.5,408.5C 116.167,408.5 112.833,408.5 109.5,408.5C 109.5,406.5 109.5,404.5 109.5,402.5C 103.833,402.5 98.1667,402.5 92.5,402.5C 92.3354,399.482 92.502,396.482 93,393.5C 99.2442,386.687 104.244,379.02 108,370.5C 111.73,369.54 115.563,369.207 119.5,369.5C 119.5,377.833 119.5,386.167 119.5,394.5C 120.5,394.5 121.5,394.5 122.5,394.5 Z"/></g>
<g><path style="opacity:1" fill="#f9f6f9" d="M 158.5,369.5 C 161.572,369.183 164.572,369.516 167.5,370.5C 159.667,382.833 151.833,395.167 144,407.5C 140.875,408.787 137.709,408.787 134.5,407.5C 143.021,395.115 151.021,382.448 158.5,369.5 Z"/></g>
<g><path style="opacity:1" fill="#662e66" d="M 137.5,374.5 C 140.309,374.588 141.642,376.088 141.5,379C 139.472,384.874 137.805,384.874 136.5,379C 136.605,377.408 136.939,375.908 137.5,374.5 Z"/></g>
<g><path style="opacity:1" fill="#1d1d1d" d="M 108.5,384.5 C 109.479,387.625 109.813,390.958 109.5,394.5C 107.396,394.799 105.396,394.466 103.5,393.5C 105.445,390.607 107.111,387.607 108.5,384.5 Z"/></g>
<g><path style="opacity:1" fill="#f4f0f5" d="M 447.5,422.5 C 447.833,445.51 447.5,468.51 446.5,491.5C 445.5,468.176 445.167,444.843 445.5,421.5C 445.5,409.833 445.5,398.167 445.5,386.5C 360.497,386.833 275.497,386.5 190.5,385.5C 276.164,384.5 361.831,384.167 447.5,384.5C 447.5,397.167 447.5,409.833 447.5,422.5 Z"/></g>
<g><path style="opacity:1" fill="#323232" d="M 74.5,383.5 C 75.4816,386.962 75.815,390.629 75.5,394.5C 73.1432,394.663 70.8098,394.497 68.5,394C 71.4089,391.015 73.4089,387.515 74.5,383.5 Z"/></g>
<g><path style="opacity:1" fill="#faf8f9" d="M 159.5,388.5 C 170.431,387.601 174.931,392.601 173,403.5C 169.723,409.109 164.89,410.942 158.5,409C 153.728,405.301 152.228,400.467 154,394.5C 155.36,391.977 157.193,389.977 159.5,388.5 Z"/></g>
<g><path style="opacity:1" fill="#703c70" d="M 162.5,394.5 C 165.05,394.884 166.383,396.384 166.5,399C 164.5,405 162.5,405 160.5,399C 160.519,397.167 161.185,395.667 162.5,394.5 Z"/></g>
<g><path style="opacity:1" fill="#460057" d="M 591.5,397.5 C 690.358,415.312 789.358,433.145 888.5,451C 889.132,454.27 889.799,457.437 890.5,460.5C 890.96,495.499 891.293,530.499 891.5,565.5C 890.5,565.5 889.5,565.5 888.5,565.5C 886.833,565.5 885.167,565.5 883.5,565.5C 879.674,564 875.674,563.334 871.5,563.5C 855.713,560.088 839.713,557.088 823.5,554.5C 821.801,539.041 820.801,523.374 820.5,507.5C 821.127,497.074 820.46,486.907 818.5,477C 742.788,463.654 667.121,450.154 591.5,436.5C 591.826,427.983 591.493,419.65 590.5,411.5C 590.181,406.637 590.514,401.97 591.5,397.5 Z"/></g>
<g><path style="opacity:1" fill="#8602fa" d="M 951.5,402.5 C 978.767,414.798 1003.77,430.631 1026.5,450C 1042.08,464.326 1053.24,481.493 1060,501.5C 1063.49,519.531 1061.49,536.865 1054,553.5C 1043.33,571.945 1029.5,587.778 1012.5,601C 986.253,619.458 958.253,634.792 928.5,647C 872.811,668 815.478,683.333 756.5,693C 632.914,711.528 508.914,714.528 384.5,702C 306.33,694.121 230.33,677.121 156.5,651C 127.35,639.925 99.683,625.925 73.5,609C 57.364,597.195 42.864,583.695 30,568.5C 8,535.833 8,503.167 30,470.5C 42.8902,455.277 57.3902,441.777 73.5,430C 85.3979,422.556 97.3979,415.389 109.5,408.5C 112.833,408.5 116.167,408.5 119.5,408.5C 119.5,407.167 119.5,405.833 119.5,404.5C 120.15,404.196 120.817,403.863 121.5,403.5C 122.495,409.128 122.829,414.794 122.5,420.5C 122.5,425.5 122.5,430.5 122.5,435.5C 114.696,439.154 107.862,444.154 102,450.5C 101.828,455.202 101.328,459.868 100.5,464.5C 86.5812,479.033 78.9145,496.533 77.5,517C 79.4703,535.144 85.4703,551.644 95.5,566.5C 96.5,566.5 97.5,566.5 98.5,566.5C 98.4208,567.93 98.7542,569.264 99.5,570.5C 105.167,575.5 110.5,580.833 115.5,586.5C 116.736,587.246 118.07,587.579 119.5,587.5C 119.5,588.5 119.5,589.5 119.5,590.5C 129.317,596.824 138.983,603.49 148.5,610.5C 186.658,631.287 226.992,647.454 269.5,659C 371.818,684.566 475.818,695.232 581.5,691C 676.741,688.878 769.241,673.045 859,643.5C 873.343,638.042 887.509,632.209 901.5,626C 914.191,618.654 927.191,611.821 940.5,605.5C 940.5,604.5 940.5,603.5 940.5,602.5C 943.634,601.759 946.634,600.759 949.5,599.5C 949.5,598.5 949.5,597.5 949.5,596.5C 950.552,596.649 951.552,596.483 952.5,596C 956.104,592.555 960.104,589.722 964.5,587.5C 964.5,586.5 964.5,585.5 964.5,584.5C 965.5,584.5 966.5,584.5 967.5,584.5C 967.5,583.5 967.5,582.5 967.5,581.5C 968.5,581.5 969.5,581.5 970.5,581.5C 970.5,580.5 970.5,579.5 970.5,578.5C 971.5,578.5 972.5,578.5 973.5,578.5C 973.5,577.5 973.5,576.5 973.5,575.5C 974.5,575.5 975.5,575.5 976.5,575.5C 976.5,574.5 976.5,573.5 976.5,572.5C 977.5,572.5 978.5,572.5 979.5,572.5C 984.144,565.225 988.811,557.892 993.5,550.5C 1003.91,528.968 1004.08,507.301 994,485.5C 983.452,466.787 969.285,451.453 951.5,439.5C 950.606,427 950.606,414.667 951.5,402.5 Z"/></g>
<g><path style="opacity:1" fill="#4f0193" d="M 445.5,421.5 C 445.167,444.843 445.5,468.176 446.5,491.5C 447.5,468.51 447.833,445.51 447.5,422.5C 458.513,422.501 469.513,422.834 480.5,423.5C 499.832,424.684 519.166,425.684 538.5,426.5C 555.55,430.365 572.883,433.365 590.5,435.5C 590.5,427.5 590.5,419.5 590.5,411.5C 591.493,419.65 591.826,427.983 591.5,436.5C 667.121,450.154 742.788,463.654 818.5,477C 820.46,486.907 821.127,497.074 820.5,507.5C 819.833,497.992 819.167,488.325 818.5,478.5C 817.252,479.04 816.085,479.707 815,480.5C 815.721,518.532 815.554,556.532 814.5,594.5C 813.749,593.624 813.249,592.624 813,591.5C 812.181,581.256 812.348,571.09 813.5,561C 813,560.5 812.5,560 812,559.5C 811.209,548.139 811.376,536.806 812.5,525.5C 812.444,524.263 811.944,523.263 811,522.5C 810.227,512.31 810.394,502.143 811.5,492C 810.907,488.849 810.407,485.682 810,482.5C 798.066,488.197 785.899,493.197 773.5,497.5C 716.226,515.935 657.559,527.268 597.5,531.5C 568.872,533.499 540.206,534.999 511.5,536C 512.372,569.44 513.372,602.94 514.5,636.5C 514.314,641.186 513.981,645.853 513.5,650.5C 492.643,650.822 471.976,650.155 451.5,648.5C 458.948,649.108 466.115,648.441 473,646.5C 472.582,609.507 472.082,572.507 471.5,535.5C 457.513,534.344 443.513,533.344 429.5,532.5C 417.465,531.876 405.465,530.876 393.5,529.5C 380.14,527.631 366.807,525.631 353.5,523.5C 339.334,521.695 325.334,519.028 311.5,515.5C 281.526,508.669 252.86,498.169 225.5,484C 214.609,477.23 204.943,469.063 196.5,459.5C 196.5,457.5 196.5,455.5 196.5,453.5C 197.833,453.5 199.167,453.5 200.5,453.5C 200.187,456.247 200.52,458.914 201.5,461.5C 202.655,458.554 202.821,455.554 202,452.5C 199.432,451.969 196.932,451.636 194.5,451.5C 193.883,451.611 193.383,451.944 193,452.5C 190.584,448.699 189.084,444.699 188.5,440.5C 187.626,429.755 190.626,420.255 197.5,412C 280.182,414.523 362.849,417.69 445.5,421.5 Z"/></g>
<g><path style="opacity:1" fill="#48005c" d="M 949.5,384.5 C 950.205,390.399 950.872,396.399 951.5,402.5C 950.606,414.667 950.606,427 951.5,439.5C 951.5,442.833 951.5,446.167 951.5,449.5C 951.5,451.833 951.5,454.167 951.5,456.5C 951.731,464.505 952.065,472.505 952.5,480.5C 952.5,489.167 952.5,497.833 952.5,506.5C 952.265,512.44 950.931,518.107 948.5,523.5C 946.925,505.693 946.091,487.693 946,469.5C 945.295,488.179 945.461,506.846 946.5,525.5C 944.244,529.097 941.577,532.431 938.5,535.5C 937.833,535.833 937.167,536.167 936.5,536.5C 935.461,500.346 934.461,464.346 933.5,428.5C 933.295,425.205 934.128,422.205 936,419.5C 936.853,417.875 937.853,417.542 939,418.5C 939.566,415.771 941.066,413.771 943.5,412.5C 944.187,429.156 944.687,445.822 945,462.5C 945.697,444.821 945.53,427.154 944.5,409.5C 945.79,408.942 946.623,407.942 947,406.5C 947.333,413.167 947.667,419.833 948,426.5C 948.799,419.117 948.632,411.783 947.5,404.5C 949.206,397.959 949.873,391.292 949.5,384.5 Z"/></g>
<g><path style="opacity:1" fill="#65069f" d="M 944.5,409.5 C 945.53,427.154 945.697,444.821 945,462.5C 944.687,445.822 944.187,429.156 943.5,412.5C 943.263,411.209 943.596,410.209 944.5,409.5 Z"/></g>
<g><path style="opacity:1" fill="#8d0ffb" d="M 122.5,435.5 C 122.5,438.5 122.5,441.5 122.5,444.5C 118.626,445.707 115.626,448.04 113.5,451.5C 109.917,452.083 106.25,452.083 102.5,451.5C 102.18,454.898 102.513,458.232 103.5,461.5C 104.48,458.914 104.813,456.247 104.5,453.5C 105.833,453.5 107.167,453.5 108.5,453.5C 109.167,464.167 109.833,464.167 110.5,453.5C 111.833,453.5 113.167,453.5 114.5,453.5C 113.964,456.698 114.631,459.365 116.5,461.5C 106.145,472.266 98.478,484.932 93.5,499.5C 93.0984,505.445 92.0984,511.278 90.5,517C 92.0769,522.371 92.9102,527.871 93,533.5C 96.3681,544.796 101.535,555.13 108.5,564.5C 113.969,571.47 119.969,577.97 126.5,584C 129.282,585.284 131.615,587.117 133.5,589.5C 134.736,590.246 136.07,590.579 137.5,590.5C 137.5,591.5 137.5,592.5 137.5,593.5C 148.077,600.103 158.744,606.77 169.5,613.5C 199.682,628.656 231.016,641.156 263.5,651C 353.971,675.475 445.971,687.309 539.5,686.5C 641.631,687.78 741.298,673.613 838.5,644C 862.782,635.122 886.448,624.956 909.5,613.5C 922.051,606.006 934.384,598.339 946.5,590.5C 946.5,589.5 946.5,588.5 946.5,587.5C 947.552,587.649 948.552,587.483 949.5,587C 1000.71,541.785 1001.38,495.951 951.5,449.5C 951.5,446.167 951.5,442.833 951.5,439.5C 969.285,451.453 983.452,466.787 994,485.5C 1004.08,507.301 1003.91,528.968 993.5,550.5C 988.811,557.892 984.144,565.225 979.5,572.5C 978.5,572.5 977.5,572.5 976.5,572.5C 976.5,573.5 976.5,574.5 976.5,575.5C 975.5,575.5 974.5,575.5 973.5,575.5C 973.5,576.5 973.5,577.5 973.5,578.5C 972.5,578.5 971.5,578.5 970.5,578.5C 970.5,579.5 970.5,580.5 970.5,581.5C 969.5,581.5 968.5,581.5 967.5,581.5C 967.5,582.5 967.5,583.5 967.5,584.5C 966.5,584.5 965.5,584.5 964.5,584.5C 964.5,585.5 964.5,586.5 964.5,587.5C 960.104,589.722 956.104,592.555 952.5,596C 951.552,596.483 950.552,596.649 949.5,596.5C 949.5,597.5 949.5,598.5 949.5,599.5C 946.634,600.759 943.634,601.759 940.5,602.5C 940.5,603.5 940.5,604.5 940.5,605.5C 927.191,611.821 914.191,618.654 901.5,626C 887.509,632.209 873.343,638.042 859,643.5C 769.241,673.045 676.741,688.878 581.5,691C 475.818,695.232 371.818,684.566 269.5,659C 226.992,647.454 186.658,631.287 148.5,610.5C 138.983,603.49 129.317,596.824 119.5,590.5C 119.5,589.5 119.5,588.5 119.5,587.5C 118.07,587.579 116.736,587.246 115.5,586.5C 110.5,580.833 105.167,575.5 99.5,570.5C 98.7542,569.264 98.4208,567.93 98.5,566.5C 97.5,566.5 96.5,566.5 95.5,566.5C 85.4703,551.644 79.4703,535.144 77.5,517C 78.9145,496.533 86.5812,479.033 100.5,464.5C 101.328,459.868 101.828,455.202 102,450.5C 107.862,444.154 114.696,439.154 122.5,435.5 Z"/></g>
<g><path style="opacity:1" fill="#55006a" d="M 909.5,556.5 C 903.523,562.382 896.523,565.382 888.5,565.5C 889.5,565.5 890.5,565.5 891.5,565.5C 891.293,530.499 890.96,495.499 890.5,460.5C 890.18,457.102 890.513,453.768 891.5,450.5C 896.745,447.961 901.912,445.294 907,442.5C 908.182,480.481 909.016,518.481 909.5,556.5 Z"/></g>
<g><path style="opacity:1" fill="#867a93" d="M 260.5,446.5 C 262.237,449.008 263.07,452.008 263,455.5C 264.422,453.362 266.255,452.195 268.5,452C 267.167,453.333 265.833,454.667 264.5,456C 271.002,462.393 270.502,462.893 263,457.5C 262.781,458.938 262.281,460.271 261.5,461.5C 260.506,456.544 260.173,451.544 260.5,446.5 Z"/></g>
<g><path style="opacity:1" fill="#8a8493" d="M 310.5,446.5 C 311.809,448.571 312.475,451.071 312.5,454C 312.167,456.5 311.833,459 311.5,461.5C 310.506,456.544 310.173,451.544 310.5,446.5 Z"/></g>
<g><path style="opacity:1" fill="#867b93" d="M 315.5,446.5 C 316.809,448.571 317.475,451.071 317.5,454C 317.167,456.5 316.833,459 316.5,461.5C 315.506,456.544 315.173,451.544 315.5,446.5 Z"/></g>
<g><path style="opacity:1" fill="#8e7ba1" d="M 64.5,447.5 C 72.474,448.016 72.474,448.849 64.5,450C 60.9281,452.626 60.5948,455.626 63.5,459C 72.8336,460.327 72.8336,460.993 63.5,461C 59.3662,456.119 59.6996,451.619 64.5,447.5 Z"/></g>
<g><path style="opacity:1" fill="#867b8a" d="M 146.5,448.5 C 147.5,448.5 148.5,448.5 149.5,448.5C 149.48,450.143 150.147,451.476 151.5,452.5C 148.833,455.167 148.833,457.833 151.5,460.5C 150.349,461.731 149.183,461.731 148,460.5C 147.999,457.313 147.166,454.48 145.5,452C 146.337,450.989 146.67,449.822 146.5,448.5 Z"/></g>
<g><path style="opacity:1" fill="#857793" d="M 205.5,448.5 C 207.048,448.821 207.715,449.821 207.5,451.5C 211.5,451.833 211.5,452.167 207.5,452.5C 207.5,454.833 207.5,457.167 207.5,459.5C 208.675,459.281 209.675,459.614 210.5,460.5C 208.994,461.747 207.494,461.747 206,460.5C 205.003,456.428 204.836,452.428 205.5,448.5 Z"/></g>
<g><path style="opacity:1" fill="#827493" d="M 237.5,447.5 C 240.898,447.18 244.232,447.513 247.5,448.5C 246.311,449.429 244.978,449.762 243.5,449.5C 242.833,465.5 242.167,465.5 241.5,449.5C 239.517,449.843 238.183,449.176 237.5,447.5 Z"/></g>
<g><path style="opacity:1" fill="#857993" d="M 351.5,448.5 C 353.057,449.466 354.39,450.8 355.5,452.5C 352.833,455.167 352.833,457.833 355.5,460.5C 354.349,461.731 353.183,461.731 352,460.5C 351.999,457.313 351.166,454.48 349.5,452C 350.973,451.29 351.64,450.124 351.5,448.5 Z"/></g>
<g><path style="opacity:1" fill="#867c8a" d="M 174.5,447.5 C 176.924,447.192 179.257,447.526 181.5,448.5C 174.636,447.861 171.803,450.861 173,457.5C 175.574,459.002 178.407,460.002 181.5,460.5C 173.248,463.082 169.748,460.082 171,451.5C 172.376,450.295 173.542,448.962 174.5,447.5 Z"/></g>
<g><path style="opacity:1" fill="#9015fb" d="M 122.5,420.5 C 123.495,433.323 123.829,446.323 123.5,459.5C 122.504,459.586 121.671,459.252 121,458.5C 120.667,456.167 120.333,453.833 120,451.5C 119.333,454.5 119.333,457.5 120,460.5C 121.011,461.337 122.178,461.67 123.5,461.5C 123.5,463.167 123.5,464.833 123.5,466.5C 101.911,490.06 96.9109,516.893 108.5,547C 113.906,555.822 119.573,564.322 125.5,572.5C 126.5,572.5 127.5,572.5 128.5,572.5C 128.5,573.5 128.5,574.5 128.5,575.5C 129.5,575.5 130.5,575.5 131.5,575.5C 131.5,576.5 131.5,577.5 131.5,578.5C 132.5,578.5 133.5,578.5 134.5,578.5C 134.5,579.5 134.5,580.5 134.5,581.5C 138.402,583.72 142.069,586.387 145.5,589.5C 146.736,590.246 148.07,590.579 149.5,590.5C 149.5,591.5 149.5,592.5 149.5,593.5C 154.13,595.753 158.464,598.586 162.5,602C 164.134,602.494 165.801,602.66 167.5,602.5C 167.5,603.5 167.5,604.5 167.5,605.5C 211.917,629.003 258.917,646.503 308.5,658C 426.157,683.288 544.824,689.288 664.5,676C 738.294,668.801 809.294,651.135 877.5,623C 889.401,617.308 901.068,611.142 912.5,604.5C 922.85,597.165 933.183,589.832 943.5,582.5C 947.5,578.5 951.5,574.5 955.5,570.5C 957.928,567.409 959.928,564.076 961.5,560.5C 962.5,560.5 963.5,560.5 964.5,560.5C 968.5,552.667 972.167,544.667 975.5,536.5C 981.021,508.078 973.687,483.745 953.5,463.5C 952.933,461.018 952.266,458.684 951.5,456.5C 951.5,454.167 951.5,451.833 951.5,449.5C 1001.38,495.951 1000.71,541.785 949.5,587C 948.552,587.483 947.552,587.649 946.5,587.5C 946.5,588.5 946.5,589.5 946.5,590.5C 934.384,598.339 922.051,606.006 909.5,613.5C 886.448,624.956 862.782,635.122 838.5,644C 741.298,673.613 641.631,687.78 539.5,686.5C 445.971,687.309 353.971,675.475 263.5,651C 231.016,641.156 199.682,628.656 169.5,613.5C 158.744,606.77 148.077,600.103 137.5,593.5C 137.5,592.5 137.5,591.5 137.5,590.5C 136.07,590.579 134.736,590.246 133.5,589.5C 131.615,587.117 129.282,585.284 126.5,584C 119.969,577.97 113.969,571.47 108.5,564.5C 101.535,555.13 96.3681,544.796 93,533.5C 92.9102,527.871 92.0769,522.371 90.5,517C 92.0984,511.278 93.0984,505.445 93.5,499.5C 98.478,484.932 106.145,472.266 116.5,461.5C 116.665,458.482 116.498,455.482 116,452.5C 115.329,451.748 114.496,451.414 113.5,451.5C 115.626,448.04 118.626,445.707 122.5,444.5C 122.5,441.5 122.5,438.5 122.5,435.5C 122.5,430.5 122.5,425.5 122.5,420.5 Z"/></g>
<g><path style="opacity:1" fill="#8e77a5" d="M 84.5,451.5 C 88.9386,451.932 93.2719,452.099 97.5,452C 99.6729,454.892 100.006,458.059 98.5,461.5C 97.52,458.914 97.1866,456.247 97.5,453.5C 96.1667,453.5 94.8333,453.5 93.5,453.5C 92.8333,464.167 92.1667,464.167 91.5,453.5C 89.8561,453.286 88.3561,453.62 87,454.5C 86.8142,456.9 86.3142,459.234 85.5,461.5C 84.513,458.232 84.1796,454.898 84.5,451.5 Z"/></g>
<g><path style="opacity:1" fill="#8b8592" d="M 123.5,459.5 C 125.08,457.283 126.08,454.616 126.5,451.5C 127.487,454.768 127.82,458.102 127.5,461.5C 126.167,461.5 124.833,461.5 123.5,461.5C 122.178,461.67 121.011,461.337 120,460.5C 119.333,457.5 119.333,454.5 120,451.5C 120.333,453.833 120.667,456.167 121,458.5C 121.671,459.252 122.504,459.586 123.5,459.5 Z"/></g>
<g><path style="opacity:1" fill="#89828d" d="M 130.5,451.5 C 133.071,451.625 135.737,451.958 138.5,452.5C 139.748,455.494 139.748,458.494 138.5,461.5C 137.686,459.234 137.186,456.9 137,454.5C 135.667,453.167 134.333,453.167 133,454.5C 132.814,456.9 132.314,459.234 131.5,461.5C 130.513,458.232 130.18,454.898 130.5,451.5 Z"/></g>
<g><path style="opacity:1" fill="#88808c" d="M 141.5,451.5 C 142.777,452.694 143.444,454.36 143.5,456.5C 143.167,458.167 142.833,459.833 142.5,461.5C 141.513,458.232 141.18,454.898 141.5,451.5 Z"/></g>
<g><path style="opacity:1" fill="#847792" d="M 194.5,451.5 C 196.932,451.636 199.432,451.969 202,452.5C 202.821,455.554 202.655,458.554 201.5,461.5C 200.52,458.914 200.187,456.247 200.5,453.5C 199.167,453.5 197.833,453.5 196.5,453.5C 196.5,455.5 196.5,457.5 196.5,459.5C 196.631,460.376 196.298,461.043 195.5,461.5C 194.513,458.232 194.18,454.898 194.5,451.5 Z"/></g>
<g><path style="opacity:1" fill="#877d93" d="M 212.5,451.5 C 214.199,451.34 215.866,451.506 217.5,452C 216.584,452.374 215.75,452.874 215,453.5C 214.818,456.226 214.318,458.893 213.5,461.5C 212.513,458.232 212.18,454.898 212.5,451.5 Z"/></g>
<g><path style="opacity:1" fill="#7f6b93" d="M 219.5,451.5 C 220.777,452.694 221.444,454.36 221.5,456.5C 221.167,458.167 220.833,459.833 220.5,461.5C 219.513,458.232 219.18,454.898 219.5,451.5 Z"/></g>
<g><path style="opacity:1" fill="#847793" d="M 281.5,451.5 C 283.932,451.636 286.432,451.969 289,452.5C 289.821,455.554 289.655,458.554 288.5,461.5C 287.52,458.914 287.187,456.247 287.5,453.5C 286.167,453.5 284.833,453.5 283.5,453.5C 283.813,456.247 283.48,458.914 282.5,461.5C 281.513,458.232 281.18,454.898 281.5,451.5 Z"/></g>
<g><path style="opacity:1" fill="#7f6b93" d="M 357.5,451.5 C 358.777,452.694 359.444,454.36 359.5,456.5C 359.167,458.167 358.833,459.833 358.5,461.5C 357.513,458.232 357.18,454.898 357.5,451.5 Z"/></g>
<g><path style="opacity:1" fill="#867b93" d="M 373.5,451.5 C 375.152,452.807 376.818,452.807 378.5,451.5C 380.029,451.529 381.196,452.196 382,453.5C 382.818,456.227 382.652,458.894 381.5,461.5C 380.52,458.914 380.187,456.247 380.5,453.5C 378.833,453.5 377.167,453.5 375.5,453.5C 375.813,456.247 375.48,458.914 374.5,461.5C 373.513,458.232 373.18,454.898 373.5,451.5 Z"/></g>
<g><path style="opacity:1" fill="#8f7ca1" d="M 113.5,451.5 C 114.496,451.414 115.329,451.748 116,452.5C 116.498,455.482 116.665,458.482 116.5,461.5C 114.631,459.365 113.964,456.698 114.5,453.5C 113.167,453.5 111.833,453.5 110.5,453.5C 109.833,464.167 109.167,464.167 108.5,453.5C 107.167,453.5 105.833,453.5 104.5,453.5C 104.813,456.247 104.48,458.914 103.5,461.5C 102.513,458.232 102.18,454.898 102.5,451.5C 106.25,452.083 109.917,452.083 113.5,451.5 Z"/></g>
<g><path style="opacity:1" fill="#867b93" d="M 272.5,451.5 C 276.938,450.425 278.938,452.092 278.5,456.5C 276.5,456.5 274.5,456.5 272.5,456.5C 272.5,457.5 272.5,458.5 272.5,459.5C 274.604,459.201 276.604,459.534 278.5,460.5C 270.414,461.853 268.414,458.853 272.5,451.5 Z"/></g>
<g><path style="opacity:1" fill="#510793" d="M 272.5,453.5 C 274.429,453.231 276.095,453.731 277.5,455C 276.667,455.167 275.833,455.333 275,455.5C 273.624,455.316 272.791,454.649 272.5,453.5 Z"/></g>
<g><path style="opacity:1" fill="#857993" d="M 341.5,451.5 C 348.32,451.601 350.32,454.934 347.5,461.5C 346.571,460.311 346.238,458.978 346.5,457.5C 345.167,457.5 343.833,457.5 342.5,457.5C 342.36,459.124 343.027,460.29 344.5,461C 340.912,461.611 339.746,460.111 341,456.5C 342.825,455.897 344.659,455.23 346.5,454.5C 344.647,453.24 342.814,453.24 341,454.5C 340.53,453.423 340.697,452.423 341.5,451.5 Z"/></g>
<g><path style="opacity:1" fill="#857b89" d="M 152.5,451.5 C 153.376,451.369 154.043,451.702 154.5,452.5C 155.236,454.541 156.069,456.541 157,458.5C 157.931,456.541 158.764,454.541 159.5,452.5C 160.167,451.167 160.833,451.167 161.5,452.5C 159.764,456.874 157.931,461.207 156,465.5C 154.817,466.731 153.651,466.731 152.5,465.5C 154.272,464.73 155.272,463.397 155.5,461.5C 154.481,458.14 153.481,454.807 152.5,451.5 Z"/></g>
<g><path style="opacity:1" fill="#39006b" d="M 188.5,440.5 C 189.084,444.699 190.584,448.699 193,452.5C 193.383,451.944 193.883,451.611 194.5,451.5C 194.18,454.898 194.513,458.232 195.5,461.5C 196.298,461.043 196.631,460.376 196.5,459.5C 204.943,469.063 214.609,477.23 225.5,484C 252.86,498.169 281.526,508.669 311.5,515.5C 310.791,516.404 309.791,516.737 308.5,516.5C 308.805,546.507 309.472,576.507 310.5,606.5C 310.333,612.5 310.167,618.5 310,624.5C 309.79,626.058 309.29,627.391 308.5,628.5C 275.94,621.886 245.606,609.72 217.5,592C 209.333,586.5 202.5,579.667 197,571.5C 195.17,568.185 193.67,564.851 192.5,561.5C 190.245,533.578 189.245,505.578 189.5,477.5C 189.5,472.167 189.5,466.833 189.5,461.5C 191.977,460.88 191.977,459.88 189.5,458.5C 191.279,456.807 191.779,454.807 191,452.5C 190.329,451.748 189.496,451.414 188.5,451.5C 188.5,447.833 188.5,444.167 188.5,440.5 Z"/></g>
<g><path style="opacity:1" fill="#827293" d="M 225.5,451.5 C 232.569,451.743 232.903,452.577 226.5,454C 225.167,455.667 225.167,457.333 226.5,459C 228.256,459.202 229.922,459.702 231.5,460.5C 223.414,461.853 221.414,458.853 225.5,451.5 Z"/></g>
<g><path style="opacity:1" fill="#867a93" d="M 301.5,447.5 C 302.675,447.281 303.675,447.614 304.5,448.5C 306.726,452.823 308.059,457.157 308.5,461.5C 306.219,458.772 303.219,457.772 299.5,458.5C 299.719,459.675 299.386,460.675 298.5,461.5C 298.167,461 297.833,460.5 297.5,460C 299.275,455.956 300.608,451.789 301.5,447.5 Z"/></g>
<g><path style="opacity:1" fill="#541193" d="M 302.5,449.5 C 303.864,451.22 304.864,453.22 305.5,455.5C 303.926,456.631 302.259,456.798 300.5,456C 301.669,453.993 302.335,451.827 302.5,449.5 Z"/></g>
<g><path style="opacity:1" fill="#837393" d="M 321.5,451.5 C 329.44,450.937 331.44,454.104 327.5,461C 319.424,461.805 317.424,458.638 321.5,451.5 Z"/></g>
<g><path style="opacity:1" fill="#520993" d="M 321.5,453.5 C 326.667,452.492 328.334,454.325 326.5,459C 324.866,459.494 323.199,459.66 321.5,459.5C 321.5,457.5 321.5,455.5 321.5,453.5 Z"/></g>
<g><path style="opacity:1" fill="#8e77a4" d="M 75.5,451.5 C 82.6275,451.706 84.2942,454.873 80.5,461C 75.9322,462.65 73.2656,461.15 72.5,456.5C 72.7573,454.308 73.7573,452.641 75.5,451.5 Z"/></g>
<g><path style="opacity:1" fill="#8609f7" d="M 75.5,453.5 C 77.1667,453.5 78.8333,453.5 80.5,453.5C 80.5,455.5 80.5,457.5 80.5,459.5C 75.0738,460.416 73.4071,458.416 75.5,453.5 Z"/></g>
<g><path style="opacity:1" fill="#847593" d="M 250.5,451.5 C 258.486,450.998 260.486,454.165 256.5,461C 248.89,461.634 246.89,458.468 250.5,451.5 Z"/></g>
<g><path style="opacity:1" fill="#510693" d="M 251.5,453.5 C 253.167,453.5 254.833,453.5 256.5,453.5C 256.5,455.5 256.5,457.5 256.5,459.5C 251.074,460.416 249.407,458.416 251.5,453.5 Z"/></g>
<g><path style="opacity:1" fill="#7d6a83" d="M 188.5,451.5 C 189.496,451.414 190.329,451.748 191,452.5C 191.779,454.807 191.279,456.807 189.5,458.5C 191.977,459.88 191.977,460.88 189.5,461.5C 185.505,462.116 183.505,460.45 183.5,456.5C 183.511,453.155 185.178,451.489 188.5,451.5 Z"/></g>
<g><path style="opacity:1" fill="#867b93" d="M 333.5,451.5 C 339.313,451.344 339.646,452.011 334.5,453.5C 333.534,455.396 333.201,457.396 333.5,459.5C 335.288,459.215 336.955,459.548 338.5,460.5C 332.534,462.031 330.368,459.698 332,453.5C 332.717,452.956 333.217,452.289 333.5,451.5 Z"/></g>
<g><path style="opacity:1" fill="#827393" d="M 363.5,451.5 C 369.168,450.671 371.668,453.005 371,458.5C 368.294,461.978 365.294,462.311 362,459.5C 361.109,456.502 361.609,453.836 363.5,451.5 Z"/></g>
<g><path style="opacity:1" fill="#530d93" d="M 363.5,453.5 C 367.945,452.873 369.612,454.54 368.5,458.5C 363.153,460.486 361.486,458.819 363.5,453.5 Z"/></g>
<g><path style="opacity:1" fill="#931cfb" d="M 951.5,456.5 C 952.266,458.684 952.933,461.018 953.5,463.5C 973.687,483.745 981.021,508.078 975.5,536.5C 972.167,544.667 968.5,552.667 964.5,560.5C 963.5,560.5 962.5,560.5 961.5,560.5C 959.928,564.076 957.928,567.409 955.5,570.5C 951.5,574.5 947.5,578.5 943.5,582.5C 933.183,589.832 922.85,597.165 912.5,604.5C 901.068,611.142 889.401,617.308 877.5,623C 809.294,651.135 738.294,668.801 664.5,676C 544.824,689.288 426.157,683.288 308.5,658C 258.917,646.503 211.917,629.003 167.5,605.5C 167.5,604.5 167.5,603.5 167.5,602.5C 165.801,602.66 164.134,602.494 162.5,602C 158.464,598.586 154.13,595.753 149.5,593.5C 149.5,592.5 149.5,591.5 149.5,590.5C 148.07,590.579 146.736,590.246 145.5,589.5C 142.069,586.387 138.402,583.72 134.5,581.5C 134.5,580.5 134.5,579.5 134.5,578.5C 133.5,578.5 132.5,578.5 131.5,578.5C 131.5,577.5 131.5,576.5 131.5,575.5C 130.5,575.5 129.5,575.5 128.5,575.5C 128.5,574.5 128.5,573.5 128.5,572.5C 127.5,572.5 126.5,572.5 125.5,572.5C 119.573,564.322 113.906,555.822 108.5,547C 96.9109,516.893 101.911,490.06 123.5,466.5C 123.336,469.187 123.503,471.854 124,474.5C 125.699,475.406 127.533,475.739 129.5,475.5C 120.933,488.096 115.933,502.096 114.5,517.5C 115.717,522.776 116.55,528.109 117,533.5C 119.098,540.872 121.932,547.872 125.5,554.5C 126.5,554.5 127.5,554.5 128.5,554.5C 128.519,556.06 128.852,557.56 129.5,559C 131.474,561.44 133.141,563.94 134.5,566.5C 135.5,566.5 136.5,566.5 137.5,566.5C 137.421,567.93 137.754,569.264 138.5,570.5C 140.833,572.833 143.167,575.167 145.5,577.5C 146.736,578.246 148.07,578.579 149.5,578.5C 149.5,579.5 149.5,580.5 149.5,581.5C 150.5,581.5 151.5,581.5 152.5,581.5C 152.5,582.5 152.5,583.5 152.5,584.5C 156.283,586.79 160.283,588.79 164.5,590.5C 164.5,591.5 164.5,592.5 164.5,593.5C 167.289,595.014 170.289,596.014 173.5,596.5C 173.5,597.5 173.5,598.5 173.5,599.5C 186.965,605.896 199.965,612.73 212.5,620C 257.939,638.74 304.939,652.573 353.5,661.5C 465.239,680.536 577.406,682.536 690,667.5C 740.485,660.315 789.651,648.482 837.5,632C 863.07,622.509 887.403,610.509 910.5,596C 918.984,590.008 926.984,583.508 934.5,576.5C 935.325,575.614 936.325,575.281 937.5,575.5C 937.5,574.5 937.5,573.5 937.5,572.5C 938.5,572.5 939.5,572.5 940.5,572.5C 940.5,571.5 940.5,570.5 940.5,569.5C 941.5,569.5 942.5,569.5 943.5,569.5C 943.351,568.448 943.517,567.448 944,566.5C 960.746,549.074 967.246,528.074 963.5,503.5C 962.036,498.774 960.369,494.108 958.5,489.5C 956.857,486.181 954.857,483.181 952.5,480.5C 952.065,472.505 951.731,464.505 951.5,456.5 Z"/></g>
<g><path style="opacity:1" fill="#9622fc" d="M 129.5,475.5 C 132.833,475.5 136.167,475.5 139.5,475.5C 139.611,476.117 139.944,476.617 140.5,477C 137.671,480.672 135.004,484.505 132.5,488.5C 126.548,500.099 124.382,512.432 126,525.5C 127.763,534.622 130.597,543.288 134.5,551.5C 135.5,551.5 136.5,551.5 137.5,551.5C 137.34,553.199 137.506,554.866 138,556.5C 139.706,557.308 140.539,558.641 140.5,560.5C 141.5,560.5 142.5,560.5 143.5,560.5C 143.421,561.93 143.754,563.264 144.5,564.5C 150.167,569.5 155.5,574.833 160.5,580.5C 161.736,581.246 163.07,581.579 164.5,581.5C 164.5,582.5 164.5,583.5 164.5,584.5C 168.283,586.79 172.283,588.79 176.5,590.5C 176.5,591.5 176.5,592.5 176.5,593.5C 179.289,595.014 182.289,596.014 185.5,596.5C 185.5,597.5 185.5,598.5 185.5,599.5C 201.523,607.335 217.523,615.168 233.5,623C 247.548,628.05 261.548,633.05 275.5,638C 382.067,667.825 491.067,679.159 602.5,672C 663.928,668.393 724.261,659.06 783.5,644C 818.2,634.108 851.533,621.108 883.5,605C 904.681,593.157 923.181,577.991 939,559.5C 951.197,543.711 955.697,526.044 952.5,506.5C 952.5,497.833 952.5,489.167 952.5,480.5C 954.857,483.181 956.857,486.181 958.5,489.5C 960.369,494.108 962.036,498.774 963.5,503.5C 967.246,528.074 960.746,549.074 944,566.5C 943.517,567.448 943.351,568.448 943.5,569.5C 942.5,569.5 941.5,569.5 940.5,569.5C 940.5,570.5 940.5,571.5 940.5,572.5C 939.5,572.5 938.5,572.5 937.5,572.5C 937.5,573.5 937.5,574.5 937.5,575.5C 936.325,575.281 935.325,575.614 934.5,576.5C 926.984,583.508 918.984,590.008 910.5,596C 887.403,610.509 863.07,622.509 837.5,632C 789.651,648.482 740.485,660.315 690,667.5C 577.406,682.536 465.239,680.536 353.5,661.5C 304.939,652.573 257.939,638.74 212.5,620C 199.965,612.73 186.965,605.896 173.5,599.5C 173.5,598.5 173.5,597.5 173.5,596.5C 170.289,596.014 167.289,595.014 164.5,593.5C 164.5,592.5 164.5,591.5 164.5,590.5C 160.283,588.79 156.283,586.79 152.5,584.5C 152.5,583.5 152.5,582.5 152.5,581.5C 151.5,581.5 150.5,581.5 149.5,581.5C 149.5,580.5 149.5,579.5 149.5,578.5C 148.07,578.579 146.736,578.246 145.5,577.5C 143.167,575.167 140.833,572.833 138.5,570.5C 137.754,569.264 137.421,567.93 137.5,566.5C 136.5,566.5 135.5,566.5 134.5,566.5C 133.141,563.94 131.474,561.44 129.5,559C 128.852,557.56 128.519,556.06 128.5,554.5C 127.5,554.5 126.5,554.5 125.5,554.5C 121.932,547.872 119.098,540.872 117,533.5C 116.55,528.109 115.717,522.776 114.5,517.5C 115.933,502.096 120.933,488.096 129.5,475.5 Z"/></g>
<g><path style="opacity:1" fill="#9928fb" d="M 139.5,475.5 C 140.5,475.5 141.5,475.5 142.5,475.5C 145.689,476.166 149.023,476.833 152.5,477.5C 134.464,503.066 133.964,529.066 151,555.5C 164.943,572.768 181.443,587.268 200.5,599C 233.106,616.796 267.439,630.462 303.5,640C 394.771,662.904 487.438,672.237 581.5,668C 660.393,665.779 737.393,652.779 812.5,629C 846.716,617.74 878.049,601.407 906.5,580C 916.797,571.041 925.631,560.874 933,549.5C 935.526,545.086 937.359,540.42 938.5,535.5C 941.577,532.431 944.244,529.097 946.5,525.5C 947.5,525.167 948.167,524.5 948.5,523.5C 950.931,518.107 952.265,512.44 952.5,506.5C 955.697,526.044 951.197,543.711 939,559.5C 923.181,577.991 904.681,593.157 883.5,605C 851.533,621.108 818.2,634.108 783.5,644C 724.261,659.06 663.928,668.393 602.5,672C 491.067,679.159 382.067,667.825 275.5,638C 261.548,633.05 247.548,628.05 233.5,623C 217.523,615.168 201.523,607.335 185.5,599.5C 185.5,598.5 185.5,597.5 185.5,596.5C 182.289,596.014 179.289,595.014 176.5,593.5C 176.5,592.5 176.5,591.5 176.5,590.5C 172.283,588.79 168.283,586.79 164.5,584.5C 164.5,583.5 164.5,582.5 164.5,581.5C 163.07,581.579 161.736,581.246 160.5,580.5C 155.5,574.833 150.167,569.5 144.5,564.5C 143.754,563.264 143.421,561.93 143.5,560.5C 142.5,560.5 141.5,560.5 140.5,560.5C 140.539,558.641 139.706,557.308 138,556.5C 137.506,554.866 137.34,553.199 137.5,551.5C 136.5,551.5 135.5,551.5 134.5,551.5C 130.597,543.288 127.763,534.622 126,525.5C 124.382,512.432 126.548,500.099 132.5,488.5C 135.004,484.505 137.671,480.672 140.5,477C 139.944,476.617 139.611,476.117 139.5,475.5 Z"/></g>
<g><path style="opacity:1" fill="#9c2efb" d="M 142.5,475.5 C 149.18,475.612 155.847,475.946 162.5,476.5C 162.918,477.222 163.584,477.722 164.5,478C 162.667,480.158 160.834,482.324 159,484.5C 157,488.5 155,492.5 153,496.5C 149.711,506.569 148.711,516.902 150,527.5C 151.747,534.028 153.913,540.362 156.5,546.5C 161.226,553.26 165.892,559.926 170.5,566.5C 171.5,566.5 172.5,566.5 173.5,566.5C 173.5,567.5 173.5,568.5 173.5,569.5C 174.5,569.5 175.5,569.5 176.5,569.5C 176.5,570.5 176.5,571.5 176.5,572.5C 177.5,572.5 178.5,572.5 179.5,572.5C 179.5,573.5 179.5,574.5 179.5,575.5C 213.974,600.903 251.974,619.736 293.5,632C 387.395,657.951 483.061,668.618 580.5,664C 653.751,661.822 725.418,650.155 795.5,629C 823.812,620.034 850.479,608.034 875.5,593C 888.581,583.919 900.747,573.752 912,562.5C 914.403,559.275 916.569,555.942 918.5,552.5C 921.366,549.479 924.7,546.979 928.5,545C 931.316,542.35 933.982,539.516 936.5,536.5C 937.167,536.167 937.833,535.833 938.5,535.5C 937.359,540.42 935.526,545.086 933,549.5C 925.631,560.874 916.797,571.041 906.5,580C 878.049,601.407 846.716,617.74 812.5,629C 737.393,652.779 660.393,665.779 581.5,668C 487.438,672.237 394.771,662.904 303.5,640C 267.439,630.462 233.106,616.796 200.5,599C 181.443,587.268 164.943,572.768 151,555.5C 133.964,529.066 134.464,503.066 152.5,477.5C 149.023,476.833 145.689,476.166 142.5,475.5 Z"/></g>
<g><path style="opacity:1" fill="#a037fb" d="M 162.5,476.5 C 170.183,476.523 177.85,476.857 185.5,477.5C 186.263,478.268 187.263,478.768 188.5,479C 173.275,496.126 169.442,515.626 177,537.5C 180.371,542.822 183.204,548.488 185.5,554.5C 186.5,554.5 187.5,554.5 188.5,554.5C 188.555,557.614 189.888,559.948 192.5,561.5C 193.67,564.851 195.17,568.185 197,571.5C 202.5,579.667 209.333,586.5 217.5,592C 245.606,609.72 275.94,621.886 308.5,628.5C 320.809,632.296 333.476,634.963 346.5,636.5C 357.671,638.696 369.005,640.696 380.5,642.5C 380.389,643.117 380.056,643.617 379.5,644C 385.581,644.53 391.581,645.53 397.5,647C 405.5,647.333 413.5,647.667 421.5,648C 506.585,658.51 591.252,657.843 675.5,646C 721.796,639.257 766.796,627.59 810.5,611C 833.075,601.351 854.075,589.351 873.5,575C 877.031,571.967 880.365,568.8 883.5,565.5C 885.167,565.5 886.833,565.5 888.5,565.5C 896.523,565.382 903.523,562.382 909.5,556.5C 912.648,555.424 915.648,554.091 918.5,552.5C 916.569,555.942 914.403,559.275 912,562.5C 900.747,573.752 888.581,583.919 875.5,593C 850.479,608.034 823.812,620.034 795.5,629C 725.418,650.155 653.751,661.822 580.5,664C 483.061,668.618 387.395,657.951 293.5,632C 251.974,619.736 213.974,600.903 179.5,575.5C 179.5,574.5 179.5,573.5 179.5,572.5C 178.5,572.5 177.5,572.5 176.5,572.5C 176.5,571.5 176.5,570.5 176.5,569.5C 175.5,569.5 174.5,569.5 173.5,569.5C 173.5,568.5 173.5,567.5 173.5,566.5C 172.5,566.5 171.5,566.5 170.5,566.5C 165.892,559.926 161.226,553.26 156.5,546.5C 153.913,540.362 151.747,534.028 150,527.5C 148.711,516.902 149.711,506.569 153,496.5C 155,492.5 157,488.5 159,484.5C 160.834,482.324 162.667,480.158 164.5,478C 163.584,477.722 162.918,477.222 162.5,476.5 Z"/></g>
<g><path style="opacity:1" fill="#a542fb" d="M 185.5,477.5 C 186.833,477.5 188.167,477.5 189.5,477.5C 189.245,505.578 190.245,533.578 192.5,561.5C 189.888,559.948 188.555,557.614 188.5,554.5C 187.5,554.5 186.5,554.5 185.5,554.5C 183.204,548.488 180.371,542.822 177,537.5C 169.442,515.626 173.275,496.126 188.5,479C 187.263,478.768 186.263,478.268 185.5,477.5 Z"/></g>
<g><path style="opacity:1" fill="#5600a1" d="M 820.5,507.5 C 820.801,523.374 821.801,539.041 823.5,554.5C 822.174,558.614 821.507,563.114 821.5,568C 822.108,576.202 822.108,584.368 821.5,592.5C 807.283,599.943 792.617,606.277 777.5,611.5C 776.734,579.179 776.068,546.846 775.5,514.5C 775.496,508.458 774.829,502.792 773.5,497.5C 785.899,493.197 798.066,488.197 810,482.5C 810.407,485.682 810.907,488.849 811.5,492C 810.394,502.143 810.227,512.31 811,522.5C 811.944,523.263 812.444,524.263 812.5,525.5C 811.376,536.806 811.209,548.139 812,559.5C 812.5,560 813,560.5 813.5,561C 812.348,571.09 812.181,581.256 813,591.5C 813.249,592.624 813.749,593.624 814.5,594.5C 815.554,556.532 815.721,518.532 815,480.5C 816.085,479.707 817.252,479.04 818.5,478.5C 819.167,488.325 819.833,497.992 820.5,507.5 Z"/></g>
<g><path style="opacity:1" fill="#5b00a9" d="M 773.5,497.5 C 774.829,502.792 775.496,508.458 775.5,514.5C 776.068,546.846 776.734,579.179 777.5,611.5C 731.423,627.209 684.089,637.709 635.5,643C 607.531,645.63 579.531,647.797 551.5,649.5C 552.919,648.549 554.585,648.216 556.5,648.5C 556.5,647.5 556.5,646.5 556.5,645.5C 558.594,646.242 560.761,646.909 563,647.5C 569.138,646.657 575.305,646.324 581.5,646.5C 580.741,608.838 580.408,571.172 580.5,533.5C 586.389,533.55 592.056,532.884 597.5,531.5C 657.559,527.268 716.226,515.935 773.5,497.5 Z"/></g>
<g><path style="opacity:1" fill="#680f9a" d="M 948.5,523.5 C 948.167,524.5 947.5,525.167 946.5,525.5C 945.461,506.846 945.295,488.179 946,469.5C 946.091,487.693 946.925,505.693 948.5,523.5 Z"/></g>
<g><path style="opacity:1" fill="#3d0073" d="M 311.5,515.5 C 325.334,519.028 339.334,521.695 353.5,523.5C 353.382,559.36 354.048,595.193 355.5,631C 355.057,632.825 354.723,634.658 354.5,636.5C 351.833,636.5 349.167,636.5 346.5,636.5C 333.476,634.963 320.809,632.296 308.5,628.5C 309.29,627.391 309.79,626.058 310,624.5C 310.167,618.5 310.333,612.5 310.5,606.5C 309.472,576.507 308.805,546.507 308.5,516.5C 309.791,516.737 310.791,516.404 311.5,515.5 Z"/></g>
<g><path style="opacity:1" fill="#43007b" d="M 353.5,523.5 C 366.807,525.631 380.14,527.631 393.5,529.5C 394.218,566.071 395.218,602.571 396.5,639C 393.57,642.051 389.903,643.218 385.5,642.5C 383.833,642.5 382.167,642.5 380.5,642.5C 369.005,640.696 357.671,638.696 346.5,636.5C 349.167,636.5 351.833,636.5 354.5,636.5C 354.723,634.658 355.057,632.825 355.5,631C 354.048,595.193 353.382,559.36 353.5,523.5 Z"/></g>
<g><path style="opacity:1" fill="#470085" d="M 393.5,529.5 C 405.465,530.876 417.465,531.876 429.5,532.5C 430.209,533.404 431.209,533.737 432.5,533.5C 433.194,568.838 434.194,604.171 435.5,639.5C 434.809,642.198 434.142,644.865 433.5,647.5C 417.241,646.926 401.241,645.259 385.5,642.5C 389.903,643.218 393.57,642.051 396.5,639C 395.218,602.571 394.218,566.071 393.5,529.5 Z"/></g>
<g><path style="opacity:1" fill="#54009f" d="M 597.5,531.5 C 592.056,532.884 586.389,533.55 580.5,533.5C 580.408,571.172 580.741,608.838 581.5,646.5C 575.305,646.324 569.138,646.657 563,647.5C 560.761,646.909 558.594,646.242 556.5,645.5C 556.5,646.5 556.5,647.5 556.5,648.5C 554.585,648.216 552.919,648.549 551.5,649.5C 543.648,649.175 535.982,649.508 528.5,650.5C 523.5,650.5 518.5,650.5 513.5,650.5C 513.981,645.853 514.314,641.186 514.5,636.5C 513.372,602.94 512.372,569.44 511.5,536C 540.206,534.999 568.872,533.499 597.5,531.5 Z"/></g>
<g><path style="opacity:1" fill="#4a008d" d="M 429.5,532.5 C 443.513,533.344 457.513,534.344 471.5,535.5C 472.082,572.507 472.582,609.507 473,646.5C 466.115,648.441 458.948,649.108 451.5,648.5C 445.471,648.575 439.471,648.241 433.5,647.5C 434.142,644.865 434.809,642.198 435.5,639.5C 434.194,604.171 433.194,568.838 432.5,533.5C 431.209,533.737 430.209,533.404 429.5,532.5 Z"/></g>
<g><path style="opacity:1" fill="#a84af9" d="M 823.5,554.5 C 839.713,557.088 855.713,560.088 871.5,563.5C 868.448,567.058 865.114,570.558 861.5,574C 827.822,597.664 790.822,614.664 750.5,625C 677.693,643.627 603.693,652.127 528.5,650.5C 535.982,649.508 543.648,649.175 551.5,649.5C 579.531,647.797 607.531,645.63 635.5,643C 684.089,637.709 731.423,627.209 777.5,611.5C 792.617,606.277 807.283,599.943 821.5,592.5C 822.108,584.368 822.108,576.202 821.5,568C 821.507,563.114 822.174,558.614 823.5,554.5 Z"/></g>
<g><path style="opacity:1" fill="#a541fb" d="M 871.5,563.5 C 875.674,563.334 879.674,564 883.5,565.5C 880.365,568.8 877.031,571.967 873.5,575C 854.075,589.351 833.075,601.351 810.5,611C 766.796,627.59 721.796,639.257 675.5,646C 591.252,657.843 506.585,658.51 421.5,648C 413.5,647.667 405.5,647.333 397.5,647C 391.581,645.53 385.581,644.53 379.5,644C 380.056,643.617 380.389,643.117 380.5,642.5C 382.167,642.5 383.833,642.5 385.5,642.5C 401.241,645.259 417.241,646.926 433.5,647.5C 439.471,648.241 445.471,648.575 451.5,648.5C 471.976,650.155 492.643,650.822 513.5,650.5C 518.5,650.5 523.5,650.5 528.5,650.5C 603.693,652.127 677.693,643.627 750.5,625C 790.822,614.664 827.822,597.664 861.5,574C 865.114,570.558 868.448,567.058 871.5,563.5 Z"/></g>
</svg>
