<svg width="60" height="60" viewBox="0 0 60 60" fill="none" xmlns="http://www.w3.org/2000/svg">
<rect width="60" height="60" rx="30" fill="#1A1D22"/>
<path d="M29.9999 18.625C28.4949 18.625 27.0366 18.9167 25.6599 19.4883C25.6599 19.4883 25.6132 19.5117 25.5899 19.5233C25.5199 19.5467 25.4732 19.5933 25.4149 19.64C25.4032 19.6517 25.3799 19.6517 25.3682 19.675C25.0882 19.9317 24.9832 20.3167 25.1349 20.6783C25.1932 20.8067 25.2866 20.9117 25.3799 21.005L28.7516 24.7967C28.7516 24.7967 28.7866 24.82 28.8099 24.8433C28.8566 24.89 28.9149 24.925 28.9732 24.96C29.0199 24.9833 29.0549 25.0067 29.1016 25.03C29.1599 25.0533 29.2299 25.065 29.2999 25.065C29.3349 25.065 29.3699 25.0883 29.4166 25.0883C29.4282 25.0883 29.4516 25.0883 29.4632 25.0883C29.4749 25.0883 29.4866 25.0883 29.4982 25.0883C29.6732 25.0767 29.8482 25.065 30.0349 25.065C32.7649 25.065 34.9933 27.2933 34.9933 30.0233C34.9933 31.5983 34.2699 33.045 33.0099 33.99C32.9983 33.99 32.9866 34.0133 32.9749 34.025C32.9166 34.0717 32.8699 34.13 32.8233 34.1883C32.7999 34.2233 32.7766 34.2467 32.7532 34.2933C32.7182 34.3517 32.7066 34.41 32.6949 34.48C32.6833 34.5267 32.6716 34.5733 32.6599 34.62C32.6599 34.6433 32.6483 34.6667 32.6483 34.69V39.9283C32.6483 39.9283 32.6716 40.0333 32.6833 40.0917C32.6833 40.1383 32.6832 40.185 32.7066 40.2317C32.7066 40.2317 32.7066 40.2433 32.7182 40.255C32.7299 40.29 32.7533 40.3133 32.7649 40.3367C32.7999 40.4067 32.8349 40.465 32.8932 40.5233C32.9166 40.5467 32.9399 40.57 32.9633 40.5933C33.0216 40.64 33.0799 40.6867 33.1499 40.7217C33.1733 40.7333 33.1966 40.745 33.2199 40.7567C33.3249 40.7917 33.4183 40.8267 33.5349 40.8267C33.6283 40.8267 33.7332 40.815 33.8266 40.78C38.3649 39.1817 41.4099 34.865 41.4099 30.0583C41.4099 23.7817 36.3116 18.6833 30.0349 18.6833L29.9999 18.625ZM34.3749 38.5633V35.075C35.8566 33.8033 36.7083 31.9833 36.7083 30C36.7083 26.3017 33.6982 23.2917 29.9999 23.2917C29.9183 23.2917 29.8366 23.2917 29.7549 23.3033L27.4566 20.725C28.2849 20.5033 29.1249 20.375 29.9999 20.375C35.3083 20.375 39.6249 24.6917 39.6249 30C39.6249 33.64 37.5599 36.93 34.3749 38.5633Z" fill="white"/>
<path d="M29.9999 34.9584C27.2699 34.9584 25.0416 32.7301 25.0416 30.0001C25.0416 28.6701 25.5549 27.4334 26.4883 26.5001C26.8266 26.1618 26.8266 25.6018 26.4883 25.2634L23.1866 21.9618C22.8483 21.6234 22.2883 21.6234 21.9499 21.9618C19.8033 24.1084 18.6133 26.9668 18.6133 30.0001C18.6133 36.2768 23.7116 41.3751 29.9883 41.3751C30.4666 41.3751 30.8633 40.9784 30.8633 40.5001V35.8334C30.8633 35.3551 30.4666 34.9584 29.9883 34.9584H29.9999ZM20.3749 30.0001C20.3749 27.7251 21.1683 25.5668 22.6033 23.8401L24.6916 25.9284C23.7933 27.0951 23.2799 28.4951 23.2799 29.9884C23.2799 33.3951 25.8233 36.2068 29.1133 36.6384V39.5784C24.2133 39.1351 20.3633 35.0051 20.3633 30.0001H20.3749Z" fill="white"/>
</svg>
