<svg width="60" height="60" viewBox="0 0 60 60" fill="none" xmlns="http://www.w3.org/2000/svg">
<rect width="60" height="60" rx="30" fill="#1A1D22"/>
<path d="M40.64 35.81C40.2316 34.5734 39.0066 33.8384 37.7233 34.0484L33.9783 34.6667C32.9166 34.8417 31.8433 34.8067 30.8049 34.5384L29.3816 34.1767C28.8916 34.06 28.5533 33.6167 28.5533 33.115C28.5533 32.5084 29.0433 32.03 29.6383 32.03H30.5949C32.0416 32.03 33.2199 30.8517 33.2199 29.405C33.2199 27.9584 32.0416 26.78 30.5949 26.78H27.0133C25.7883 26.78 24.5983 27.0134 23.4666 27.4684L19.1849 29.1834C18.7416 29.3584 18.5199 29.8717 18.6949 30.315C18.8699 30.7584 19.3833 30.98 19.8266 30.805L24.1083 29.09C25.0299 28.7167 26.0099 28.53 27.0016 28.53H30.5833C31.0616 28.53 31.4583 28.9267 31.4583 29.405C31.4583 29.8834 31.0616 30.28 30.5833 30.28H29.6266C28.0633 30.28 26.7916 31.5517 26.7916 33.115C26.7916 34.4217 27.6783 35.5534 28.9383 35.8684L30.3616 36.23C31.6449 36.545 32.9516 36.6034 34.2466 36.3817L37.9916 35.7634C38.4349 35.6934 38.8316 35.9384 38.9716 36.3467L39.0416 36.545C39.1233 36.79 39.1 37.0467 38.9716 37.2567C38.8433 37.4667 38.6333 37.63 38.3883 37.6767L30.5833 39.24C29.4633 39.4617 28.2733 39.4384 27.1649 39.1584L19.7216 37.3034C19.2549 37.1867 18.7766 37.4667 18.6599 37.945C18.5433 38.4234 18.8233 38.89 19.3016 39.0067L26.7449 40.8617C27.5033 41.0484 28.2849 41.1417 29.0666 41.1417C29.6966 41.1417 30.3266 41.0834 30.9333 40.955L38.7383 39.3917C39.4733 39.24 40.115 38.785 40.4883 38.1317C40.8616 37.4784 40.9433 36.6967 40.71 35.985L40.64 35.7867V35.81Z" fill="white"/>
<path d="M24.5748 24.96C25.0182 25.17 25.5315 24.9833 25.7415 24.54C26.9432 22.0083 29.5332 20.375 32.3332 20.375C36.3582 20.375 39.6248 23.6417 39.6248 27.6667C39.6248 28.7633 39.3915 29.8133 38.9248 30.7933C38.7148 31.225 38.9015 31.75 39.3332 31.96C39.4498 32.0183 39.5782 32.0417 39.7065 32.0417C40.0332 32.0417 40.3482 31.855 40.4998 31.54C41.0832 30.3267 41.3748 29.02 41.3748 27.6667C41.3748 22.685 37.3148 18.625 32.3332 18.625C28.8565 18.625 25.6482 20.655 24.1665 23.7933C23.9565 24.225 24.1432 24.75 24.5865 24.96H24.5748Z" fill="white"/>
</svg>
