<svg width="60" height="60" viewBox="0 0 60 60" fill="none" xmlns="http://www.w3.org/2000/svg">
<rect width="60" height="60" rx="30" fill="#1A1D22"/>
<path d="M38.1667 27.375C39.94 27.375 41.375 25.94 41.375 24.1667V21.8333C41.375 20.06 39.94 18.625 38.1667 18.625H21.8333C20.06 18.625 18.625 20.06 18.625 21.8333V24.1667C18.625 25.94 20.06 27.375 21.8333 27.375H23.2917V29.125H21.8333C20.06 29.125 18.625 30.56 18.625 32.3333V34.6667C18.625 36.44 20.06 37.875 21.8333 37.875H23.2917V39.625H20.6667C20.1883 39.625 19.7917 40.0217 19.7917 40.5C19.7917 40.9783 20.1883 41.375 20.6667 41.375H39.3333C39.8117 41.375 40.2083 40.9783 40.2083 40.5C40.2083 40.0217 39.8117 39.625 39.3333 39.625H25.0417V37.875H38.1667C39.94 37.875 41.375 36.44 41.375 34.6667V32.3333C41.375 30.56 39.94 29.125 38.1667 29.125H25.0417V27.375H38.1667ZM20.375 34.6667V32.3333C20.375 31.5283 21.0283 30.875 21.8333 30.875H33.7917V36.125H21.8333C21.0283 36.125 20.375 35.4717 20.375 34.6667ZM39.625 32.3333V34.6667C39.625 35.4717 38.9717 36.125 38.1667 36.125H35.5417V30.875H38.1667C38.9717 30.875 39.625 31.5283 39.625 32.3333ZM39.625 21.8333V24.1667C39.625 24.9717 38.9717 25.625 38.1667 25.625H35.5417V20.375H38.1667C38.9717 20.375 39.625 21.0283 39.625 21.8333ZM20.375 24.1667V21.8333C20.375 21.0283 21.0283 20.375 21.8333 20.375H33.7917V25.625H21.8333C21.0283 25.625 20.375 24.9717 20.375 24.1667Z" fill="white"/>
<path d="M25.0417 23C25.0417 22.5217 24.645 22.125 24.1667 22.125H23C22.5217 22.125 22.125 22.5217 22.125 23C22.125 23.4783 22.5217 23.875 23 23.875H24.1667C24.645 23.875 25.0417 23.4783 25.0417 23Z" fill="white"/>
<path d="M25.0417 33.5C25.0417 33.0217 24.645 32.625 24.1667 32.625H23C22.5217 32.625 22.125 33.0217 22.125 33.5C22.125 33.9783 22.5217 34.375 23 34.375H24.1667C24.645 34.375 25.0417 33.9783 25.0417 33.5Z" fill="white"/>
</svg>
