<svg width="60" height="60" viewBox="0 0 60 60" fill="none" xmlns="http://www.w3.org/2000/svg">
<rect width="60" height="60" rx="30" fill="#1A1D22"/>
<path d="M26.5 18.625H20.6667C19.5467 18.625 18.625 19.5467 18.625 20.6667V26.5C18.625 27.62 19.5467 28.5417 20.6667 28.5417H26.5C27.62 28.5417 28.5417 27.62 28.5417 26.5V20.6667C28.5417 19.5467 27.62 18.625 26.5 18.625ZM26.7917 26.5C26.7917 26.6633 26.6633 26.7917 26.5 26.7917H20.6667C20.5033 26.7917 20.375 26.6633 20.375 26.5V20.6667C20.375 20.5033 20.5033 20.375 20.6667 20.375H26.5C26.6633 20.375 26.7917 20.5033 26.7917 20.6667V26.5Z" fill="white"/>
<path d="M24.1667 22.125H23C22.5168 22.125 22.125 22.5168 22.125 23V24.1667C22.125 24.6499 22.5168 25.0417 23 25.0417H24.1667C24.6499 25.0417 25.0417 24.6499 25.0417 24.1667V23C25.0417 22.5168 24.6499 22.125 24.1667 22.125Z" fill="white"/>
<path d="M26.5 30.2917H20.6667C19.5467 30.2917 18.625 31.2134 18.625 32.3334V38.1667C18.625 39.2867 19.5467 40.2084 20.6667 40.2084H26.5C27.62 40.2084 28.5417 39.2867 28.5417 38.1667V32.3334C28.5417 31.2134 27.62 30.2917 26.5 30.2917ZM26.7917 38.1667C26.7917 38.3301 26.6633 38.4584 26.5 38.4584H20.6667C20.5033 38.4584 20.375 38.3301 20.375 38.1667V32.3334C20.375 32.1701 20.5033 32.0417 20.6667 32.0417H26.5C26.6633 32.0417 26.7917 32.1701 26.7917 32.3334V38.1667Z" fill="white"/>
<path d="M24.1667 33.7917H23C22.5168 33.7917 22.125 34.1835 22.125 34.6667V35.8334C22.125 36.3167 22.5168 36.7084 23 36.7084H24.1667C24.6499 36.7084 25.0417 36.3167 25.0417 35.8334V34.6667C25.0417 34.1835 24.6499 33.7917 24.1667 33.7917Z" fill="white"/>
<path d="M38.1665 18.625H32.3332C31.2132 18.625 30.2915 19.5467 30.2915 20.6667V26.5C30.2915 27.62 31.2132 28.5417 32.3332 28.5417H38.1665C39.2865 28.5417 40.2082 27.62 40.2082 26.5V20.6667C40.2082 19.5467 39.2865 18.625 38.1665 18.625ZM38.4582 26.5C38.4582 26.6633 38.3298 26.7917 38.1665 26.7917H32.3332C32.1698 26.7917 32.0415 26.6633 32.0415 26.5V20.6667C32.0415 20.5033 32.1698 20.375 32.3332 20.375H38.1665C38.3298 20.375 38.4582 20.5033 38.4582 20.6667V26.5Z" fill="white"/>
<path d="M35.8332 22.125H34.6665C34.1833 22.125 33.7915 22.5168 33.7915 23V24.1667C33.7915 24.6499 34.1833 25.0417 34.6665 25.0417H35.8332C36.3164 25.0417 36.7082 24.6499 36.7082 24.1667V23C36.7082 22.5168 36.3164 22.125 35.8332 22.125Z" fill="white"/>
<path d="M39.3333 36.125C38.855 36.125 38.4583 36.5217 38.4583 37V38.1667C38.4583 38.33 38.33 38.4583 38.1667 38.4583H37C36.5217 38.4583 36.125 38.855 36.125 39.3333C36.125 39.8117 36.5217 40.2083 37 40.2083H38.1667C39.2867 40.2083 40.2083 39.2867 40.2083 38.1667V37C40.2083 36.5217 39.8117 36.125 39.3333 36.125Z" fill="white"/>
<path d="M34.6665 33.7917H32.0415V31.1667C32.0415 30.6884 31.6448 30.2917 31.1665 30.2917C30.6882 30.2917 30.2915 30.6884 30.2915 31.1667V38.1667C30.2915 39.2867 31.2132 40.2084 32.3332 40.2084H33.4998C33.9782 40.2084 34.3748 39.8117 34.3748 39.3334C34.3748 38.8551 33.9782 38.4584 33.4998 38.4584H32.3332C32.1698 38.4584 32.0415 38.3301 32.0415 38.1667V35.5417H34.6665C35.1448 35.5417 35.5415 35.1451 35.5415 34.6667C35.5415 34.1884 35.1448 33.7917 34.6665 33.7917Z" fill="white"/>
<path d="M39.3332 30.2917H34.6665C34.1882 30.2917 33.7915 30.6884 33.7915 31.1667C33.7915 31.6451 34.1882 32.0417 34.6665 32.0417H39.3332C39.8115 32.0417 40.2082 31.6451 40.2082 31.1667C40.2082 30.6884 39.8115 30.2917 39.3332 30.2917Z" fill="white"/>
<path d="M39.0649 34.6667C39.0649 34.1884 38.6683 33.7917 38.1899 33.7917H38.1783C37.6999 33.7917 37.3149 34.1884 37.3149 34.6667C37.3149 35.1451 37.7116 35.5417 38.1899 35.5417C38.6683 35.5417 39.0649 35.1451 39.0649 34.6667Z" fill="white"/>
</svg>
