<svg width="60" height="60" viewBox="0 0 60 60" fill="none" xmlns="http://www.w3.org/2000/svg">
<rect width="60" height="60" rx="30" fill="#1A1D22"/>
<path d="M40.1152 24.6218C40.0218 23.6768 39.2985 22.9184 38.3652 22.7901C37.1752 22.6268 36.0202 22.2768 34.9352 21.7634C33.6285 21.1451 32.4502 20.2934 31.4118 19.2318C30.6535 18.4501 29.3468 18.4501 28.5885 19.2318C27.5501 20.2934 26.3718 21.1451 25.0651 21.7634C23.9801 22.2768 22.8251 22.6268 21.6351 22.7901C20.7018 22.9184 19.9785 23.6768 19.8851 24.6218C19.6401 26.9901 19.5351 32.9984 23.6535 37.5018C25.2052 39.1934 27.1302 40.4418 29.3702 41.2118C29.5802 41.2818 29.7902 41.3168 30.0002 41.3168C30.2102 41.3168 30.4202 41.2818 30.6302 41.2118C32.8702 40.4418 34.7952 39.1934 36.3468 37.5018C40.4768 32.9984 40.3602 27.0018 40.1152 24.6218ZM35.0518 36.3118C33.6985 37.7934 32.0185 38.8784 29.9418 39.5551C27.9818 38.8784 26.3018 37.7934 24.9485 36.3118C21.3085 32.3334 21.4135 26.9318 21.6235 24.7968C21.6352 24.6451 21.7402 24.5401 21.8685 24.5168C23.2335 24.3301 24.5635 23.9334 25.8118 23.3384C27.3052 22.6268 28.6585 21.6584 29.8252 20.4451C29.8718 20.3984 29.9302 20.3751 29.9885 20.3751C30.0468 20.3751 30.1052 20.3984 30.1518 20.4451C31.3302 21.6584 32.6835 22.6268 34.1768 23.3384C35.4252 23.9334 36.7551 24.3301 38.1201 24.5168C38.2602 24.5401 38.3535 24.6451 38.3652 24.7968C38.5868 26.9318 38.6918 32.3451 35.0518 36.3118Z" fill="white"/>
<path d="M32.8003 27.1418L29.907 31.0035L28.2853 29.3818C27.947 29.0435 27.387 29.0435 27.0487 29.3818C26.7103 29.7202 26.7103 30.2802 27.0487 30.6185L29.382 32.9518C29.5453 33.1152 29.767 33.2085 30.0003 33.2085C30.0237 33.2085 30.047 33.2085 30.0587 33.2085C30.3153 33.1852 30.5487 33.0685 30.7003 32.8585L34.2003 28.1918C34.492 27.8068 34.4103 27.2585 34.0253 26.9668C33.6403 26.6752 33.092 26.7568 32.8003 27.1418Z" fill="white"/>
</svg>
