<svg width="60" height="60" viewBox="0 0 60 60" fill="none" xmlns="http://www.w3.org/2000/svg">
<rect width="60" height="60" rx="30" fill="#1A1D22"/>
<path d="M29.9998 32.0417C33.6982 32.0417 36.7082 29.0317 36.7082 25.3333C36.7082 21.635 33.6982 18.625 29.9998 18.625C26.3015 18.625 23.2915 21.635 23.2915 25.3333C23.2915 29.0317 26.3015 32.0417 29.9998 32.0417ZM29.9998 20.375C32.7298 20.375 34.9582 22.6033 34.9582 25.3333C34.9582 28.0633 32.7298 30.2917 29.9998 30.2917C27.2698 30.2917 25.0415 28.0633 25.0415 25.3333C25.0415 22.6033 27.2698 20.375 29.9998 20.375Z" fill="white"/>
<path d="M38.0034 33.4066C34.69 31.96 31.4234 32.7183 30 34.27C28.5884 32.7183 25.31 31.96 21.9967 33.4066C21.6 33.5816 21.39 34.0133 21.5067 34.4333C22.475 38.0266 25.275 40.1616 27.3984 40.1616C27.4684 40.1616 27.5267 40.1616 27.5967 40.1616C28.495 40.1033 29.3234 39.66 30 38.9133C30.6767 39.66 31.505 40.1033 32.4034 40.1616C32.4617 40.1616 32.5317 40.1616 32.6017 40.1616C34.725 40.1616 37.525 38.0266 38.4934 34.4333C38.61 34.0133 38.4 33.5816 38.0034 33.4066ZM28.9967 37.3966C28.6817 37.8633 28.1684 38.3766 27.4917 38.4116C26.3717 38.4583 24.3884 37.21 23.4434 34.725C25.975 33.9083 28.1917 34.6433 28.845 35.5766C29.2417 36.1366 29.1484 36.8483 28.9967 37.385V37.3966ZM32.52 38.4116C31.8434 38.365 31.33 37.8516 31.015 37.3966C30.8517 36.86 30.77 36.1366 31.1667 35.5883C31.82 34.6666 34.0367 33.92 36.5684 34.7366C35.6234 37.2216 33.71 38.4583 32.52 38.4233V38.4116Z" fill="white"/>
<path d="M28.8335 26.2084H31.1668C31.6452 26.2084 32.0418 25.8117 32.0418 25.3334C32.0418 24.855 31.6452 24.4584 31.1668 24.4584H28.8335C28.3552 24.4584 27.9585 24.855 27.9585 25.3334C27.9585 25.8117 28.3552 26.2084 28.8335 26.2084Z" fill="white"/>
</svg>
