<svg width="60" height="60" viewBox="0 0 60 60" fill="none" xmlns="http://www.w3.org/2000/svg">
<rect width="60" height="60" rx="30" fill="#1A1D22"/>
<path d="M40.0334 30.5249C40.2667 30.2099 40.2667 29.7899 40.0334 29.4749C36.4517 24.7033 31.0501 24.4583 30.0001 24.4583C24.0267 24.4583 20.5967 28.6349 19.9667 29.4749C19.7334 29.7899 19.7334 30.2099 19.9667 30.5249C23.5484 35.2966 28.9501 35.5416 30.0001 35.5416C35.9734 35.5416 39.4034 31.3649 40.0334 30.5249ZM30.0001 33.7916C29.4751 33.7916 24.9484 33.6866 21.7984 30.0116C22.8484 28.8333 25.6834 26.2083 30.0001 26.2083C30.5251 26.2083 35.0517 26.3133 38.2017 29.9883C37.1517 31.1666 34.3167 33.7916 30.0001 33.7916Z" fill="white"/>
<path d="M19.5 25.0417C19.9783 25.0417 20.375 24.645 20.375 24.1667V20.6667C20.375 20.5033 20.5033 20.375 20.6667 20.375H24.1667C24.645 20.375 25.0417 19.9783 25.0417 19.5C25.0417 19.0217 24.645 18.625 24.1667 18.625H20.6667C19.5467 18.625 18.625 19.5467 18.625 20.6667V24.1667C18.625 24.645 19.0217 25.0417 19.5 25.0417Z" fill="white"/>
<path d="M39.3333 18.625H35.8333C35.3549 18.625 34.9583 19.0217 34.9583 19.5C34.9583 19.9783 35.3549 20.375 35.8333 20.375H39.3333C39.4966 20.375 39.6249 20.5033 39.6249 20.6667V24.1667C39.6249 24.645 40.0216 25.0417 40.4999 25.0417C40.9783 25.0417 41.3749 24.645 41.3749 24.1667V20.6667C41.3749 19.5467 40.4533 18.625 39.3333 18.625Z" fill="white"/>
<path d="M24.1667 39.6249H20.6667C20.5033 39.6249 20.375 39.4966 20.375 39.3333V35.8333C20.375 35.3549 19.9783 34.9583 19.5 34.9583C19.0217 34.9583 18.625 35.3549 18.625 35.8333V39.3333C18.625 40.4533 19.5467 41.3749 20.6667 41.3749H24.1667C24.645 41.3749 25.0417 40.9783 25.0417 40.4999C25.0417 40.0216 24.645 39.6249 24.1667 39.6249Z" fill="white"/>
<path d="M40.4999 34.9583C40.0216 34.9583 39.6249 35.3549 39.6249 35.8333V39.3333C39.6249 39.4966 39.4966 39.6249 39.3333 39.6249H35.8333C35.3549 39.6249 34.9583 40.0216 34.9583 40.4999C34.9583 40.9783 35.3549 41.3749 35.8333 41.3749H39.3333C40.4533 41.3749 41.3749 40.4533 41.3749 39.3333V35.8333C41.3749 35.3549 40.9783 34.9583 40.4999 34.9583Z" fill="white"/>
<path d="M30 27.375C28.5533 27.375 27.375 28.5533 27.375 30C27.375 31.4467 28.5533 32.625 30 32.625C31.4467 32.625 32.625 31.4467 32.625 30C32.625 28.5533 31.4467 27.375 30 27.375ZM30 30.875C29.5217 30.875 29.125 30.4783 29.125 30C29.125 29.5217 29.5217 29.125 30 29.125C30.4783 29.125 30.875 29.5217 30.875 30C30.875 30.4783 30.4783 30.875 30 30.875Z" fill="white"/>
</svg>
