<svg width="60" height="60" viewBox="0 0 60 60" fill="none" xmlns="http://www.w3.org/2000/svg">
<rect width="60" height="60" rx="30" fill="#1A1D22"/>
<path d="M36.7784 19.6516C36.1134 19.3016 35.3201 19.3483 34.6901 19.7683L33.6517 20.48C33.5584 20.5383 33.4417 20.55 33.3484 20.48L31.1434 18.975C30.4551 18.4966 29.5567 18.4966 28.8684 18.975L26.6634 20.48C26.5701 20.5383 26.4534 20.5383 26.3601 20.48L25.3217 19.7683C24.7034 19.3483 23.8984 19.3016 23.2334 19.6516C22.5567 20.0133 22.1367 20.7133 22.1367 21.4833V38.505C22.1367 39.275 22.5567 39.9866 23.2334 40.3366C23.8984 40.6866 24.6917 40.64 25.3217 40.22L26.3601 39.5083C26.4534 39.45 26.5701 39.4383 26.6634 39.5083L28.8684 41.0133C29.2184 41.2466 29.6151 41.3633 30.0117 41.3633C30.4084 41.3633 30.8051 41.2466 31.1551 41.0133L33.3601 39.5083C33.4534 39.45 33.5701 39.45 33.6634 39.5083L34.7017 40.22C35.3201 40.64 36.1251 40.6866 36.7901 40.3366C37.4667 39.975 37.8867 39.275 37.8867 38.505V21.495C37.8867 20.725 37.4667 20.0133 36.7901 19.6633L36.7784 19.6516ZM36.1251 38.505C36.1251 38.68 36.0084 38.7616 35.9617 38.7966C35.8917 38.8316 35.7984 38.855 35.6817 38.785L34.6434 38.0733C33.9551 37.595 33.0567 37.595 32.3684 38.0733L30.1634 39.5783C30.0701 39.6366 29.9534 39.6483 29.8601 39.5783L27.6551 38.0733C27.3051 37.84 26.9084 37.7233 26.5117 37.7233C26.1151 37.7233 25.7184 37.84 25.3684 38.0733L24.3301 38.785C24.2134 38.8666 24.1201 38.8316 24.0501 38.7966C24.0034 38.7733 23.8867 38.6916 23.8867 38.505V21.495C23.8867 21.32 24.0034 21.2383 24.0501 21.2033C24.1201 21.1683 24.2134 21.145 24.3301 21.215L25.3684 21.9266C26.0567 22.405 26.9551 22.405 27.6434 21.9266L29.8484 20.4216C29.9417 20.3633 30.0584 20.3516 30.1517 20.4216L32.3567 21.9266C33.0451 22.405 33.9434 22.405 34.6317 21.9266L35.6701 21.215C35.7867 21.1333 35.8917 21.1683 35.9501 21.2033C35.9967 21.2266 36.1134 21.3083 36.1134 21.495V38.5166L36.1251 38.505Z" fill="white"/>
<path d="M32.3333 29.125H26.5C26.0217 29.125 25.625 29.5217 25.625 30C25.625 30.4783 26.0217 30.875 26.5 30.875H32.3333C32.8117 30.875 33.2083 30.4783 33.2083 30C33.2083 29.5217 32.8117 29.125 32.3333 29.125Z" fill="white"/>
<path d="M33.5 25.625H26.5C26.0217 25.625 25.625 26.0217 25.625 26.5C25.625 26.9783 26.0217 27.375 26.5 27.375H33.5C33.9783 27.375 34.375 26.9783 34.375 26.5C34.375 26.0217 33.9783 25.625 33.5 25.625Z" fill="white"/>
<path d="M30 32.625H26.5C26.0217 32.625 25.625 33.0217 25.625 33.5C25.625 33.9783 26.0217 34.375 26.5 34.375H30C30.4783 34.375 30.875 33.9783 30.875 33.5C30.875 33.0217 30.4783 32.625 30 32.625Z" fill="white"/>
</svg>
