<svg width="1140" height="542" viewBox="0 0 1140 542" fill="none" xmlns="http://www.w3.org/2000/svg">
<g clip-path="url(#clip0_5004_140)">
<rect width="1140" height="542" rx="40" fill="#1A1D22"/>
<path d="M175 338L259.5 453H471" stroke="white" stroke-opacity="0.6"/>
<path d="M967 140L925 191L762 191" stroke="white" stroke-opacity="0.6"/>
<path d="M967 375L925 324L762 324" stroke="white" stroke-opacity="0.6"/>
<path d="M285 115L460.5 114.5" stroke="white" stroke-opacity="0.6"/>
<g filter="url(#filter0_b_5004_140)">
<rect x="868" y="89" width="197" height="52" rx="26" fill="url(#paint0_linear_5004_140)" fill-opacity="0.8"/>
<rect x="868.5" y="89.5" width="196" height="51" rx="25.5" stroke="white"/>
<path d="M913.802 112.808H911.544C911.48 112.438 911.361 112.11 911.188 111.824C911.015 111.534 910.8 111.289 910.542 111.087C910.285 110.886 909.991 110.735 909.661 110.635C909.335 110.53 908.983 110.478 908.604 110.478C907.932 110.478 907.337 110.647 906.817 110.985C906.298 111.319 905.892 111.81 905.598 112.458C905.304 113.102 905.157 113.888 905.157 114.818C905.157 115.764 905.304 116.561 905.598 117.209C905.896 117.853 906.302 118.34 906.817 118.67C907.337 118.996 907.93 119.159 908.598 119.159C908.969 119.159 909.315 119.11 909.637 119.014C909.963 118.913 910.254 118.766 910.512 118.573C910.774 118.38 910.993 118.143 911.17 117.861C911.351 117.579 911.476 117.257 911.544 116.895L913.802 116.907C913.718 117.495 913.535 118.046 913.253 118.561C912.975 119.076 912.611 119.531 912.16 119.925C911.709 120.316 911.182 120.622 910.578 120.843C909.975 121.06 909.305 121.169 908.568 121.169C907.482 121.169 906.512 120.917 905.658 120.414C904.805 119.911 904.133 119.185 903.642 118.235C903.151 117.285 902.906 116.146 902.906 114.818C902.906 113.486 903.153 112.347 903.648 111.401C904.143 110.451 904.817 109.725 905.67 109.222C906.524 108.719 907.49 108.467 908.568 108.467C909.256 108.467 909.896 108.564 910.488 108.757C911.08 108.95 911.607 109.234 912.07 109.608C912.532 109.979 912.913 110.433 913.211 110.973C913.512 111.508 913.71 112.12 913.802 112.808ZM919.801 121.181C918.896 121.181 918.111 120.982 917.447 120.583C916.783 120.185 916.268 119.628 915.902 118.911C915.539 118.195 915.358 117.358 915.358 116.4C915.358 115.442 915.539 114.603 915.902 113.882C916.268 113.162 916.783 112.603 917.447 112.204C918.111 111.806 918.896 111.607 919.801 111.607C920.707 111.607 921.492 111.806 922.156 112.204C922.82 112.603 923.333 113.162 923.695 113.882C924.061 114.603 924.245 115.442 924.245 116.4C924.245 117.358 924.061 118.195 923.695 118.911C923.333 119.628 922.82 120.185 922.156 120.583C921.492 120.982 920.707 121.181 919.801 121.181ZM919.813 119.43C920.304 119.43 920.715 119.296 921.045 119.026C921.375 118.752 921.621 118.386 921.782 117.927C921.947 117.468 922.029 116.957 922.029 116.394C922.029 115.826 921.947 115.313 921.782 114.854C921.621 114.392 921.375 114.023 921.045 113.75C920.715 113.476 920.304 113.339 919.813 113.339C919.31 113.339 918.892 113.476 918.558 113.75C918.228 114.023 917.98 114.392 917.815 114.854C917.654 115.313 917.574 115.826 917.574 116.394C917.574 116.957 917.654 117.468 917.815 117.927C917.98 118.386 918.228 118.752 918.558 119.026C918.892 119.296 919.31 119.43 919.813 119.43ZM926.099 121V111.727H928.188V113.303H928.297C928.49 112.772 928.81 112.357 929.257 112.059C929.703 111.757 930.237 111.607 930.857 111.607C931.484 111.607 932.014 111.759 932.444 112.065C932.879 112.367 933.185 112.78 933.362 113.303H933.458C933.664 112.788 934.01 112.377 934.497 112.071C934.988 111.761 935.569 111.607 936.241 111.607C937.095 111.607 937.791 111.876 938.33 112.415C938.87 112.955 939.139 113.742 939.139 114.776V121H936.948V115.114C936.948 114.538 936.795 114.118 936.489 113.852C936.183 113.583 935.809 113.448 935.366 113.448C934.839 113.448 934.426 113.613 934.129 113.943C933.835 114.269 933.688 114.693 933.688 115.217V121H931.545V115.023C931.545 114.545 931.4 114.162 931.11 113.876C930.824 113.591 930.45 113.448 929.987 113.448C929.673 113.448 929.388 113.528 929.13 113.689C928.872 113.846 928.667 114.07 928.514 114.359C928.361 114.645 928.285 114.979 928.285 115.362V121H926.099ZM941.356 121V111.727H943.445V113.303H943.554C943.747 112.772 944.067 112.357 944.514 112.059C944.96 111.757 945.494 111.607 946.113 111.607C946.741 111.607 947.27 111.759 947.701 112.065C948.136 112.367 948.442 112.78 948.619 113.303H948.715C948.921 112.788 949.267 112.377 949.754 112.071C950.245 111.761 950.826 111.607 951.498 111.607C952.352 111.607 953.048 111.876 953.587 112.415C954.126 112.955 954.396 113.742 954.396 114.776V121H952.205V115.114C952.205 114.538 952.052 114.118 951.746 113.852C951.44 113.583 951.066 113.448 950.623 113.448C950.096 113.448 949.683 113.613 949.385 113.943C949.092 114.269 948.945 114.693 948.945 115.217V121H946.802V115.023C946.802 114.545 946.657 114.162 946.367 113.876C946.081 113.591 945.707 113.448 945.244 113.448C944.93 113.448 944.644 113.528 944.387 113.689C944.129 113.846 943.924 114.07 943.771 114.359C943.618 114.645 943.542 114.979 943.542 115.362V121H941.356ZM962.523 117.1V111.727H964.709V121H962.59V119.352H962.493C962.284 119.871 961.94 120.296 961.461 120.626C960.986 120.956 960.4 121.121 959.704 121.121C959.096 121.121 958.559 120.986 958.092 120.716C957.629 120.443 957.267 120.046 957.006 119.527C956.744 119.004 956.613 118.372 956.613 117.631V111.727H958.798V117.293C958.798 117.881 958.959 118.348 959.281 118.694C959.603 119.04 960.026 119.213 960.549 119.213C960.871 119.213 961.183 119.135 961.485 118.978C961.787 118.821 962.034 118.587 962.227 118.277C962.425 117.963 962.523 117.571 962.523 117.1ZM969.141 115.567V121H966.956V111.727H969.045V113.303H969.153C969.367 112.784 969.707 112.371 970.174 112.065C970.644 111.759 971.226 111.607 971.918 111.607C972.558 111.607 973.116 111.743 973.59 112.017C974.069 112.291 974.44 112.687 974.701 113.206C974.967 113.725 975.098 114.355 975.094 115.096V121H972.908V115.434C972.908 114.814 972.747 114.329 972.425 113.979C972.107 113.629 971.667 113.454 971.103 113.454C970.721 113.454 970.381 113.538 970.083 113.707C969.789 113.872 969.558 114.112 969.389 114.426C969.224 114.74 969.141 115.12 969.141 115.567ZM977.315 121V111.727H979.501V121H977.315ZM978.414 110.411C978.068 110.411 977.77 110.297 977.521 110.067C977.271 109.834 977.146 109.554 977.146 109.228C977.146 108.898 977.271 108.618 977.521 108.389C977.77 108.155 978.068 108.039 978.414 108.039C978.764 108.039 979.062 108.155 979.307 108.389C979.557 108.618 979.682 108.898 979.682 109.228C979.682 109.554 979.557 109.834 979.307 110.067C979.062 110.297 978.764 110.411 978.414 110.411ZM986.378 111.727V113.418H981.048V111.727H986.378ZM982.364 109.506H984.549V118.211C984.549 118.505 984.593 118.73 984.682 118.887C984.774 119.04 984.895 119.145 985.044 119.201C985.193 119.257 985.358 119.286 985.539 119.286C985.676 119.286 985.801 119.275 985.913 119.255C986.03 119.235 986.119 119.217 986.179 119.201L986.547 120.909C986.431 120.95 986.263 120.994 986.046 121.042C985.833 121.091 985.571 121.119 985.261 121.127C984.714 121.143 984.221 121.06 983.782 120.879C983.344 120.694 982.996 120.408 982.738 120.022C982.484 119.636 982.36 119.153 982.364 118.573V109.506ZM989.564 124.477C989.266 124.477 988.991 124.453 988.737 124.405C988.488 124.361 988.288 124.308 988.139 124.248L988.647 122.545C988.965 122.638 989.248 122.682 989.498 122.678C989.747 122.674 989.967 122.596 990.156 122.443C990.349 122.294 990.512 122.044 990.645 121.694L990.832 121.193L987.469 111.727H989.788L991.925 118.73H992.021L994.164 111.727H996.489L992.776 122.123C992.603 122.614 992.373 123.034 992.088 123.385C991.802 123.739 991.452 124.008 991.037 124.194C990.627 124.383 990.136 124.477 989.564 124.477ZM1008.04 108.636V121H1005.43V111.118H1005.35L1002.52 112.892V110.574L1005.58 108.636H1008.04ZM1010.79 118.827V116.768L1015.95 108.636H1017.73V111.486H1016.68L1013.42 116.635V116.732H1020.76V118.827H1010.79ZM1016.73 121V118.199L1016.77 117.287V108.636H1019.23V121H1016.73ZM1029.27 118.682V118.03C1029.27 117.535 1029.37 117.08 1029.58 116.665C1029.79 116.247 1030.1 115.913 1030.51 115.663C1030.91 115.41 1031.41 115.283 1031.99 115.283C1032.58 115.283 1033.08 115.408 1033.48 115.657C1033.89 115.907 1034.19 116.241 1034.4 116.659C1034.61 117.074 1034.71 117.531 1034.71 118.03V118.682C1034.71 119.177 1034.61 119.634 1034.4 120.052C1034.19 120.467 1033.88 120.799 1033.48 121.048C1033.07 121.302 1032.57 121.429 1031.99 121.429C1031.4 121.429 1030.9 121.302 1030.5 121.048C1030.1 120.799 1029.79 120.467 1029.58 120.052C1029.37 119.634 1029.27 119.177 1029.27 118.682ZM1031.02 118.03V118.682C1031.02 118.968 1031.09 119.237 1031.23 119.491C1031.37 119.744 1031.62 119.871 1031.99 119.871C1032.36 119.871 1032.61 119.746 1032.74 119.497C1032.88 119.247 1032.94 118.976 1032.94 118.682V118.03C1032.94 117.736 1032.88 117.462 1032.75 117.209C1032.62 116.955 1032.37 116.828 1031.99 116.828C1031.63 116.828 1031.38 116.955 1031.24 117.209C1031.09 117.462 1031.02 117.736 1031.02 118.03ZM1022.92 111.607V110.955C1022.92 110.455 1023.03 109.999 1023.24 109.584C1023.46 109.166 1023.76 108.832 1024.17 108.582C1024.57 108.333 1025.06 108.208 1025.64 108.208C1026.24 108.208 1026.73 108.333 1027.14 108.582C1027.54 108.832 1027.84 109.166 1028.05 109.584C1028.26 109.999 1028.37 110.455 1028.37 110.955V111.607C1028.37 112.106 1028.26 112.562 1028.05 112.977C1027.84 113.391 1027.53 113.723 1027.12 113.973C1026.72 114.219 1026.23 114.341 1025.64 114.341C1025.05 114.341 1024.55 114.217 1024.15 113.967C1023.75 113.713 1023.44 113.381 1023.23 112.971C1023.03 112.556 1022.92 112.102 1022.92 111.607ZM1024.69 110.955V111.607C1024.69 111.9 1024.76 112.172 1024.9 112.422C1025.04 112.671 1025.29 112.796 1025.64 112.796C1026.01 112.796 1026.26 112.671 1026.39 112.422C1026.53 112.172 1026.6 111.9 1026.6 111.607V110.955C1026.6 110.661 1026.53 110.387 1026.41 110.134C1026.28 109.88 1026.02 109.753 1025.64 109.753C1025.28 109.753 1025.03 109.882 1024.9 110.14C1024.76 110.397 1024.69 110.669 1024.69 110.955ZM1023.72 121L1032.22 108.636H1033.8L1025.3 121H1023.72Z" fill="white"/>
</g>
<g filter="url(#filter1_b_5004_140)">
<rect x="865" y="375" width="210" height="52" rx="26" fill="url(#paint1_linear_5004_140)" fill-opacity="0.8"/>
<rect x="865.5" y="375.5" width="209" height="51" rx="25.5" stroke="white"/>
<path d="M910.802 398.808H908.544C908.48 398.438 908.361 398.11 908.188 397.824C908.015 397.534 907.8 397.289 907.542 397.087C907.285 396.886 906.991 396.735 906.661 396.635C906.335 396.53 905.983 396.478 905.604 396.478C904.932 396.478 904.337 396.647 903.817 396.985C903.298 397.319 902.892 397.81 902.598 398.458C902.304 399.102 902.157 399.888 902.157 400.818C902.157 401.764 902.304 402.561 902.598 403.209C902.896 403.853 903.302 404.34 903.817 404.67C904.337 404.996 904.93 405.159 905.598 405.159C905.969 405.159 906.315 405.11 906.637 405.014C906.963 404.913 907.254 404.766 907.512 404.573C907.774 404.38 907.993 404.143 908.17 403.861C908.351 403.579 908.476 403.257 908.544 402.895L910.802 402.907C910.718 403.495 910.535 404.046 910.253 404.561C909.975 405.076 909.611 405.531 909.16 405.925C908.709 406.316 908.182 406.622 907.578 406.843C906.975 407.06 906.305 407.169 905.568 407.169C904.482 407.169 903.512 406.917 902.658 406.414C901.805 405.911 901.133 405.185 900.642 404.235C900.151 403.285 899.906 402.146 899.906 400.818C899.906 399.486 900.153 398.347 900.648 397.401C901.143 396.451 901.817 395.725 902.67 395.222C903.524 394.719 904.49 394.467 905.568 394.467C906.256 394.467 906.896 394.564 907.488 394.757C908.08 394.95 908.607 395.234 909.07 395.608C909.532 395.979 909.913 396.433 910.211 396.973C910.512 397.508 910.71 398.12 910.802 398.808ZM916.801 407.181C915.896 407.181 915.111 406.982 914.447 406.583C913.783 406.185 913.268 405.628 912.902 404.911C912.539 404.195 912.358 403.358 912.358 402.4C912.358 401.442 912.539 400.603 912.902 399.882C913.268 399.162 913.783 398.603 914.447 398.204C915.111 397.806 915.896 397.607 916.801 397.607C917.707 397.607 918.492 397.806 919.156 398.204C919.82 398.603 920.333 399.162 920.695 399.882C921.061 400.603 921.245 401.442 921.245 402.4C921.245 403.358 921.061 404.195 920.695 404.911C920.333 405.628 919.82 406.185 919.156 406.583C918.492 406.982 917.707 407.181 916.801 407.181ZM916.813 405.43C917.304 405.43 917.715 405.296 918.045 405.026C918.375 404.752 918.621 404.386 918.782 403.927C918.947 403.468 919.029 402.957 919.029 402.394C919.029 401.826 918.947 401.313 918.782 400.854C918.621 400.392 918.375 400.023 918.045 399.75C917.715 399.476 917.304 399.339 916.813 399.339C916.31 399.339 915.892 399.476 915.558 399.75C915.228 400.023 914.98 400.392 914.815 400.854C914.654 401.313 914.574 401.826 914.574 402.394C914.574 402.957 914.654 403.468 914.815 403.927C914.98 404.386 915.228 404.752 915.558 405.026C915.892 405.296 916.31 405.43 916.813 405.43ZM923.099 407V397.727H925.285V407H923.099ZM924.198 396.411C923.852 396.411 923.554 396.297 923.305 396.067C923.055 395.834 922.93 395.554 922.93 395.228C922.93 394.898 923.055 394.618 923.305 394.389C923.554 394.155 923.852 394.039 924.198 394.039C924.548 394.039 924.846 394.155 925.092 394.389C925.341 394.618 925.466 394.898 925.466 395.228C925.466 395.554 925.341 395.834 925.092 396.067C924.846 396.297 924.548 396.411 924.198 396.411ZM929.717 401.567V407H927.532V397.727H929.621V399.303H929.729C929.943 398.784 930.283 398.371 930.75 398.065C931.221 397.759 931.802 397.607 932.494 397.607C933.134 397.607 933.692 397.743 934.167 398.017C934.646 398.291 935.016 398.687 935.277 399.206C935.543 399.725 935.674 400.355 935.67 401.096V407H933.484V401.434C933.484 400.814 933.323 400.329 933.002 399.979C932.684 399.629 932.243 399.454 931.679 399.454C931.297 399.454 930.957 399.538 930.659 399.707C930.365 399.872 930.134 400.112 929.965 400.426C929.8 400.74 929.717 401.12 929.717 401.567ZM953.252 400.818C953.252 402.15 953.003 403.291 952.504 404.241C952.009 405.187 951.333 405.911 950.475 406.414C949.622 406.917 948.654 407.169 947.572 407.169C946.489 407.169 945.519 406.917 944.662 406.414C943.809 405.907 943.132 405.181 942.633 404.235C942.138 403.285 941.891 402.146 941.891 400.818C941.891 399.486 942.138 398.347 942.633 397.401C943.132 396.451 943.809 395.725 944.662 395.222C945.519 394.719 946.489 394.467 947.572 394.467C948.654 394.467 949.622 394.719 950.475 395.222C951.333 395.725 952.009 396.451 952.504 397.401C953.003 398.347 953.252 399.486 953.252 400.818ZM951.001 400.818C951.001 399.88 950.854 399.09 950.56 398.446C950.27 397.798 949.868 397.309 949.353 396.979C948.837 396.645 948.244 396.478 947.572 396.478C946.9 396.478 946.306 396.645 945.791 396.979C945.276 397.309 944.871 397.798 944.577 398.446C944.288 399.09 944.143 399.88 944.143 400.818C944.143 401.756 944.288 402.549 944.577 403.197C944.871 403.841 945.276 404.33 945.791 404.664C946.306 404.994 946.9 405.159 947.572 405.159C948.244 405.159 948.837 404.994 949.353 404.664C949.868 404.33 950.27 403.841 950.56 403.197C950.854 402.549 951.001 401.756 951.001 400.818ZM959.97 397.727V399.418H954.488V397.727H959.97ZM955.859 407V396.852C955.859 396.228 955.988 395.709 956.245 395.294C956.507 394.88 956.857 394.57 957.296 394.365C957.734 394.159 958.221 394.057 958.757 394.057C959.135 394.057 959.471 394.087 959.765 394.147C960.059 394.208 960.276 394.262 960.417 394.31L959.982 396.001C959.89 395.973 959.773 395.944 959.632 395.916C959.491 395.884 959.334 395.868 959.161 395.868C958.755 395.868 958.467 395.967 958.298 396.164C958.133 396.357 958.05 396.635 958.05 396.997V407H955.859ZM966.378 397.727V399.418H960.897V397.727H966.378ZM962.267 407V396.852C962.267 396.228 962.396 395.709 962.653 395.294C962.915 394.88 963.265 394.57 963.704 394.365C964.143 394.159 964.629 394.057 965.165 394.057C965.543 394.057 965.879 394.087 966.173 394.147C966.467 394.208 966.684 394.262 966.825 394.31L966.39 396.001C966.298 395.973 966.181 395.944 966.04 395.916C965.899 395.884 965.742 395.868 965.569 395.868C965.163 395.868 964.875 395.967 964.706 396.164C964.541 396.357 964.458 396.635 964.458 396.997V407H962.267ZM971.846 407.181C970.916 407.181 970.114 406.988 969.437 406.602C968.765 406.211 968.248 405.66 967.886 404.947C967.524 404.231 967.343 403.388 967.343 402.418C967.343 401.464 967.524 400.627 967.886 399.907C968.252 399.182 968.763 398.619 969.419 398.216C970.075 397.81 970.846 397.607 971.731 397.607C972.303 397.607 972.842 397.699 973.349 397.884C973.86 398.065 974.311 398.347 974.702 398.729C975.096 399.112 975.406 399.599 975.631 400.19C975.857 400.778 975.969 401.478 975.969 402.291V402.961H968.369V401.488H973.875C973.871 401.07 973.78 400.697 973.603 400.371C973.426 400.041 973.178 399.782 972.86 399.593C972.546 399.404 972.18 399.309 971.762 399.309C971.315 399.309 970.922 399.418 970.584 399.635C970.246 399.848 969.983 400.13 969.794 400.48C969.608 400.826 969.514 401.207 969.51 401.621V402.907C969.51 403.446 969.608 403.909 969.806 404.295C970.003 404.678 970.279 404.972 970.633 405.177C970.987 405.378 971.401 405.479 971.876 405.479C972.194 405.479 972.482 405.434 972.74 405.346C972.997 405.253 973.221 405.118 973.41 404.941C973.599 404.764 973.742 404.545 973.838 404.283L975.879 404.513C975.75 405.052 975.505 405.523 975.142 405.925C974.784 406.324 974.325 406.634 973.766 406.855C973.206 407.072 972.567 407.181 971.846 407.181ZM977.818 407V397.727H979.937V399.273H980.034C980.203 398.737 980.493 398.325 980.903 398.035C981.318 397.741 981.79 397.594 982.322 397.594C982.442 397.594 982.577 397.6 982.726 397.613C982.879 397.621 983.006 397.635 983.107 397.655V399.665C983.014 399.633 982.867 399.605 982.666 399.581C982.469 399.552 982.277 399.538 982.092 399.538C981.694 399.538 981.336 399.625 981.018 399.798C980.704 399.967 980.456 400.202 980.275 400.504C980.094 400.806 980.004 401.154 980.004 401.549V407H977.818ZM984.558 407V397.727H986.744V407H984.558ZM985.657 396.411C985.311 396.411 985.013 396.297 984.764 396.067C984.514 395.834 984.389 395.554 984.389 395.228C984.389 394.898 984.514 394.618 984.764 394.389C985.013 394.155 985.311 394.039 985.657 394.039C986.007 394.039 986.305 394.155 986.551 394.389C986.8 394.618 986.925 394.898 986.925 395.228C986.925 395.554 986.8 395.834 986.551 396.067C986.305 396.297 986.007 396.411 985.657 396.411ZM991.176 401.567V407H988.991V397.727H991.08V399.303H991.188C991.402 398.784 991.742 398.371 992.209 398.065C992.68 397.759 993.261 397.607 993.953 397.607C994.593 397.607 995.151 397.743 995.626 398.017C996.105 398.291 996.475 398.687 996.736 399.206C997.002 399.725 997.133 400.355 997.129 401.096V407H994.943V401.434C994.943 400.814 994.782 400.329 994.46 399.979C994.143 399.629 993.702 399.454 993.138 399.454C992.756 399.454 992.416 399.538 992.118 399.707C991.824 399.872 991.593 400.112 991.424 400.426C991.259 400.74 991.176 401.12 991.176 401.567ZM1003.38 410.67C1002.6 410.67 1001.92 410.564 1001.36 410.35C1000.8 410.141 1000.34 409.859 1000 409.505C999.66 409.151 999.423 408.759 999.29 408.328L1001.26 407.851C1001.35 408.032 1001.48 408.211 1001.64 408.388C1001.81 408.57 1002.04 408.719 1002.33 408.835C1002.62 408.956 1002.98 409.016 1003.42 409.016C1004.04 409.016 1004.55 408.865 1004.96 408.564C1005.37 408.266 1005.57 407.775 1005.57 407.091V405.334H1005.46C1005.35 405.559 1005.18 405.791 1004.96 406.028C1004.75 406.266 1004.47 406.465 1004.11 406.626C1003.76 406.787 1003.32 406.867 1002.79 406.867C1002.08 406.867 1001.43 406.7 1000.85 406.366C1000.28 406.028 999.819 405.525 999.477 404.857C999.139 404.185 998.97 403.344 998.97 402.333C998.97 401.315 999.139 400.456 999.477 399.756C999.819 399.051 1000.28 398.518 1000.86 398.156C1001.44 397.79 1002.09 397.607 1002.8 397.607C1003.34 397.607 1003.79 397.699 1004.14 397.884C1004.49 398.065 1004.77 398.285 1004.98 398.542C1005.19 398.796 1005.35 399.035 1005.46 399.261H1005.58V397.727H1007.74V407.151C1007.74 407.944 1007.55 408.6 1007.17 409.119C1006.79 409.638 1006.27 410.027 1005.62 410.284C1004.96 410.542 1004.22 410.67 1003.38 410.67ZM1003.4 405.153C1003.86 405.153 1004.26 405.04 1004.58 404.815C1004.91 404.589 1005.16 404.265 1005.33 403.843C1005.5 403.42 1005.58 402.913 1005.58 402.321C1005.58 401.738 1005.5 401.227 1005.33 400.788C1005.16 400.349 1004.92 400.009 1004.59 399.768C1004.27 399.522 1003.87 399.4 1003.4 399.4C1002.91 399.4 1002.51 399.526 1002.18 399.78C1001.86 400.033 1001.61 400.382 1001.45 400.824C1001.28 401.263 1001.2 401.762 1001.2 402.321C1001.2 402.889 1001.28 403.386 1001.45 403.812C1001.61 404.235 1001.86 404.565 1002.19 404.803C1002.52 405.036 1002.92 405.153 1003.4 405.153ZM1014.17 407V405.382L1018.46 401.174C1018.87 400.76 1019.21 400.392 1019.49 400.07C1019.76 399.748 1019.97 399.436 1020.1 399.134C1020.24 398.832 1020.31 398.51 1020.31 398.168C1020.31 397.778 1020.22 397.444 1020.04 397.166C1019.86 396.884 1019.62 396.667 1019.31 396.514C1019 396.361 1018.65 396.284 1018.26 396.284C1017.85 396.284 1017.49 396.369 1017.19 396.538C1016.88 396.703 1016.64 396.938 1016.47 397.244C1016.31 397.55 1016.23 397.914 1016.23 398.337H1014.1C1014.1 397.552 1014.27 396.87 1014.63 396.29C1014.99 395.711 1015.48 395.262 1016.11 394.944C1016.74 394.626 1017.47 394.467 1018.29 394.467C1019.11 394.467 1019.84 394.622 1020.47 394.932C1021.1 395.242 1021.59 395.667 1021.93 396.206C1022.28 396.745 1022.46 397.361 1022.46 398.053C1022.46 398.516 1022.37 398.971 1022.19 399.418C1022.01 399.864 1021.7 400.359 1021.26 400.903C1020.81 401.446 1020.19 402.104 1019.39 402.877L1017.26 405.044V405.129H1022.64V407H1014.17ZM1029.76 394.636V407H1027.52V396.816H1027.44L1024.55 398.663V396.61L1027.62 394.636H1029.76ZM1039.51 404.682V404.03C1039.51 403.551 1039.61 403.11 1039.81 402.708C1040.01 402.305 1040.31 401.981 1040.7 401.736C1041.09 401.49 1041.56 401.368 1042.12 401.368C1042.69 401.368 1043.17 401.49 1043.56 401.736C1043.94 401.977 1044.23 402.299 1044.43 402.702C1044.63 403.104 1044.73 403.547 1044.73 404.03V404.682C1044.73 405.161 1044.63 405.601 1044.43 406.004C1044.23 406.406 1043.93 406.73 1043.54 406.976C1043.16 407.221 1042.68 407.344 1042.12 407.344C1041.56 407.344 1041.08 407.221 1040.69 406.976C1040.3 406.73 1040 406.406 1039.8 406.004C1039.6 405.601 1039.51 405.161 1039.51 404.682ZM1041.08 404.03V404.682C1041.08 405 1041.16 405.292 1041.31 405.557C1041.46 405.823 1041.73 405.956 1042.12 405.956C1042.51 405.956 1042.78 405.825 1042.92 405.563C1043.07 405.298 1043.15 405.004 1043.15 404.682V404.03C1043.15 403.708 1043.07 403.414 1042.93 403.148C1042.79 402.879 1042.52 402.744 1042.12 402.744C1041.74 402.744 1041.47 402.879 1041.32 403.148C1041.16 403.414 1041.08 403.708 1041.08 404.03ZM1033.22 397.607V396.955C1033.22 396.472 1033.32 396.029 1033.53 395.626C1033.73 395.224 1034.03 394.902 1034.42 394.661C1034.81 394.415 1035.29 394.292 1035.84 394.292C1036.41 394.292 1036.89 394.415 1037.27 394.661C1037.66 394.902 1037.96 395.224 1038.15 395.626C1038.35 396.029 1038.45 396.472 1038.45 396.955V397.607C1038.45 398.089 1038.35 398.532 1038.15 398.935C1037.95 399.333 1037.66 399.653 1037.27 399.895C1036.87 400.136 1036.4 400.257 1035.84 400.257C1035.27 400.257 1034.79 400.136 1034.4 399.895C1034.02 399.653 1033.72 399.331 1033.52 398.929C1033.32 398.526 1033.22 398.085 1033.22 397.607ZM1034.81 396.955V397.607C1034.81 397.929 1034.88 398.222 1035.03 398.488C1035.18 398.75 1035.45 398.88 1035.84 398.88C1036.23 398.88 1036.49 398.75 1036.64 398.488C1036.79 398.222 1036.86 397.929 1036.86 397.607V396.955C1036.86 396.633 1036.79 396.339 1036.65 396.073C1036.51 395.804 1036.24 395.669 1035.84 395.669C1035.46 395.669 1035.19 395.804 1035.04 396.073C1034.88 396.343 1034.81 396.637 1034.81 396.955ZM1033.91 407L1042.41 394.636H1043.92L1035.42 407H1033.91Z" fill="white"/>
</g>
<g filter="url(#filter2_b_5004_140)">
<rect x="83" y="286" width="184" height="52" rx="26" fill="url(#paint2_linear_5004_140)" fill-opacity="0.8"/>
<rect x="83.5" y="286.5" width="183" height="51" rx="25.5" stroke="white"/>
<path d="M118.219 305.636H120.96L124.631 314.595H124.776L128.446 305.636H131.187V318H129.038V309.506H128.923L125.506 317.964H123.9L120.483 309.488H120.369V318H118.219V305.636ZM136.197 318.187C135.61 318.187 135.081 318.083 134.61 317.873C134.143 317.66 133.773 317.346 133.499 316.931C133.229 316.517 133.094 316.006 133.094 315.398C133.094 314.875 133.191 314.442 133.384 314.1C133.577 313.758 133.841 313.484 134.175 313.279C134.509 313.074 134.885 312.919 135.304 312.814C135.727 312.706 136.163 312.627 136.614 312.579C137.157 312.522 137.598 312.472 137.936 312.428C138.274 312.38 138.52 312.307 138.673 312.211C138.83 312.11 138.908 311.955 138.908 311.746V311.71C138.908 311.255 138.773 310.903 138.504 310.653C138.234 310.404 137.846 310.279 137.338 310.279C136.803 310.279 136.379 310.395 136.065 310.629C135.755 310.862 135.545 311.138 135.437 311.456L133.396 311.166C133.557 310.603 133.823 310.132 134.193 309.754C134.563 309.371 135.016 309.085 135.551 308.896C136.087 308.703 136.678 308.607 137.326 308.607C137.773 308.607 138.218 308.659 138.661 308.763C139.103 308.868 139.508 309.041 139.874 309.283C140.24 309.52 140.534 309.844 140.755 310.255C140.981 310.665 141.093 311.178 141.093 311.794V318H138.993V316.726H138.92C138.787 316.984 138.6 317.225 138.359 317.451C138.121 317.672 137.821 317.851 137.459 317.988C137.101 318.121 136.68 318.187 136.197 318.187ZM136.765 316.581C137.204 316.581 137.584 316.495 137.906 316.322C138.228 316.145 138.475 315.911 138.648 315.621C138.826 315.332 138.914 315.016 138.914 314.674V313.581C138.846 313.637 138.729 313.69 138.564 313.738C138.403 313.786 138.222 313.828 138.021 313.865C137.819 313.901 137.62 313.933 137.423 313.961C137.226 313.989 137.055 314.014 136.91 314.034C136.584 314.078 136.292 314.15 136.034 314.251C135.777 314.352 135.574 314.493 135.425 314.674C135.276 314.851 135.201 315.08 135.201 315.362C135.201 315.764 135.348 316.068 135.642 316.273C135.936 316.479 136.31 316.581 136.765 316.581ZM143.291 318V308.727H145.41V310.273H145.506C145.675 309.737 145.965 309.325 146.376 309.035C146.79 308.741 147.263 308.594 147.794 308.594C147.915 308.594 148.05 308.6 148.199 308.613C148.352 308.621 148.479 308.635 148.579 308.655V310.665C148.487 310.633 148.34 310.605 148.138 310.581C147.941 310.552 147.75 310.538 147.565 310.538C147.167 310.538 146.808 310.625 146.49 310.798C146.176 310.967 145.929 311.202 145.748 311.504C145.567 311.806 145.476 312.154 145.476 312.549V318H143.291ZM152.023 315.09L152.017 312.452H152.367L155.7 308.727H158.253L154.154 313.291H153.702L152.023 315.09ZM150.031 318V305.636H152.216V318H150.031ZM155.851 318L152.832 313.78L154.305 312.241L158.465 318H155.851ZM163.433 318.181C162.503 318.181 161.7 317.988 161.024 317.602C160.352 317.211 159.835 316.66 159.473 315.947C159.111 315.231 158.93 314.388 158.93 313.418C158.93 312.464 159.111 311.627 159.473 310.907C159.839 310.182 160.35 309.619 161.006 309.216C161.662 308.81 162.433 308.607 163.318 308.607C163.89 308.607 164.429 308.699 164.936 308.884C165.447 309.065 165.898 309.347 166.289 309.729C166.683 310.112 166.993 310.599 167.218 311.19C167.444 311.778 167.556 312.478 167.556 313.291V313.961H159.956V312.488H165.461C165.457 312.07 165.367 311.697 165.19 311.371C165.013 311.041 164.765 310.782 164.447 310.593C164.133 310.404 163.767 310.309 163.349 310.309C162.902 310.309 162.509 310.418 162.171 310.635C161.833 310.848 161.57 311.13 161.381 311.48C161.195 311.826 161.101 312.207 161.097 312.621V313.907C161.097 314.446 161.195 314.909 161.393 315.295C161.59 315.678 161.865 315.972 162.22 316.177C162.574 316.378 162.988 316.479 163.463 316.479C163.781 316.479 164.069 316.434 164.327 316.346C164.584 316.253 164.807 316.118 164.997 315.941C165.186 315.764 165.329 315.545 165.425 315.283L167.466 315.513C167.337 316.052 167.091 316.523 166.729 316.925C166.371 317.324 165.912 317.634 165.353 317.855C164.793 318.072 164.153 318.181 163.433 318.181ZM174.035 308.727V310.418H168.705V308.727H174.035ZM170.021 306.506H172.206V315.211C172.206 315.505 172.251 315.73 172.339 315.887C172.432 316.04 172.552 316.145 172.701 316.201C172.85 316.257 173.015 316.286 173.196 316.286C173.333 316.286 173.458 316.275 173.571 316.255C173.687 316.235 173.776 316.217 173.836 316.201L174.204 317.909C174.088 317.95 173.921 317.994 173.703 318.042C173.49 318.091 173.228 318.119 172.919 318.127C172.371 318.143 171.878 318.06 171.44 317.879C171.001 317.694 170.653 317.408 170.395 317.022C170.142 316.636 170.017 316.153 170.021 315.573V306.506ZM175.863 318V308.727H178.048V318H175.863ZM176.962 307.411C176.616 307.411 176.318 307.297 176.068 307.067C175.819 306.834 175.694 306.554 175.694 306.228C175.694 305.898 175.819 305.618 176.068 305.389C176.318 305.155 176.616 305.039 176.962 305.039C177.312 305.039 177.61 305.155 177.855 305.389C178.105 305.618 178.23 305.898 178.23 306.228C178.23 306.554 178.105 306.834 177.855 307.067C177.61 307.297 177.312 307.411 176.962 307.411ZM182.481 312.567V318H180.296V308.727H182.384V310.303H182.493C182.706 309.784 183.047 309.371 183.513 309.065C183.984 308.759 184.566 308.607 185.258 308.607C185.898 308.607 186.455 308.743 186.93 309.017C187.409 309.291 187.78 309.687 188.041 310.206C188.307 310.725 188.438 311.355 188.434 312.096V318H186.248V312.434C186.248 311.814 186.087 311.329 185.765 310.979C185.447 310.629 185.007 310.454 184.443 310.454C184.061 310.454 183.721 310.538 183.423 310.707C183.129 310.872 182.898 311.112 182.729 311.426C182.564 311.74 182.481 312.12 182.481 312.567ZM194.688 321.67C193.903 321.67 193.229 321.564 192.665 321.35C192.102 321.141 191.649 320.859 191.307 320.505C190.965 320.151 190.728 319.759 190.595 319.328L192.563 318.851C192.651 319.032 192.78 319.211 192.949 319.388C193.118 319.57 193.346 319.719 193.631 319.835C193.921 319.956 194.285 320.016 194.724 320.016C195.344 320.016 195.857 319.865 196.263 319.564C196.67 319.266 196.873 318.775 196.873 318.091V316.334H196.764C196.652 316.559 196.487 316.791 196.269 317.028C196.056 317.266 195.772 317.465 195.418 317.626C195.068 317.787 194.627 317.867 194.096 317.867C193.384 317.867 192.738 317.7 192.158 317.366C191.583 317.028 191.124 316.525 190.782 315.857C190.444 315.185 190.275 314.344 190.275 313.333C190.275 312.315 190.444 311.456 190.782 310.756C191.124 310.051 191.585 309.518 192.164 309.156C192.744 308.79 193.39 308.607 194.102 308.607C194.646 308.607 195.092 308.699 195.442 308.884C195.797 309.065 196.078 309.285 196.288 309.542C196.497 309.796 196.656 310.035 196.764 310.261H196.885V308.727H199.04V318.151C199.04 318.944 198.851 319.6 198.473 320.119C198.095 320.638 197.577 321.027 196.921 321.284C196.265 321.542 195.521 321.67 194.688 321.67ZM194.706 316.153C195.169 316.153 195.563 316.04 195.889 315.815C196.215 315.589 196.463 315.265 196.632 314.843C196.801 314.42 196.885 313.913 196.885 313.321C196.885 312.738 196.801 312.227 196.632 311.788C196.467 311.349 196.221 311.009 195.895 310.768C195.573 310.522 195.177 310.4 194.706 310.4C194.219 310.4 193.812 310.526 193.486 310.78C193.16 311.033 192.915 311.382 192.75 311.824C192.585 312.263 192.502 312.762 192.502 313.321C192.502 313.889 192.585 314.386 192.75 314.812C192.919 315.235 193.166 315.565 193.492 315.803C193.822 316.036 194.227 316.153 194.706 316.153ZM205.941 318V316.116L210.342 312.042C210.716 311.679 211.03 311.353 211.283 311.064C211.541 310.774 211.736 310.49 211.869 310.212C212.002 309.931 212.068 309.627 212.068 309.301C212.068 308.939 211.986 308.627 211.821 308.365C211.656 308.099 211.43 307.896 211.144 307.755C210.859 307.61 210.535 307.538 210.172 307.538C209.794 307.538 209.464 307.614 209.182 307.767C208.901 307.92 208.683 308.14 208.53 308.425C208.378 308.711 208.301 309.051 208.301 309.446H205.82C205.82 308.637 206.003 307.934 206.369 307.339C206.735 306.743 207.249 306.282 207.909 305.956C208.569 305.63 209.329 305.467 210.191 305.467C211.076 305.467 211.847 305.624 212.503 305.938C213.163 306.248 213.676 306.679 214.042 307.23C214.408 307.781 214.592 308.413 214.592 309.126C214.592 309.593 214.499 310.053 214.314 310.508C214.133 310.963 213.809 311.468 213.342 312.023C212.875 312.575 212.217 313.237 211.368 314.01L209.563 315.778V315.863H214.755V318H205.941ZM222.028 305.636V318H219.414V308.118H219.341L216.51 309.892V307.574L219.57 305.636H222.028ZM231.733 315.682V315.03C231.733 314.535 231.838 314.08 232.047 313.665C232.261 313.247 232.569 312.913 232.971 312.663C233.377 312.41 233.872 312.283 234.456 312.283C235.048 312.283 235.545 312.408 235.947 312.657C236.354 312.907 236.66 313.241 236.865 313.659C237.074 314.074 237.179 314.531 237.179 315.03V315.682C237.179 316.177 237.074 316.634 236.865 317.052C236.656 317.467 236.348 317.799 235.941 318.048C235.535 318.302 235.04 318.429 234.456 318.429C233.864 318.429 233.367 318.302 232.965 318.048C232.562 317.799 232.257 317.467 232.047 317.052C231.838 316.634 231.733 316.177 231.733 315.682ZM233.49 315.03V315.682C233.49 315.968 233.559 316.237 233.695 316.491C233.836 316.744 234.09 316.871 234.456 316.871C234.822 316.871 235.072 316.746 235.205 316.497C235.341 316.247 235.41 315.976 235.41 315.682V315.03C235.41 314.736 235.345 314.462 235.217 314.209C235.088 313.955 234.834 313.828 234.456 313.828C234.094 313.828 233.842 313.955 233.701 314.209C233.561 314.462 233.49 314.736 233.49 315.03ZM225.389 308.607V307.955C225.389 307.455 225.495 306.999 225.709 306.584C225.922 306.166 226.23 305.832 226.632 305.582C227.039 305.333 227.53 305.208 228.105 305.208C228.701 305.208 229.2 305.333 229.602 305.582C230.005 305.832 230.311 306.166 230.52 306.584C230.729 306.999 230.834 307.455 230.834 307.955V308.607C230.834 309.106 230.727 309.562 230.514 309.977C230.305 310.391 229.997 310.723 229.59 310.973C229.188 311.219 228.693 311.341 228.105 311.341C227.518 311.341 227.021 311.217 226.614 310.967C226.212 310.713 225.906 310.381 225.696 309.971C225.491 309.556 225.389 309.102 225.389 308.607ZM227.157 307.955V308.607C227.157 308.9 227.226 309.172 227.363 309.422C227.504 309.671 227.751 309.796 228.105 309.796C228.475 309.796 228.727 309.671 228.86 309.422C228.997 309.172 229.065 308.9 229.065 308.607V307.955C229.065 307.661 229.001 307.387 228.872 307.134C228.743 306.88 228.488 306.753 228.105 306.753C227.747 306.753 227.499 306.882 227.363 307.14C227.226 307.397 227.157 307.669 227.157 307.955ZM226.185 318L234.685 305.636H236.267L227.767 318H226.185Z" fill="white"/>
</g>
<g clip-path="url(#clip1_5004_140)">
<path d="M570.028 271.015L733.363 107.68C782.038 156.355 806.464 224.207 799.982 292.742L570.028 271.015Z" fill="#36393D"/>
<path d="M570.029 271.015L799.982 292.741C790.054 397.717 710.297 482.65 606.151 499.15L570.029 271.015Z" fill="#7F01FF"/>
<path d="M570.028 271.015L606.151 499.149C502.005 515.649 399.913 459.527 358.041 362.758L570.028 271.015Z" fill="#1A1D22"/>
<path d="M570.028 271.015L358.041 362.758C307.384 245.686 361.228 109.705 478.305 59.0368C565.259 21.405 666.372 40.6886 733.363 107.68L570.028 271.015Z" fill="#8A29FC"/>
</g>
<rect x="570" y="-54.976" width="461" height="461" rx="230.5" transform="rotate(45 570 -54.976)" stroke="#65686C"/>
<g filter="url(#filter3_b_5004_140)">
<rect x="44" y="89" width="242" height="52" rx="26" fill="url(#paint3_linear_5004_140)" fill-opacity="0.8"/>
<rect x="44.5" y="89.5" width="241" height="51" rx="25.5" stroke="white"/>
<path d="M78.6761 110.514V108.636H88.5405V110.514H84.7191V121H82.4975V110.514H78.6761ZM93.0455 121.181C92.14 121.181 91.3552 120.982 90.6911 120.583C90.0271 120.185 89.5119 119.628 89.1457 118.911C88.7835 118.195 88.6024 117.358 88.6024 116.4C88.6024 115.442 88.7835 114.603 89.1457 113.882C89.5119 113.162 90.0271 112.603 90.6911 112.204C91.3552 111.806 92.14 111.607 93.0455 111.607C93.9511 111.607 94.7359 111.806 95.3999 112.204C96.064 112.603 96.5771 113.162 96.9394 113.882C97.3056 114.603 97.4887 115.442 97.4887 116.4C97.4887 117.358 97.3056 118.195 96.9394 118.911C96.5771 119.628 96.064 120.185 95.3999 120.583C94.7359 120.982 93.9511 121.181 93.0455 121.181ZM93.0576 119.43C93.5486 119.43 93.9591 119.296 94.2892 119.026C94.6192 118.752 94.8647 118.386 95.0257 117.927C95.1907 117.468 95.2732 116.957 95.2732 116.394C95.2732 115.826 95.1907 115.313 95.0257 114.854C94.8647 114.392 94.6192 114.023 94.2892 113.75C93.9591 113.476 93.5486 113.339 93.0576 113.339C92.5545 113.339 92.136 113.476 91.8019 113.75C91.4719 114.023 91.2244 114.392 91.0594 114.854C90.8984 115.313 90.8179 115.826 90.8179 116.394C90.8179 116.957 90.8984 117.468 91.0594 117.927C91.2244 118.386 91.4719 118.752 91.8019 119.026C92.136 119.296 92.5545 119.43 93.0576 119.43ZM101.336 118.09L101.33 115.452H101.68L105.012 111.727H107.566L103.467 116.291H103.014L101.336 118.09ZM99.3436 121V108.636H101.529V121H99.3436ZM105.163 121L102.145 116.78L103.618 115.241L107.777 121H105.163ZM112.746 121.181C111.816 121.181 111.013 120.988 110.337 120.602C109.665 120.211 109.148 119.66 108.785 118.947C108.423 118.231 108.242 117.388 108.242 116.418C108.242 115.464 108.423 114.627 108.785 113.907C109.152 113.182 109.663 112.619 110.319 112.216C110.975 111.81 111.745 111.607 112.631 111.607C113.202 111.607 113.742 111.699 114.249 111.884C114.76 112.065 115.211 112.347 115.601 112.729C115.995 113.112 116.305 113.599 116.531 114.19C116.756 114.778 116.869 115.478 116.869 116.291V116.961H109.268V115.488H114.774C114.77 115.07 114.679 114.697 114.502 114.371C114.325 114.041 114.078 113.782 113.76 113.593C113.446 113.404 113.08 113.309 112.661 113.309C112.214 113.309 111.822 113.418 111.484 113.635C111.146 113.848 110.882 114.13 110.693 114.48C110.508 114.826 110.413 115.207 110.409 115.621V116.907C110.409 117.446 110.508 117.909 110.705 118.295C110.902 118.678 111.178 118.972 111.532 119.177C111.886 119.378 112.301 119.479 112.776 119.479C113.094 119.479 113.381 119.434 113.639 119.346C113.897 119.253 114.12 119.118 114.309 118.941C114.498 118.764 114.641 118.545 114.738 118.283L116.778 118.513C116.649 119.052 116.404 119.523 116.042 119.925C115.684 120.324 115.225 120.634 114.665 120.855C114.106 121.072 113.466 121.181 112.746 121.181ZM120.903 115.567V121H118.718V111.727H120.806V113.303H120.915C121.128 112.784 121.468 112.371 121.935 112.065C122.406 111.759 122.988 111.607 123.68 111.607C124.32 111.607 124.877 111.743 125.352 112.017C125.831 112.291 126.201 112.687 126.463 113.206C126.729 113.725 126.859 114.355 126.855 115.096V121H124.67V115.434C124.67 114.814 124.509 114.329 124.187 113.979C123.869 113.629 123.428 113.454 122.865 113.454C122.483 113.454 122.143 113.538 121.845 113.707C121.551 113.872 121.32 114.112 121.15 114.426C120.985 114.74 120.903 115.12 120.903 115.567ZM134.978 121H132.587L136.94 108.636H139.705L144.064 121H141.673L138.371 111.172H138.274L134.978 121ZM135.057 116.152H141.576V117.951H135.057V116.152ZM147.781 108.636V121H145.596V108.636H147.781ZM152.214 108.636V121H150.028V108.636H152.214ZM158.506 121.181C157.6 121.181 156.815 120.982 156.151 120.583C155.487 120.185 154.972 119.628 154.606 118.911C154.243 118.195 154.062 117.358 154.062 116.4C154.062 115.442 154.243 114.603 154.606 113.882C154.972 113.162 155.487 112.603 156.151 112.204C156.815 111.806 157.6 111.607 158.506 111.607C159.411 111.607 160.196 111.806 160.86 112.204C161.524 112.603 162.037 113.162 162.399 113.882C162.766 114.603 162.949 115.442 162.949 116.4C162.949 117.358 162.766 118.195 162.399 118.911C162.037 119.628 161.524 120.185 160.86 120.583C160.196 120.982 159.411 121.181 158.506 121.181ZM158.518 119.43C159.009 119.43 159.419 119.296 159.749 119.026C160.079 118.752 160.325 118.386 160.486 117.927C160.651 117.468 160.733 116.957 160.733 116.394C160.733 115.826 160.651 115.313 160.486 114.854C160.325 114.392 160.079 114.023 159.749 113.75C159.419 113.476 159.009 113.339 158.518 113.339C158.015 113.339 157.596 113.476 157.262 113.75C156.932 114.023 156.684 114.392 156.519 114.854C156.358 115.313 156.278 115.826 156.278 116.394C156.278 116.957 156.358 117.468 156.519 117.927C156.684 118.386 156.932 118.752 157.262 119.026C157.596 119.296 158.015 119.43 158.518 119.43ZM168.848 121.181C167.923 121.181 167.128 120.978 166.464 120.571C165.804 120.165 165.295 119.603 164.936 118.887C164.582 118.167 164.405 117.338 164.405 116.4C164.405 115.458 164.586 114.627 164.948 113.907C165.311 113.182 165.822 112.619 166.482 112.216C167.146 111.81 167.931 111.607 168.836 111.607C169.589 111.607 170.255 111.745 170.834 112.023C171.418 112.297 171.883 112.685 172.229 113.188C172.575 113.687 172.772 114.271 172.821 114.939H170.732C170.647 114.492 170.446 114.12 170.128 113.822C169.814 113.52 169.394 113.369 168.866 113.369C168.42 113.369 168.027 113.49 167.689 113.732C167.351 113.969 167.088 114.311 166.898 114.758C166.713 115.205 166.621 115.74 166.621 116.364C166.621 116.996 166.713 117.539 166.898 117.994C167.083 118.444 167.343 118.792 167.677 119.038C168.015 119.279 168.412 119.4 168.866 119.4C169.188 119.4 169.476 119.34 169.73 119.219C169.987 119.094 170.203 118.915 170.376 118.682C170.549 118.448 170.667 118.165 170.732 117.831H172.821C172.768 118.487 172.575 119.068 172.241 119.575C171.907 120.078 171.452 120.473 170.877 120.759C170.301 121.04 169.625 121.181 168.848 121.181ZM177.283 121.187C176.696 121.187 176.167 121.083 175.696 120.873C175.229 120.66 174.859 120.346 174.585 119.931C174.315 119.517 174.18 119.006 174.18 118.398C174.18 117.875 174.277 117.442 174.47 117.1C174.663 116.758 174.927 116.484 175.261 116.279C175.595 116.074 175.971 115.919 176.39 115.814C176.813 115.706 177.249 115.627 177.7 115.579C178.243 115.522 178.684 115.472 179.022 115.428C179.36 115.38 179.606 115.307 179.759 115.211C179.915 115.11 179.994 114.955 179.994 114.746V114.71C179.994 114.255 179.859 113.903 179.589 113.653C179.32 113.404 178.931 113.279 178.424 113.279C177.889 113.279 177.464 113.395 177.151 113.629C176.841 113.862 176.631 114.138 176.523 114.456L174.482 114.166C174.643 113.603 174.909 113.132 175.279 112.754C175.649 112.371 176.102 112.085 176.637 111.896C177.173 111.703 177.764 111.607 178.412 111.607C178.859 111.607 179.304 111.659 179.746 111.763C180.189 111.868 180.594 112.041 180.96 112.283C181.326 112.52 181.62 112.844 181.841 113.255C182.067 113.665 182.179 114.178 182.179 114.794V121H180.078V119.726H180.006C179.873 119.984 179.686 120.225 179.445 120.451C179.207 120.672 178.907 120.851 178.545 120.988C178.187 121.121 177.766 121.187 177.283 121.187ZM177.851 119.581C178.29 119.581 178.67 119.495 178.992 119.322C179.314 119.145 179.561 118.911 179.734 118.621C179.911 118.332 180 118.016 180 117.674V116.581C179.932 116.637 179.815 116.69 179.65 116.738C179.489 116.786 179.308 116.828 179.107 116.865C178.905 116.901 178.706 116.933 178.509 116.961C178.312 116.989 178.141 117.014 177.996 117.034C177.67 117.078 177.378 117.15 177.12 117.251C176.863 117.352 176.66 117.493 176.511 117.674C176.362 117.851 176.287 118.08 176.287 118.362C176.287 118.764 176.434 119.068 176.728 119.273C177.022 119.479 177.396 119.581 177.851 119.581ZM189.007 111.727V113.418H183.676V111.727H189.007ZM184.993 109.506H187.178V118.211C187.178 118.505 187.222 118.73 187.311 118.887C187.403 119.04 187.524 119.145 187.673 119.201C187.822 119.257 187.987 119.286 188.168 119.286C188.305 119.286 188.43 119.275 188.542 119.255C188.659 119.235 188.748 119.217 188.808 119.201L189.176 120.909C189.059 120.95 188.892 120.994 188.675 121.042C188.462 121.091 188.2 121.119 187.89 121.127C187.343 121.143 186.85 121.06 186.411 120.879C185.973 120.694 185.624 120.408 185.367 120.022C185.113 119.636 184.989 119.153 184.993 118.573V109.506ZM190.835 121V111.727H193.02V121H190.835ZM191.934 110.411C191.587 110.411 191.29 110.297 191.04 110.067C190.791 109.834 190.666 109.554 190.666 109.228C190.666 108.898 190.791 108.618 191.04 108.389C191.29 108.155 191.587 108.039 191.934 108.039C192.284 108.039 192.581 108.155 192.827 108.389C193.076 108.618 193.201 108.898 193.201 109.228C193.201 109.554 193.076 109.834 192.827 110.067C192.581 110.297 192.284 110.411 191.934 110.411ZM199.312 121.181C198.407 121.181 197.622 120.982 196.958 120.583C196.294 120.185 195.779 119.628 195.412 118.911C195.05 118.195 194.869 117.358 194.869 116.4C194.869 115.442 195.05 114.603 195.412 113.882C195.779 113.162 196.294 112.603 196.958 112.204C197.622 111.806 198.407 111.607 199.312 111.607C200.218 111.607 201.002 111.806 201.667 112.204C202.331 112.603 202.844 113.162 203.206 113.882C203.572 114.603 203.755 115.442 203.755 116.4C203.755 117.358 203.572 118.195 203.206 118.911C202.844 119.628 202.331 120.185 201.667 120.583C201.002 120.982 200.218 121.181 199.312 121.181ZM199.324 119.43C199.815 119.43 200.226 119.296 200.556 119.026C200.886 118.752 201.131 118.386 201.292 117.927C201.457 117.468 201.54 116.957 201.54 116.394C201.54 115.826 201.457 115.313 201.292 114.854C201.131 114.392 200.886 114.023 200.556 113.75C200.226 113.476 199.815 113.339 199.324 113.339C198.821 113.339 198.403 113.476 198.069 113.75C197.739 114.023 197.491 114.392 197.326 114.854C197.165 115.313 197.085 115.826 197.085 116.394C197.085 116.957 197.165 117.468 197.326 117.927C197.491 118.386 197.739 118.752 198.069 119.026C198.403 119.296 198.821 119.43 199.324 119.43ZM207.796 115.567V121H205.61V111.727H207.699V113.303H207.808C208.021 112.784 208.361 112.371 208.828 112.065C209.299 111.759 209.88 111.607 210.573 111.607C211.212 111.607 211.77 111.743 212.245 112.017C212.724 112.291 213.094 112.687 213.356 113.206C213.621 113.725 213.752 114.355 213.748 115.096V121H211.563V115.434C211.563 114.814 211.402 114.329 211.08 113.979C210.762 113.629 210.321 113.454 209.758 113.454C209.375 113.454 209.035 113.538 208.737 113.707C208.444 113.872 208.212 114.112 208.043 114.426C207.878 114.74 207.796 115.12 207.796 115.567ZM220.443 118.827V116.768L225.604 108.636H227.379V111.486H226.329L223.075 116.635V116.732H230.41V118.827H220.443ZM226.377 121V118.199L226.426 117.287V108.636H228.877V121H226.377ZM231.964 118.827V116.768L237.126 108.636H238.901V111.486H237.85L234.597 116.635V116.732H241.931V118.827H231.964ZM237.899 121V118.199L237.947 117.287V108.636H240.398V121H237.899ZM250.44 118.682V118.03C250.44 117.535 250.545 117.08 250.754 116.665C250.968 116.247 251.276 115.913 251.678 115.663C252.084 115.41 252.58 115.283 253.163 115.283C253.755 115.283 254.252 115.408 254.654 115.657C255.061 115.907 255.367 116.241 255.572 116.659C255.781 117.074 255.886 117.531 255.886 118.03V118.682C255.886 119.177 255.781 119.634 255.572 120.052C255.363 120.467 255.055 120.799 254.648 121.048C254.242 121.302 253.747 121.429 253.163 121.429C252.571 121.429 252.074 121.302 251.672 121.048C251.27 120.799 250.964 120.467 250.754 120.052C250.545 119.634 250.44 119.177 250.44 118.682ZM252.197 118.03V118.682C252.197 118.968 252.266 119.237 252.402 119.491C252.543 119.744 252.797 119.871 253.163 119.871C253.529 119.871 253.779 119.746 253.912 119.497C254.049 119.247 254.117 118.976 254.117 118.682V118.03C254.117 117.736 254.053 117.462 253.924 117.209C253.795 116.955 253.541 116.828 253.163 116.828C252.801 116.828 252.549 116.955 252.408 117.209C252.268 117.462 252.197 117.736 252.197 118.03ZM244.096 111.607V110.955C244.096 110.455 244.202 109.999 244.416 109.584C244.629 109.166 244.937 108.832 245.339 108.582C245.746 108.333 246.237 108.208 246.812 108.208C247.408 108.208 247.907 108.333 248.309 108.582C248.712 108.832 249.018 109.166 249.227 109.584C249.436 109.999 249.541 110.455 249.541 110.955V111.607C249.541 112.106 249.434 112.562 249.221 112.977C249.012 113.391 248.704 113.723 248.297 113.973C247.895 114.219 247.4 114.341 246.812 114.341C246.225 114.341 245.728 114.217 245.321 113.967C244.919 113.713 244.613 113.381 244.403 112.971C244.198 112.556 244.096 112.102 244.096 111.607ZM245.864 110.955V111.607C245.864 111.9 245.933 112.172 246.07 112.422C246.211 112.671 246.458 112.796 246.812 112.796C247.182 112.796 247.434 112.671 247.567 112.422C247.704 112.172 247.772 111.9 247.772 111.607V110.955C247.772 110.661 247.708 110.387 247.579 110.134C247.45 109.88 247.195 109.753 246.812 109.753C246.454 109.753 246.207 109.882 246.07 110.14C245.933 110.397 245.864 110.669 245.864 110.955ZM244.892 121L253.392 108.636H254.974L246.474 121H244.892Z" fill="white"/>
</g>
</g>
<defs>
<filter id="filter0_b_5004_140" x="867" y="88" width="199" height="54" filterUnits="userSpaceOnUse" color-interpolation-filters="sRGB">
<feFlood flood-opacity="0" result="BackgroundImageFix"/>
<feGaussianBlur in="BackgroundImageFix" stdDeviation="0.5"/>
<feComposite in2="SourceAlpha" operator="in" result="effect1_backgroundBlur_5004_140"/>
<feBlend mode="normal" in="SourceGraphic" in2="effect1_backgroundBlur_5004_140" result="shape"/>
</filter>
<filter id="filter1_b_5004_140" x="864" y="374" width="212" height="54" filterUnits="userSpaceOnUse" color-interpolation-filters="sRGB">
<feFlood flood-opacity="0" result="BackgroundImageFix"/>
<feGaussianBlur in="BackgroundImageFix" stdDeviation="0.5"/>
<feComposite in2="SourceAlpha" operator="in" result="effect1_backgroundBlur_5004_140"/>
<feBlend mode="normal" in="SourceGraphic" in2="effect1_backgroundBlur_5004_140" result="shape"/>
</filter>
<filter id="filter2_b_5004_140" x="82" y="285" width="186" height="54" filterUnits="userSpaceOnUse" color-interpolation-filters="sRGB">
<feFlood flood-opacity="0" result="BackgroundImageFix"/>
<feGaussianBlur in="BackgroundImageFix" stdDeviation="0.5"/>
<feComposite in2="SourceAlpha" operator="in" result="effect1_backgroundBlur_5004_140"/>
<feBlend mode="normal" in="SourceGraphic" in2="effect1_backgroundBlur_5004_140" result="shape"/>
</filter>
<filter id="filter3_b_5004_140" x="43" y="88" width="244" height="54" filterUnits="userSpaceOnUse" color-interpolation-filters="sRGB">
<feFlood flood-opacity="0" result="BackgroundImageFix"/>
<feGaussianBlur in="BackgroundImageFix" stdDeviation="0.5"/>
<feComposite in2="SourceAlpha" operator="in" result="effect1_backgroundBlur_5004_140"/>
<feBlend mode="normal" in="SourceGraphic" in2="effect1_backgroundBlur_5004_140" result="shape"/>
</filter>
<linearGradient id="paint0_linear_5004_140" x1="845.614" y1="115" x2="1073.95" y2="115" gradientUnits="userSpaceOnUse">
<stop stop-color="#91ADBA"/>
<stop offset="1" stop-color="#205166" stop-opacity="0.12"/>
</linearGradient>
<linearGradient id="paint1_linear_5004_140" x1="841.136" y1="401" x2="1084.55" y2="401" gradientUnits="userSpaceOnUse">
<stop stop-color="#91ADBA"/>
<stop offset="1" stop-color="#205166" stop-opacity="0.12"/>
</linearGradient>
<linearGradient id="paint2_linear_5004_140" x1="62.0909" y1="312" x2="275.364" y2="312" gradientUnits="userSpaceOnUse">
<stop stop-color="#91ADBA"/>
<stop offset="1" stop-color="#205166" stop-opacity="0.12"/>
</linearGradient>
<linearGradient id="paint3_linear_5004_140" x1="16.5" y1="115" x2="297" y2="115" gradientUnits="userSpaceOnUse">
<stop stop-color="#91ADBA"/>
<stop offset="1" stop-color="#205166" stop-opacity="0.12"/>
</linearGradient>
<clipPath id="clip0_5004_140">
<rect width="1140" height="542" rx="40" fill="white"/>
</clipPath>
<clipPath id="clip1_5004_140">
<rect x="570" y="-55.6831" width="462" height="462" rx="231" transform="rotate(45 570 -55.6831)" fill="white"/>
</clipPath>
</defs>
</svg>
