<svg width="105" height="40" viewBox="0 0 105 40" fill="none" xmlns="http://www.w3.org/2000/svg">
<g clip-path="url(#clip0_1059_2740)">
<path d="M48.1326 35.238H50.867V24.9237H48.1326V35.238ZM48.1326 23.3152H50.867V20.8623H48.1326V23.3152Z" fill="#CDCDCD"/>
<path d="M52.6289 38.6157H55.3633V34.0718H55.4036C55.9866 34.9564 56.9316 35.5395 58.3792 35.5395C61.0332 35.5395 62.8427 33.4284 62.8427 30.0908C62.8427 26.8738 61.0935 24.6421 58.3591 24.6421C56.9517 24.6421 55.9866 25.3056 55.3231 26.2103H55.2628V24.9236H52.6289V38.6157ZM57.7962 33.2675C56.1676 33.2675 55.303 32.0411 55.303 30.1712C55.303 28.3215 55.9866 26.8537 57.6956 26.8537C59.3845 26.8537 60.0681 28.2209 60.0681 30.1712C60.0681 32.1215 59.1835 33.2675 57.7962 33.2675Z" fill="#CDCDCD"/>
<path d="M68.2972 35.5395C70.8707 35.5395 72.64 34.2929 72.64 32.222C72.64 29.8093 70.73 29.3268 69.0009 28.9649C67.5331 28.6633 66.1659 28.5828 66.1659 27.6982C66.1659 26.9543 66.8696 26.5521 67.9353 26.5521C69.1014 26.5521 69.8051 26.9543 69.9257 28.0601H72.3988C72.1977 25.9892 70.6898 24.6421 67.9755 24.6421C65.6231 24.6421 63.7733 25.7077 63.7733 27.9394C63.7733 30.1913 65.5829 30.694 67.4326 31.0559C68.84 31.3373 70.1469 31.4379 70.1469 32.4231C70.1469 33.1469 69.4633 33.6093 68.2569 33.6093C67.0305 33.6093 66.186 33.0866 66.0051 31.9003H63.4717C63.6326 34.0919 65.3014 35.5395 68.2972 35.5395Z" fill="#CDCDCD"/>
<path d="M83.0218 35.2381V24.9238H80.2874V30.8751C80.2874 32.2423 79.5033 33.2074 78.2165 33.2074C77.0504 33.2074 76.5075 32.5439 76.5075 31.3375V24.9238H73.7932V31.8C73.7932 34.0518 75.08 35.5196 77.3721 35.5196C78.8197 35.5196 79.6239 34.9767 80.3277 34.0317H80.388V35.2381H83.0218Z" fill="#CDCDCD"/>
<path d="M84.7905 35.2379H87.525V29.2463C87.525 27.8791 88.2689 26.9945 89.3747 26.9945C90.38 26.9945 90.9631 27.5976 90.9631 28.7638V35.2379H93.6975V29.2463C93.6975 27.8791 94.4012 26.9945 95.5472 26.9945C96.5525 26.9945 97.1356 27.5976 97.1356 28.7638V35.2379H99.87V28.3014C99.87 26.0495 98.6435 24.6421 96.4721 24.6421C95.1652 24.6421 94.0795 25.3257 93.3758 26.4516H93.3356C92.8329 25.3659 91.7874 24.6421 90.4805 24.6421C89.053 24.6421 88.0477 25.3659 87.4847 26.3109H87.4244V24.9236H84.7905V35.2379Z" fill="#CDCDCD"/>
<path d="M48.1729 17.572H50.9072V3.19629H48.1729V17.572Z" fill="#CDCDCD"/>
<path d="M57.5932 17.8735C60.7901 17.8735 62.9816 15.501 62.9816 12.4248C62.9816 9.34856 60.7901 6.97607 57.5932 6.97607C54.3964 6.97607 52.2048 9.34856 52.2048 12.4248C52.2048 15.501 54.3964 17.8735 57.5932 17.8735ZM57.5932 15.7825C55.9043 15.7825 54.9795 14.4354 54.9795 12.4248C54.9795 10.4142 55.9043 9.04698 57.5932 9.04698C59.262 9.04698 60.207 10.4142 60.207 12.4248C60.207 14.4354 59.262 15.7825 57.5932 15.7825Z" fill="#CDCDCD"/>
<path d="M68.7966 21.0905C70.3247 21.0905 71.6517 20.7286 72.5162 19.9243C73.2802 19.2206 73.7427 18.2354 73.7427 16.7878V7.25755H71.1088V8.34327H71.0686C70.4453 7.47871 69.5003 6.97607 68.2135 6.97607C65.5998 6.97607 63.75 8.94645 63.75 12.0227C63.75 15.1391 66.0019 16.9486 68.294 16.9486C69.6009 16.9486 70.385 16.4259 70.9882 15.7423H71.0485V16.8682C71.0485 18.2756 70.3046 19.0195 68.7564 19.0195C67.4897 19.0195 66.9067 18.5169 66.6855 17.8735H63.9712C64.2527 19.8841 65.9818 21.0905 68.7966 21.0905ZM68.7564 14.7571C67.349 14.7571 66.4241 13.7317 66.4241 11.9825C66.4241 10.2534 67.349 9.16761 68.7363 9.16761C70.385 9.16761 71.1892 10.4544 71.1892 11.9624C71.1892 13.4904 70.4855 14.7571 68.7564 14.7571Z" fill="#CDCDCD"/>
<path d="M80.3891 17.8735C83.5859 17.8735 85.7775 15.501 85.7775 12.4248C85.7775 9.34856 83.5859 6.97607 80.3891 6.97607C77.1923 6.97607 75.0007 9.34856 75.0007 12.4248C75.0007 15.501 77.1923 17.8735 80.3891 17.8735ZM80.3891 15.7825C78.7002 15.7825 77.7753 14.4354 77.7753 12.4248C77.7753 10.4142 78.7002 9.04698 80.3891 9.04698C82.0579 9.04698 83.0029 10.4142 83.0029 12.4248C83.0029 14.4354 82.0579 15.7825 80.3891 15.7825Z" fill="#CDCDCD"/>
<path d="M88.1746 13.6312H99.9967V11.2788H88.1746V13.6312Z" fill="#CDCDCD"/>
<path d="M100.864 23.1718C100.864 22.7091 101.239 22.334 101.702 22.334H103.377C103.84 22.334 104.215 22.7091 104.215 23.1718C104.215 23.6344 103.84 24.0095 103.377 24.0095H101.702C101.239 24.0095 100.864 23.6344 100.864 23.1718Z" fill="#CDCDCD"/>
<path fill-rule="evenodd" clip-rule="evenodd" d="M20.5181 0C31.5638 0 40.5181 8.9543 40.5181 20C40.5181 31.0457 31.5638 40 20.5181 40C9.47237 40 0.518066 31.0457 0.518066 20C0.518066 8.9543 9.47237 0 20.5181 0ZM19.7952 1.49659C17.5136 1.81769 15.341 3.65108 13.6545 6.7174C13.1653 7.60683 12.7239 8.58946 12.3392 9.65044C14.6324 9.07417 17.1515 8.73442 19.7952 8.68187V1.49659ZM10.6489 10.1308C11.1272 8.62958 11.7124 7.2484 12.3877 6.02065C13.2237 4.50059 14.2159 3.18795 15.3338 2.17977C9.25486 3.94523 4.46329 8.73679 2.69784 14.8157C3.70601 13.6978 5.01866 12.7056 6.53872 11.8696C7.76647 11.1943 9.14764 10.6091 10.6489 10.1308ZM10.1685 11.8211C9.59223 14.1143 9.25249 16.6334 9.19994 19.2771H2.01465C2.33576 16.9954 4.16915 14.8228 7.23547 13.1364C8.1249 12.6472 9.10753 12.2058 10.1685 11.8211ZM10.6461 19.2771C10.7058 16.392 11.1211 13.6834 11.8083 11.2902C14.2015 10.603 16.9102 10.1876 19.7952 10.1279V13.2508C18.7189 16.0062 16.5237 18.2012 13.7682 19.2771H10.6461ZM9.19994 20.7229H2.01465C2.33576 23.0046 4.16915 25.1771 7.23547 26.8636C8.1249 27.3528 9.10753 27.7942 10.1685 28.1789C9.59223 25.8857 9.25249 23.3666 9.19994 20.7229ZM11.8083 28.7098C11.1211 26.3166 10.7058 23.608 10.6461 20.7229H13.7682C16.5237 21.7988 18.719 23.9938 19.7952 26.7492V29.8721C16.9102 29.8124 14.2015 29.397 11.8083 28.7098ZM10.6489 29.8692C9.14764 29.3909 7.76647 28.8057 6.53872 28.1304C5.01866 27.2944 3.70601 26.3022 2.69784 25.1843C4.46329 31.2632 9.25486 36.0548 15.3338 37.8202C14.2159 36.812 13.2237 35.4994 12.3877 33.9793C11.7124 32.7516 11.1272 31.3704 10.6489 29.8692ZM19.7952 38.5034C17.5136 38.1823 15.341 36.3489 13.6545 33.2826C13.1653 32.3932 12.7239 31.4105 12.3392 30.3496C14.6324 30.9258 17.1515 31.2656 19.7952 31.3181V38.5034ZM25.7024 37.8202C26.8203 36.812 27.8125 35.4994 28.6486 33.9793C29.3238 32.7516 29.909 31.3704 30.3873 29.8692C31.8885 29.3909 33.2697 28.8057 34.4975 28.1304C36.0175 27.2944 37.3302 26.3022 38.3383 25.1843C36.5729 31.2632 31.7813 36.0548 25.7024 37.8202ZM28.697 30.3496C28.3123 31.4105 27.8709 32.3932 27.3817 33.2826C25.6953 36.3489 23.5227 38.1823 21.241 38.5034V31.3181C23.8847 31.2656 26.4038 30.9258 28.697 30.3496ZM30.8677 28.1789C31.9286 27.7942 32.9113 27.3528 33.8007 26.8636C36.867 25.1771 38.7004 23.0046 39.0215 20.7229H31.8362C31.7837 23.3666 31.4439 25.8857 30.8677 28.1789ZM30.3902 20.7229C30.3305 23.608 29.9151 26.3166 29.2279 28.7098C26.8347 29.397 24.1261 29.8124 21.241 29.8721V26.7515C22.3169 23.9951 24.5126 21.7991 27.2689 20.7229H30.3902ZM31.8362 19.2771H39.0215C38.7004 16.9954 36.867 14.8228 33.8007 13.1364C32.9113 12.6472 31.9286 12.2058 30.8677 11.8211C31.4439 14.1143 31.7837 16.6334 31.8362 19.2771ZM29.2279 11.2902C29.9151 13.6834 30.3305 16.392 30.3902 19.2771H27.2689C24.5126 18.2009 22.3169 16.0049 21.241 13.2485V10.1279C24.1261 10.1876 26.8347 10.603 29.2279 11.2902ZM30.3873 10.1308C31.8885 10.6091 33.2697 11.1943 34.4975 11.8696C36.0175 12.7056 37.3302 13.6978 38.3383 14.8157C36.5729 8.73679 31.7813 3.94523 25.7024 2.17977C26.8203 3.18795 27.8125 4.50059 28.6486 6.02065C29.3238 7.2484 29.909 8.62958 30.3873 10.1308ZM21.241 1.49659C23.5227 1.81769 25.6953 3.65108 27.3817 6.7174C27.8709 7.60684 28.3123 8.58946 28.697 9.65044C26.4038 9.07417 23.8847 8.73442 21.241 8.68187V1.49659Z" fill="#CDCDCD"/>
</g>
<defs>
<clipPath id="clip0_1059_2740">
<rect width="105" height="40" fill="white" transform="translate(-0.00341797)"/>
</clipPath>
</defs>
</svg>
