<svg width="242" height="34" viewBox="0 0 242 34" fill="none" xmlns="http://www.w3.org/2000/svg">
<path d="M14.4317 2.11046C15.3292 3.02052 16.0635 3.82552 16.0635 3.89949C16.0635 3.97284 15.3157 4.79153 14.4017 5.71898L12.74 7.40484L11.0776 5.71898C10.1636 4.79153 9.41585 3.97471 9.41585 3.90322C9.41585 3.77455 12.6122 0.455078 12.7363 0.455078C12.7711 0.455078 13.5342 1.19978 14.4317 2.11046ZM22.9972 2.11046C23.8941 3.02052 24.6283 3.82552 24.6283 3.89949C24.6283 3.97284 23.8806 4.79153 22.9666 5.71898L21.3048 7.40484L19.6431 5.71898C18.7291 4.79153 17.9807 3.97471 17.9807 3.90322C17.9807 3.77455 21.1777 0.455078 21.3012 0.455078C21.3367 0.455078 22.0996 1.19978 22.9972 2.11046ZM5.85453 10.531C6.72331 11.4261 7.45575 12.2225 7.48204 12.3001C7.5444 12.4885 4.42573 15.6625 4.17811 15.6625C3.96779 15.6625 0.850952 12.5612 0.850952 12.3517C0.850952 12.21 4.05339 8.90357 4.19095 8.90357C4.2368 8.90357 4.98575 9.63586 5.85453 10.531ZM14.4317 10.559C15.3292 11.4696 16.0635 12.2727 16.0635 12.3442C16.0635 12.5544 12.954 15.6625 12.7437 15.6625C12.5327 15.6625 9.41585 12.5612 9.41585 12.3517C9.41585 12.223 12.6122 8.90357 12.7363 8.90357C12.7711 8.90357 13.5342 9.6483 14.4317 10.559ZM22.9972 10.559C23.8941 11.4696 24.6283 12.2727 24.6283 12.3442C24.6283 12.5544 21.5188 15.6625 21.3085 15.6625C21.0976 15.6625 17.9807 12.5612 17.9807 12.3517C17.9807 12.223 21.1777 8.90357 21.3012 8.90357C21.3367 8.90357 22.0996 9.6483 22.9972 10.559ZM31.5621 10.559C32.4596 11.4696 33.1939 12.2765 33.1939 12.3524C33.1939 12.4288 32.4437 13.2456 31.5272 14.1674L29.8605 15.844L28.2007 14.1613C27.2879 13.2357 26.5561 12.399 26.5756 12.3033C26.6184 12.085 29.6313 8.91911 29.8043 8.90978C29.8734 8.90668 30.6645 9.6483 31.5621 10.559ZM22.9972 19.2673C23.8941 20.1779 24.6283 20.983 24.6283 21.0563C24.6283 21.1303 23.8806 21.949 22.9666 22.8764L21.3048 24.5623L19.6431 22.8764C18.7291 21.949 17.9807 21.1315 17.9807 21.06C17.9807 20.932 21.1777 17.6119 21.3012 17.6119C21.3367 17.6119 22.0996 18.3572 22.9972 19.2673ZM31.5621 19.2673C32.4596 20.1779 33.1939 20.983 33.1939 21.0563C33.1939 21.1303 32.4462 21.949 31.5321 22.8764L29.8698 24.5623L28.208 22.8764C27.294 21.949 26.5463 21.1315 26.5463 21.06C26.5463 20.932 29.7426 17.6119 29.8661 17.6119C29.9016 17.6119 30.6645 18.3572 31.5621 19.2673ZM22.9972 27.9763C23.8941 28.8863 24.6283 29.6919 24.6283 29.7653C24.6283 29.8387 23.8806 30.6573 22.9666 31.5847L21.3048 33.2706L19.6431 31.5847C18.7291 30.6573 17.9807 29.8405 17.9807 29.769C17.9807 29.6403 21.1777 26.3208 21.3012 26.3208C21.3367 26.3208 22.0996 27.0655 22.9972 27.9763Z" fill="#85C456"/>
<path d="M5.89706 19.1635L7.30141 20.6019H8.45632H9.61122L11.0767 19.1069C11.8831 18.2845 12.629 17.612 12.7348 17.612C12.9482 17.612 16.1904 20.8444 16.1904 21.057C16.1904 21.1303 15.5001 21.8906 14.6564 22.7465L13.1224 24.3018V25.4109V26.5198L14.6564 28.0757C15.5001 28.9311 16.1904 29.6914 16.1904 29.7646C16.1904 29.8386 15.4139 30.6866 14.4644 31.65L12.7391 33.4012L11.0132 31.65C10.0636 30.6866 9.28721 29.8405 9.28721 29.769C9.28721 29.6975 9.94624 28.9659 10.7514 28.1422L12.2151 26.646L12.2506 25.4432L12.2861 24.2403L10.9489 22.8759L9.61122 21.5114H8.45632H7.30141L5.83531 23.0064C5.0295 23.8282 4.283 24.5008 4.17723 24.5008C3.96691 24.5008 0.72229 21.2702 0.72229 21.0601C0.72229 20.7505 4.0898 17.4969 4.29217 17.6113C4.40283 17.6734 5.12488 18.3721 5.89706 19.1635Z" fill="#FBFBFB"/>
<path d="M162.677 4.69678H166.288V24.1265H162.677V4.69678Z" fill="#85C456"/>
<path d="M169.525 9.75554H173.058V11.2217C173.863 10.5349 174.591 10.0594 175.24 9.79517C175.899 9.52219 176.57 9.38574 177.254 9.38574C178.658 9.38574 179.848 9.88322 180.827 10.8783C181.65 11.7236 182.06 12.9741 182.06 14.6295V24.1264H178.553V17.826C178.553 16.1089 178.475 14.9685 178.32 14.4049C178.172 13.8414 177.908 13.4143 177.527 13.1238C177.155 12.8243 176.692 12.6746 176.137 12.6746C175.418 12.6746 174.799 12.9212 174.28 13.4143C173.768 13.8986 173.413 14.5723 173.214 15.4352C173.11 15.8843 173.058 16.8573 173.058 18.3543V24.1264H169.525V9.75554Z" fill="#85C456"/>
<path d="M193.677 11.7632L191.481 13.9955C190.59 13.0973 189.779 12.6482 189.052 12.6482C188.654 12.6482 188.342 12.7363 188.117 12.9124C187.891 13.0798 187.779 13.2911 187.779 13.5464C187.779 13.7402 187.848 13.9206 187.987 14.0879C188.133 14.2465 188.489 14.4666 189.052 14.7483L190.351 15.4088C191.719 16.0956 192.659 16.7957 193.17 17.509C193.681 18.2223 193.936 19.0587 193.936 20.0186C193.936 21.2954 193.473 22.3609 192.547 23.2151C191.629 24.0693 190.394 24.4963 188.844 24.4963C186.783 24.4963 185.137 23.6774 183.908 22.0396L186.09 19.6223C186.505 20.1155 186.99 20.5161 187.545 20.8243C188.108 21.1237 188.606 21.2734 189.039 21.2734C189.506 21.2734 189.883 21.159 190.169 20.93C190.455 20.701 190.597 20.4369 190.597 20.1375C190.597 19.5827 190.083 19.0412 189.052 18.5129L187.856 17.9052C185.57 16.734 184.427 15.2679 184.427 13.5068C184.427 12.3709 184.855 11.4022 185.713 10.6009C186.579 9.79079 187.684 9.38574 189.026 9.38574C189.944 9.38574 190.806 9.59269 191.611 10.0065C192.425 10.4116 193.113 10.9972 193.677 11.7632Z" fill="#85C456"/>
<path d="M197.653 3.83838C198.277 3.83838 198.81 4.06732 199.251 4.52522C199.702 4.98311 199.927 5.53788 199.927 6.1895C199.927 6.83232 199.706 7.38267 199.265 7.84057C198.823 8.28966 198.295 8.51421 197.68 8.51421C197.047 8.51421 196.506 8.28526 196.056 7.82736C195.614 7.36066 195.393 6.79709 195.393 6.13666C195.393 5.50265 195.614 4.9611 196.056 4.51202C196.498 4.06292 197.03 3.83838 197.653 3.83838ZM195.874 9.75579H199.434V24.1267H195.874V9.75579Z" fill="#85C456"/>
<path d="M212.621 9.75554H216.154V22.066C216.154 24.4963 215.674 26.2838 214.713 27.4286C213.422 28.9784 211.478 29.7534 208.879 29.7534C207.494 29.7534 206.329 29.5772 205.385 29.225C204.441 28.8728 203.644 28.3532 202.995 27.6664C202.345 26.9883 201.864 26.1606 201.553 25.1831H205.463C205.809 25.5882 206.255 25.892 206.801 26.0945C207.347 26.3058 207.992 26.4115 208.737 26.4115C209.689 26.4115 210.456 26.2618 211.036 25.9624C211.616 25.6631 212.024 25.2756 212.257 24.8001C212.5 24.3246 212.621 23.5057 212.621 22.3433C211.997 22.9773 211.343 23.4353 210.66 23.717C209.975 23.99 209.2 24.1264 208.334 24.1264C206.437 24.1264 204.835 23.4308 203.527 22.0396C202.22 20.6482 201.566 18.887 201.566 16.7561C201.566 14.4755 202.258 12.6438 203.644 11.2613C204.9 10.0109 206.399 9.38574 208.139 9.38574C208.953 9.38574 209.72 9.53982 210.439 9.84805C211.166 10.1474 211.893 10.6449 212.621 11.3406V9.75554ZM208.945 12.7539C207.827 12.7539 206.905 13.1369 206.178 13.903C205.45 14.6603 205.087 15.6158 205.087 16.7693C205.087 17.9669 205.459 18.9487 206.203 19.7149C206.948 20.4809 207.883 20.864 209.01 20.864C210.11 20.864 211.014 20.4897 211.725 19.7412C212.443 18.9927 212.803 18.0109 212.803 16.7957C212.803 15.5982 212.443 14.6251 211.725 13.8766C211.006 13.1282 210.079 12.7539 208.945 12.7539Z" fill="#85C456"/>
<path d="M219.274 4.20801H222.795V11.2085C223.487 10.6009 224.184 10.1475 224.887 9.8481C225.588 9.53986 226.298 9.38579 227.017 9.38579C228.42 9.38579 229.602 9.87888 230.564 10.8651C231.386 11.7193 231.797 12.9741 231.797 14.6296V24.1265H228.303V17.826C228.303 16.1617 228.225 15.0346 228.069 14.4446C227.913 13.8546 227.645 13.4143 227.264 13.1238C226.891 12.8332 226.428 12.6879 225.874 12.6879C225.155 12.6879 224.536 12.93 224.016 13.4143C223.505 13.8987 223.15 14.5592 222.951 15.3956C222.847 15.8272 222.795 16.8134 222.795 18.3544V24.1265H219.274V4.20801Z" fill="#85C456"/>
<path d="M235.19 4.45898H238.724V9.7556H240.828V12.8596H238.724V24.1265H235.19V12.8596H233.372V9.7556H235.19V4.45898Z" fill="#85C456"/>
<path d="M47.9007 4.69678H51.5901L58.9431 24.1265H55.1627L53.6687 20.1244H45.8741L44.3152 24.1265H40.5348L47.9007 4.69678ZM49.7714 9.84815L47.2252 16.5184H52.3046L49.7714 9.84815Z" fill="white"/>
<path d="M60.9065 9.75554H64.44V11.2217C65.2455 10.5349 65.973 10.0594 66.6225 9.79517C67.2808 9.52219 67.9519 9.38574 68.6361 9.38574C70.0392 9.38574 71.23 9.88322 72.2087 10.8783C73.0315 11.7236 73.4429 12.9741 73.4429 14.6295V24.1264H69.9353V17.826C69.9353 16.1089 69.8573 14.9685 69.7015 14.4049C69.5543 13.8414 69.2901 13.4143 68.909 13.1238C68.5366 12.8243 68.0732 12.6746 67.519 12.6746C66.8001 12.6746 66.1809 12.9212 65.6612 13.4143C65.1503 13.8986 64.7952 14.5723 64.596 15.4352C64.4921 15.8843 64.44 16.8573 64.44 18.3543V24.1264H60.9065V9.75554Z" fill="white"/>
<path d="M86.8513 9.75554H90.3848V24.1264H86.8513V22.6074C86.1584 23.2767 85.4612 23.761 84.7597 24.0604C84.0669 24.351 83.3134 24.4963 82.4993 24.4963C80.6718 24.4963 79.0913 23.7787 77.7575 22.3433C76.4238 20.8992 75.757 19.1072 75.757 16.9675C75.757 14.7484 76.4022 12.93 77.6926 11.5123C78.983 10.0946 80.5507 9.38574 82.3953 9.38574C83.2441 9.38574 84.0409 9.54858 84.7857 9.87445C85.5305 10.2002 86.219 10.6889 86.8513 11.3406V9.75554ZM83.1228 12.7143C82.0229 12.7143 81.1093 13.1105 80.3817 13.9031C79.6543 14.6868 79.2905 15.695 79.2905 16.9278C79.2905 18.1694 79.6586 19.1909 80.3947 19.9922C81.1396 20.7935 82.0533 21.1942 83.1358 21.1942C84.2531 21.1942 85.1797 20.8023 85.9159 20.0186C86.6521 19.2261 87.0202 18.1914 87.0202 16.9146C87.0202 15.6642 86.6521 14.6515 85.9159 13.8766C85.1797 13.1018 84.2488 12.7143 83.1228 12.7143Z" fill="white"/>
<path d="M93.1145 4.20801H96.6609V24.1265H93.1145V4.20801Z" fill="white"/>
<path d="M97.8323 9.75586H101.457L105.134 18.7773L109.186 9.75586H112.824L103.964 29.3838H100.301L103.211 23.0569L97.8323 9.75586Z" fill="white"/>
<path d="M114.787 4.45898H118.321V9.75559H120.425V12.8596H118.321V24.1265H114.787V12.8596H112.968V9.75559H114.787V4.45898Z" fill="white"/>
<path d="M123.247 3.83838C123.87 3.83838 124.402 4.06732 124.844 4.52522C125.294 4.98311 125.52 5.53788 125.52 6.1895C125.52 6.83232 125.299 7.38267 124.857 7.84057C124.415 8.28966 123.887 8.51421 123.272 8.51421C122.64 8.51421 122.098 8.28526 121.649 7.82737C121.207 7.36066 120.986 6.79709 120.986 6.13666C120.986 5.50265 121.207 4.9611 121.649 4.51202C122.09 4.06292 122.623 3.83838 123.247 3.83838ZM121.466 9.75579H125.026V24.1267H121.466V9.75579Z" fill="white"/>
<path d="M141.604 12.6615L138.655 14.3125C138.101 13.7225 137.551 13.3131 137.005 13.0841C136.469 12.8552 135.836 12.7407 135.109 12.7407C133.784 12.7407 132.71 13.1458 131.887 13.9559C131.073 14.7572 130.666 15.7875 130.666 17.0467C130.666 18.2707 131.06 19.2702 131.848 20.045C132.636 20.8199 133.671 21.2074 134.953 21.2074C136.538 21.2074 137.772 20.657 138.655 19.5563L141.449 21.498C139.933 23.4969 137.794 24.4963 135.031 24.4963C132.546 24.4963 130.596 23.7478 129.185 22.2509C127.782 20.7539 127.08 19.0016 127.08 16.9939C127.08 15.6026 127.422 14.3213 128.107 13.1502C128.791 11.979 129.744 11.0588 130.964 10.3895C132.195 9.72037 133.567 9.38574 135.083 9.38574C136.486 9.38574 137.746 9.67188 138.863 10.2442C139.981 10.8078 140.894 11.6135 141.604 12.6615Z" fill="white"/>
<path d="M152.986 11.7632L150.791 13.9955C149.898 13.0973 149.089 12.6482 148.361 12.6482C147.963 12.6482 147.651 12.7363 147.426 12.9124C147.201 13.0798 147.089 13.2911 147.089 13.5464C147.089 13.7402 147.157 13.9206 147.296 14.0879C147.443 14.2465 147.799 14.4666 148.361 14.7484L149.661 15.4088C151.029 16.0956 151.969 16.7957 152.479 17.509C152.991 18.2223 153.246 19.0588 153.246 20.0186C153.246 21.2954 152.783 22.3609 151.856 23.2151C150.938 24.0693 149.704 24.4963 148.153 24.4963C146.092 24.4963 144.447 23.6774 143.217 22.0396L145.4 19.6223C145.815 20.1155 146.3 20.5161 146.854 20.8243C147.418 21.1237 147.916 21.2734 148.349 21.2734C148.816 21.2734 149.193 21.159 149.479 20.93C149.765 20.701 149.907 20.4369 149.907 20.1375C149.907 19.5827 149.392 19.0412 148.361 18.5129L147.166 17.9052C144.88 16.7341 143.737 15.2679 143.737 13.5068C143.737 12.3709 144.165 11.4022 145.023 10.6009C145.889 9.79079 146.993 9.38574 148.335 9.38574C149.253 9.38574 150.115 9.59269 150.921 10.0065C151.735 10.4116 152.423 10.9972 152.986 11.7632Z" fill="white"/>
</svg>
