<svg width="155" height="40" viewBox="0 0 155 40" fill="none" xmlns="http://www.w3.org/2000/svg">
<g clip-path="url(#clip0_1059_2753)">
<path d="M51.5821 10.2837H48V26.447H57.9164V23.2799H51.5821V10.2837Z" fill="#CDCDCD"/>
<path d="M58.2585 20.9646C58.2585 24.4157 60.5738 26.7091 64.0685 26.7091C67.5414 26.7091 69.8567 24.4157 69.8567 20.9646C69.8567 17.5135 67.5414 15.1982 64.0685 15.1982C60.5738 15.1982 58.2585 17.5135 58.2585 20.9646ZM61.644 20.9427C61.644 19.3046 62.6051 18.2125 64.0685 18.2125C65.5101 18.2125 66.4712 19.3046 66.4712 20.9427C66.4712 22.6028 65.5101 23.6949 64.0685 23.6949C62.6051 23.6949 61.644 22.6028 61.644 20.9427Z" fill="#CDCDCD"/>
<path d="M70.3977 20.7901C70.3977 24.0882 72.5383 26.3161 75.5743 26.3161C77.0378 26.3161 78.3046 25.7919 78.938 24.9401V26.4472C78.938 27.9543 77.9988 28.959 76.3388 28.959C74.8535 28.959 73.8269 28.2601 73.7614 27.0151H70.354C70.6598 30.0075 72.9751 32.0169 76.1422 32.0169C79.8772 32.0169 82.2362 29.5925 82.2362 25.7482V15.5261H79.2001L79.0254 16.64C78.4138 15.7445 77.1251 15.1548 75.6399 15.1548C72.5819 15.1548 70.3977 17.4482 70.3977 20.7901ZM73.8051 20.7027C73.8051 19.13 74.8535 18.0816 76.1859 18.0816C77.7367 18.0816 78.8725 19.1082 78.8725 20.7027C78.8725 22.2972 77.7585 23.3893 76.2077 23.3893C74.8754 23.3893 73.8051 22.2972 73.8051 20.7027Z" fill="#CDCDCD"/>
<path d="M83.2166 20.9646C83.2166 24.4157 85.5319 26.7091 89.0267 26.7091C92.4996 26.7091 94.8148 24.4157 94.8148 20.9646C94.8148 17.5135 92.4996 15.1982 89.0267 15.1982C85.5319 15.1982 83.2166 17.5135 83.2166 20.9646ZM86.6022 20.9427C86.6022 19.3046 87.5632 18.2125 89.0267 18.2125C90.4682 18.2125 91.4293 19.3046 91.4293 20.9427C91.4293 22.6028 90.4682 23.6949 89.0267 23.6949C87.5632 23.6949 86.6022 22.6028 86.6022 20.9427Z" fill="#CDCDCD"/>
<path d="M97.7148 13.8224C98.7632 13.8224 99.6151 12.9705 99.6151 11.9003C99.6151 10.83 98.7632 10 97.7148 10C96.6445 10 95.7927 10.83 95.7927 11.9003C95.7927 12.9705 96.6445 13.8224 97.7148 13.8224ZM96.0111 26.4472H99.3967V15.5261H96.0111V26.4472Z" fill="#CDCDCD"/>
<path d="M101.368 31.6895H104.688V25.3553C105.321 26.1853 106.763 26.7532 108.27 26.7532C111.524 26.7532 113.49 24.2632 113.403 20.8121C113.315 17.2955 111.284 15.1768 108.248 15.1768C106.697 15.1768 105.234 15.8539 104.622 16.8587L104.447 15.5263H101.368V31.6895ZM104.753 20.9868C104.753 19.3487 105.845 18.2566 107.418 18.2566C109.012 18.2566 110.017 19.3705 110.017 20.9868C110.017 22.6032 109.012 23.7171 107.418 23.7171C105.845 23.7171 104.753 22.625 104.753 20.9868Z" fill="#CDCDCD"/>
<path d="M113.761 22.9963C113.848 25.2024 115.596 26.7313 118.348 26.7313C120.991 26.7313 122.826 25.3334 122.826 23.0837C122.826 21.4674 121.865 20.3971 120.073 19.9602L118.13 19.4797C117.431 19.305 116.994 19.1302 116.994 18.5623C116.994 17.9944 117.452 17.6231 118.13 17.6231C118.894 17.6231 119.396 18.1255 119.375 18.8681H122.411C122.323 16.5965 120.598 15.1768 118.195 15.1768C115.771 15.1768 113.958 16.6184 113.958 18.8026C113.958 20.266 114.766 21.4674 116.928 22.0353L118.85 22.5376C119.418 22.6905 119.658 22.9526 119.658 23.3239C119.658 23.87 119.156 24.2195 118.304 24.2195C117.321 24.2195 116.797 23.7608 116.797 22.9963H113.761Z" fill="#CDCDCD"/>
<path d="M127.974 26.7309C129.307 26.7309 130.639 26.1193 131.316 25.2238L131.535 26.447H134.702V15.5259H131.338V21.2049C131.338 22.843 130.858 23.7385 129.307 23.7385C128.105 23.7385 127.319 23.1925 127.319 21.1612V15.5259H123.955V22.3843C123.955 24.9836 125.397 26.7309 127.974 26.7309Z" fill="#CDCDCD"/>
<path d="M140.036 26.4472V20.4843C140.036 18.6495 141.019 18.1253 141.98 18.1253C143.05 18.1253 143.749 18.7806 143.749 20.1348V26.4472H147.069V20.4843C147.069 18.6277 148.03 18.1035 148.991 18.1035C150.061 18.1035 150.782 18.7587 150.782 20.1348V26.4472H154.059V19.3048C154.059 16.8148 152.748 15.1548 149.93 15.1548C148.358 15.1548 147.069 15.9192 146.501 17.0987C145.846 15.9192 144.71 15.1548 142.897 15.1548C141.696 15.1548 140.582 15.7008 139.927 16.5745L139.796 15.5261H136.65V26.4472H140.036Z" fill="#CDCDCD"/>
<path d="M0 20C0 10.5719 0 5.85786 2.92893 2.92893C5.85786 0 10.5719 0 20 0C29.4281 0 34.1421 0 37.0711 2.92893C40 5.85786 40 10.5719 40 20C40 29.4281 40 34.1421 37.0711 37.0711C34.1421 40 29.4281 40 20 40C10.5719 40 5.85786 40 2.92893 37.0711C0 34.1421 0 29.4281 0 20Z" fill="#CDCDCD"/>
<path d="M23.9999 26C24.5522 26 25.01 26.4521 24.9003 26.9934C24.7064 27.9494 24.2354 28.8355 23.5354 29.5355C22.5978 30.4732 21.326 31 19.9999 31C18.6738 31 17.4021 30.4732 16.4644 29.5355C15.7644 28.8355 15.2934 27.9494 15.0996 26.9934C14.9898 26.4521 15.4476 26 15.9999 26H23.9999Z" fill="#050505"/>
<path d="M26.1022 17.7765C25.5687 17.9194 25.242 18.4775 25.5125 18.959C25.7972 19.4658 26.191 19.9081 26.6701 20.2514C27.4223 20.7904 28.3381 21.052 29.2616 20.9914C30.185 20.9309 31.0589 20.5521 31.7343 19.9195C32.4098 19.2869 32.8449 18.4396 32.9657 17.5221C33.0865 16.6046 32.8855 15.6736 32.3968 14.8877C31.9081 14.1019 31.162 13.5098 30.2857 13.2123C29.4094 12.9148 28.4571 12.9304 27.591 13.2564C27.0394 13.464 26.5446 13.7893 26.1384 14.2051C25.7525 14.6002 25.9236 15.2239 26.4019 15.5L26.9092 15.7929C27.6807 16.2384 27.5286 17.3943 26.668 17.6249L26.1022 17.7765Z" fill="#050505"/>
<path d="M13.8977 17.7765C14.4312 17.9194 14.7579 18.4775 14.4874 18.959C14.2027 19.4658 13.8089 19.9081 13.3299 20.2514C12.5777 20.7904 11.6618 21.052 10.7384 20.9914C9.81496 20.9309 8.94107 20.5521 8.26564 19.9195C7.59021 19.2869 7.15502 18.4396 7.03423 17.5221C6.91344 16.6046 7.11451 15.6736 7.6032 14.8877C8.09188 14.1019 8.83794 13.5098 9.71425 13.2123C10.5905 12.9148 11.5429 12.9304 12.409 13.2564C12.9605 13.464 13.4554 13.7893 13.8616 14.2051C14.2475 14.6002 14.0763 15.2239 13.598 15.5L13.0907 15.7929C12.3192 16.2384 12.4714 17.3943 13.3319 17.6249L13.8977 17.7765Z" fill="#050505"/>
</g>
<defs>
<clipPath id="clip0_1059_2753">
<rect width="155" height="40" fill="white"/>
</clipPath>
</defs>
</svg>
