<svg width="231" height="34" viewBox="0 0 231 34" fill="none" xmlns="http://www.w3.org/2000/svg">
<g clip-path="url(#clip0_1059_2838)">
<path d="M45.5664 23.228V17.7629H51.0612C52.9751 17.7629 54.1482 18.5568 54.1482 20.3275C54.1482 21.9763 52.9751 23.228 50.9995 23.228H45.5664ZM50.7217 9.91633C52.7282 9.91633 53.5618 10.5575 53.5618 12.1146C53.5618 13.5496 52.6665 14.3129 50.9686 14.3129H45.5664V9.91633H50.7217ZM50.66 26.678C55.8151 26.678 58.3157 24.3271 58.3157 20.6329C58.3157 17.7324 56.9265 16.3584 55.1978 15.7173C56.6178 15.1372 57.6982 13.6717 57.6982 11.9314C57.6982 8.54243 55.5374 6.40527 51.5242 6.40527H41.4299V26.678H50.66Z" fill="white"/>
<path d="M68.437 20.9692C68.4061 22.7401 66.8626 24.236 64.7943 24.236C63.5287 24.236 62.8495 23.6864 62.8495 22.5568C62.8495 21.2745 63.5904 20.6334 65.8748 20.2059C67.3565 19.9311 68.0665 19.7174 68.4678 19.3205L68.437 20.9692ZM72.4809 26.6785V17.1833C72.4809 13.3974 70.8139 11.2603 65.9982 11.2603C61.1208 11.2603 59.3921 13.4279 59.3304 16.5422H63.0657C63.2508 15.1988 63.9917 14.3134 65.813 14.3134C67.3874 14.3134 68.3752 14.8935 68.3752 15.8705C68.3752 16.9085 67.8196 17.3055 65.813 17.5802C61.7692 18.1297 58.8365 18.6183 58.8365 22.9537C58.8365 25.3963 60.4417 27.0754 63.899 27.0754C65.9365 27.0754 67.5417 26.3732 68.4987 25.3351C68.5296 25.7931 68.6222 26.3121 68.7456 26.6785H72.4809Z" fill="white"/>
<path d="M88.0147 26.6785V16.2673C88.0147 13.0005 85.8849 11.2603 82.9835 11.2603C80.5449 11.2603 79.0012 12.1762 78.075 13.8554V11.6572H74.2473V26.6785H78.2604V18.0688C78.2604 15.7789 79.2793 14.6187 81.3785 14.6187C83.2923 14.6187 83.9711 15.2599 83.9711 17.5802V26.6785H88.0147Z" fill="white"/>
<path d="M103.599 26.6776L98.6295 17.1825L103.723 11.6563H98.8149L93.8136 17.3656V6.16064H89.77V26.6776H93.8136V21.9147L95.7588 19.9302L99.093 26.6776H103.599Z" fill="white"/>
<path d="M108.696 26.6776V6.16064H104.683V26.6776H108.696Z" fill="white"/>
<path d="M114.191 17.7024C114.346 15.6262 115.673 14.405 117.278 14.405C118.853 14.405 120.335 15.4735 120.396 17.7024H114.191ZM124.532 20.2059C124.532 14.2523 122.063 11.2603 117.402 11.2603C112.74 11.2603 110.055 14.2523 110.055 18.893C110.055 24.3276 112.586 27.0754 117.649 27.0754C120.89 27.0754 123.391 25.3352 124.316 22.2515H120.18C119.902 23.2896 118.76 23.9307 117.463 23.9307C115.488 23.9307 114.191 22.4653 114.068 20.2059H124.532Z" fill="white"/>
<path d="M138.913 16.2063C138.697 12.97 136.722 11.2603 132.338 11.2603C127.708 11.2603 125.948 13.1838 125.948 15.7178C125.948 17.0612 126.443 18.2213 127.862 19.1068C128.943 19.7784 130.362 20.2059 132.925 20.8165C134.221 21.1219 135.364 21.4577 135.364 22.5263C135.364 23.6559 134.097 24.0834 132.678 24.0834C130.732 24.0834 129.529 23.2591 129.529 21.8546H125.393C125.455 24.9076 128.048 27.0754 132.709 27.0754C137.031 27.0754 139.346 25.213 139.346 22.0989C139.346 20.1448 138.45 19.1068 136.845 18.4657C135.672 18.0077 134.036 17.6718 132.308 17.1833C130.671 16.7253 129.838 16.359 129.838 15.4735C129.838 14.5882 130.703 14.2217 132.215 14.2217C134.036 14.2217 134.839 14.7407 135.055 16.2063H138.913Z" fill="white"/>
<path d="M153.485 16.2063C153.269 12.97 151.293 11.2603 146.911 11.2603C142.28 11.2603 140.52 13.1838 140.52 15.7178C140.52 17.0612 141.014 18.2213 142.434 19.1068C143.515 19.7784 144.934 20.2059 147.497 20.8165C148.793 21.1219 149.935 21.4577 149.935 22.5263C149.935 23.6559 148.671 24.0834 147.249 24.0834C145.306 24.0834 144.101 23.2591 144.101 21.8546H139.965C140.026 24.9076 142.62 27.0754 147.281 27.0754C151.603 27.0754 153.918 25.213 153.918 22.0989C153.918 20.1448 153.023 19.1068 151.418 18.4657C150.244 18.0077 148.608 17.6718 146.879 17.1833C145.243 16.7253 144.409 16.359 144.409 15.4735C144.409 14.5882 145.274 14.2217 146.787 14.2217C148.608 14.2217 149.411 14.7407 149.627 16.2063H153.485Z" fill="white"/>
<path d="M164.846 26.678V9.94685H171.051V6.40527H154.382V9.94685H160.555V26.678H164.846Z" fill="white"/>
<path d="M176.267 26.6776V11.6563H172.255V26.6776H176.267ZM176.267 9.85494V6.16064H172.255V9.85494H176.267Z" fill="white"/>
<path d="M199.821 26.6785V16.2673C199.821 13.4585 197.691 11.2603 194.634 11.2603C192.721 11.2603 191.363 11.993 190.529 13.6417C189.356 11.9014 188.368 11.2603 186.3 11.2603C184.294 11.2603 182.874 11.8708 181.855 13.8554V11.6572H178.089V26.6785H182.101V17.5497C182.101 15.5957 182.935 14.6187 184.54 14.6187C186.3 14.6187 186.949 15.2294 186.949 17.6412V26.6785H190.961V17.7024C190.961 15.8705 192.042 14.4966 193.524 14.4966C194.943 14.4966 195.901 15.7789 195.901 17.5802V26.6785H199.821Z" fill="white"/>
<path d="M205.165 17.7024C205.319 15.6262 206.647 14.405 208.252 14.405C209.826 14.405 211.308 15.4735 211.369 17.7024H205.165ZM215.507 20.2059C215.507 14.2523 213.037 11.2603 208.375 11.2603C203.714 11.2603 201.028 14.2523 201.028 18.893C201.028 24.3276 203.56 27.0754 208.622 27.0754C211.864 27.0754 214.364 25.3352 215.291 22.2515H211.154C210.875 23.2896 209.733 23.9307 208.437 23.9307C206.461 23.9307 205.165 22.4653 205.041 20.2059H215.507Z" fill="white"/>
<path d="M229.885 16.2063C229.669 12.97 227.694 11.2603 223.311 11.2603C218.68 11.2603 216.92 13.1838 216.92 15.7178C216.92 17.0612 217.415 18.2213 218.835 19.1068C219.915 19.7784 221.335 20.2059 223.897 20.8165C225.194 21.1219 226.336 21.4577 226.336 22.5263C226.336 23.6559 225.069 24.0834 223.65 24.0834C221.706 24.0834 220.501 23.2591 220.501 21.8546H216.365C216.428 24.9076 219.02 27.0754 223.682 27.0754C228.003 27.0754 230.318 25.213 230.318 22.0989C230.318 20.1448 229.423 19.1068 227.817 18.4657C226.645 18.0077 225.008 17.6718 223.28 17.1833C221.643 16.7253 220.81 16.359 220.81 15.4735C220.81 14.5882 221.675 14.2217 223.187 14.2217C225.008 14.2217 225.812 14.7407 226.027 16.2063H229.885Z" fill="white"/>
<path d="M17.7174 10.8722L22.3257 13.868L19.1172 16.0822L16.5066 14.3972L4.96009 21.9009L16.5066 29.4023L28.0547 21.9009L24.4109 19.5336L27.7149 17.3678L31.8976 20.0639C32.9178 20.7215 33.2059 22.0726 32.541 23.0817C32.3751 23.3334 32.1583 23.5487 31.9043 23.7138L17.7173 32.9304C16.9822 33.4077 16.0309 33.4077 15.296 32.9302L1.12616 23.7237C0.108363 23.0624 -0.174697 21.7102 0.493927 20.7037C0.659281 20.4547 0.874443 20.2419 1.12616 20.0783L15.2956 10.8719C16.0307 10.3943 16.9824 10.3944 17.7174 10.8722ZM17.7459 0.457727L31.9158 9.66431C32.9336 10.3256 33.2166 11.6778 32.5481 12.6844C32.3828 12.9334 32.1675 13.1461 31.9158 13.3096L17.7463 22.5161C17.0113 22.9936 16.0595 22.9936 15.3246 22.5158L10.7162 19.5201L13.9248 17.3057L16.5353 18.9909L28.0819 11.487L16.5353 3.98566L4.98733 11.487L8.63125 13.8543L5.32711 16.0201L1.14434 13.3242C0.124102 12.6666 -0.163969 11.3155 0.500914 10.3064C0.666856 10.0545 0.883653 9.83934 1.13768 9.67429L15.3248 0.457659C16.0597 -0.0197653 17.011 -0.0197381 17.7459 0.457727Z" fill="#FFBF1B"/>
</g>
<defs>
<clipPath id="clip0_1059_2838">
<rect width="231" height="34" fill="white"/>
</clipPath>
</defs>
</svg>
