<svg width="14" height="14" viewBox="0 0 14 14" fill="none" xmlns="http://www.w3.org/2000/svg">
<path d="M2.05108 11.949C1.38251 11.3033 0.849233 10.5309 0.48237 9.67683C0.115507 8.8228 -0.0775965 7.90426 -0.0856732 6.97481C-0.0937499 6.04535 0.083362 5.1236 0.435328 4.26332C0.787294 3.40305 1.30707 2.62148 1.96431 1.96423C2.62156 1.30699 3.40313 0.787214 4.2634 0.435248C5.12368 0.0832819 6.04543 -0.09383 6.97489 -0.0857533C7.90434 -0.0776766 8.82288 0.115427 9.67691 0.48229C10.5309 0.849153 11.3034 1.38243 11.9491 2.051C13.2242 3.37122 13.9297 5.13943 13.9138 6.97481C13.8978 8.81019 13.1617 10.5659 11.8638 11.8637C10.566 13.1616 8.81027 13.8978 6.97489 13.9137C5.13951 13.9297 3.3713 13.2241 2.05108 11.949ZM7.98008 7L9.96108 5.019L8.97408 4.032L7.00008 6.013L5.01908 4.032L4.03208 5.019L6.01308 7L4.03208 8.981L5.01908 9.968L7.00008 7.987L8.98108 9.968L9.96808 8.981L7.98708 7H7.98008Z" fill="white"/>
</svg>
